<?xml version="1.0" encoding="utf-8"?>
<!-- Generator: Adobe Illustrator 27.2.0, SVG Export Plug-In . SVG Version: 6.00 Build 0)  -->
<svg version="1.1" id="Layer_1" xmlns="http://www.w3.org/2000/svg" xmlns:xlink="http://www.w3.org/1999/xlink" x="0px" y="0px"
	 viewBox="0 0 1000 1000" style="enable-background:new 0 0 1000 1000;" xml:space="preserve">
<style type="text/css">
	.st0{fill:#20113E;}
</style>
<g id="Logo">
	<path id="Symbol_00000047047032514990604190000017974406311933347715_" class="st0" d="M416.8,527.5v83H162.1V355.8h254.7v41.6
		l20.7-8v-54.3h-296v296h296v-95.7L416.8,527.5z"/>
	<path id="Tagline" class="st0" d="M552.6,654.1h13.2v9.7h-15.9c-17.7,0-26.7-9-26.7-26.7c0-17.7,9-26.7,26.7-26.7h15.9v9.7h-13.2
		c-11.9,0-16.9,5.1-16.9,16.9C535.7,649.1,540.8,654.1,552.6,654.1z M589.5,641.4h30.8V632h-30.8v-11.9h31.3v-9.6h-43.7v26.7
		c0,17.7,9,26.7,26.7,26.7h17.1v-9.6h-16C594.7,654.2,589.9,650.2,589.5,641.4z M660.6,610.5h-26.7v53.3H646v-43.5h12.6
		c8.4,0,11.9,3.4,11.9,11.9v31.6h12.1v-31.3C682.6,617.3,675.8,610.5,660.6,610.5z M748.3,637.2c0,18.1-9.6,27.6-27.8,27.6
		s-27.8-9.6-27.8-27.6c0-18.1,9.6-27.6,27.8-27.6S748.3,619.1,748.3,637.2z M720.6,619.4c-10.4,0-15.4,5.8-15.4,17.8
		s5,17.8,15.4,17.8c10.4,0,15.4-5.8,15.4-17.8S730.9,619.4,720.6,619.4z M810.9,610.5h-52.2v53.3h12.1v-43.5l18.5,0v43.5h12.1v-43.5
		h7.9c8.2,0,11.5,3.3,11.5,11.5v32H833v-31.3C833,617.3,826.2,610.5,810.9,610.5z M845.6,610.5v53.3h12.1v-2.8v-50.6H845.6z
		 M851.7,591.1c-3.8,0-7,3.2-7,7.1c0,3.6,3.2,6.9,7,6.9c3.8,0,6.9-3.3,6.9-6.9C858.6,594.3,855.6,591.1,851.7,591.1z"/>
	<path id="Wordmark" class="st0" d="M832.8,407.5v66.3c0,16.9-6.9,23.3-23.8,23.3H800v-89.6l-24.9,0v89.6h-32.9v-89.6h-24.9v89.6
		h-57.6v-89.6l-24.9,0v89.6h-43.5v-89.6h-24.9v89.6h-44.6v-89.6l-46.6,0c-31.4,0-45.4,14-45.4,45.4V472c0,31.4,14,45.4,45.4,45.4
		h21.5c-0.5,16.1-7.6,22.7-24.4,22.7h-14.5l0,20.3h18.5c30.5,0,44.8-13.3,45.5-42.9h290.6c31.4,0,45.4-14,45.4-45.4v-64.5H832.8z
		 M454.7,472.7v-20.5c0-17.4,5.7-24.4,23.1-24.4h19l0,69.4h-19C460.4,497.1,454.7,490.1,454.7,472.7z M399.7,446.2
		c0-24.8-11.4-38.7-37.5-38.7H342c-26.1,0-37.5,14-37.5,38.7v50.9h-51.8v20.3h23.5c-0.5,16-7.7,21.9-24.4,22.7
		c-5.3,0.3-9.7,0.3-15,0c-17.4-0.8-24.5-7.1-24.5-24.4v-63.8h-24.9l0,63.2c0,31.4,14,44.6,45.4,45.4c7.9,0.2,15.1,0.2,23,0
		c30.5-0.7,44.6-13.3,45.3-42.9l98.6,0V446.2z M374.7,497.1h-45.3v-51.3c0-12.8,5.7-18.5,19.3-18.5h6.8c13.6,0,19.3,5.7,19.3,18.5
		V497.1z M642.5,542.6c0,7.4-6.3,14.1-14.1,14.1c-7.8,0-14.3-6.7-14.3-14.1c0-8.1,6.5-14.6,14.3-14.6
		C636.2,528.1,642.5,534.5,642.5,542.6z M680.4,542.6c0,7.4-6.3,14.1-14.1,14.1c-7.8,0-14.3-6.7-14.3-14.1c0-8.1,6.5-14.6,14.3-14.6
		C674.1,528.1,680.4,534.5,680.4,542.6z M592.5,382.2c0,7.4-6.3,14.1-14.1,14.1c-7.8,0-14.3-6.7-14.3-14.1c0-8.1,6.5-14.6,14.3-14.6
		C586.2,367.6,592.5,374.1,592.5,382.2z M240.5,585.6c0,7.4-6.3,14.1-14.1,14.1c-7.8,0-14.3-6.7-14.3-14.1c0-8.1,6.5-14.6,14.3-14.6
		C234.2,571,240.5,577.5,240.5,585.6z M278.3,585.6c0,7.4-6.3,14.1-14.1,14.1c-7.8,0-14.3-6.7-14.3-14.1c0-8.1,6.5-14.6,14.3-14.6
		C272.1,571,278.3,577.5,278.3,585.6z"/>
</g>
</svg>
