<svg width="37" height="40" viewBox="0 0 37 40" fill="none" xmlns="http://www.w3.org/2000/svg">
<path d="M3.73029 39.662C3.62776 39.5831 3.47792 39.3938 3.29653 39.0863L2.87855 38.3844C2.68139 38.0531 2.46846 37.8008 2.23186 37.6509C2.38959 37.6036 2.52366 37.5405 2.63407 37.4538C2.78391 37.3355 2.90221 37.1935 2.98107 37.0279C3.05205 36.8623 3.09148 36.6967 3.09148 36.5153C3.09148 36.3339 3.06782 36.2314 3.02839 36.0973C2.98107 35.9553 2.91009 35.8134 2.79968 35.6872C2.69716 35.561 2.54732 35.4506 2.35804 35.3639C2.16877 35.2771 1.94006 35.2377 1.67193 35.2377H0V35.4506H0.13407C0.220821 35.4506 0.307572 35.4821 0.37855 35.5452C0.449528 35.6083 0.48896 35.7187 0.48896 35.8765V39.3623C0.48896 39.4727 0.473186 39.5594 0.433754 39.6225C0.394322 39.6856 0.347004 39.725 0.291799 39.7487C0.228708 39.7724 0.157728 39.7881 0.0709774 39.796H0V39.9932H1.61672V39.796H1.54574C1.25394 39.7881 1.11199 39.6462 1.11199 39.3623V37.7534C1.18297 37.7534 1.25394 37.7613 1.30915 37.7692C1.38013 37.785 1.46688 37.8086 1.55363 37.856C1.64827 37.9033 1.75079 37.9821 1.8612 38.0926C1.97161 38.203 2.08202 38.3528 2.19243 38.5263L2.74448 39.4411H2.75237C2.75237 39.4569 2.76814 39.4727 2.81546 39.5515C2.85489 39.6146 2.88644 39.662 2.91009 39.7014C2.94953 39.7487 2.98107 39.796 3.01262 39.8355C3.04417 39.8828 3.07571 39.9222 3.11514 39.9695L3.1388 40.0011H4.08518V39.8118H4.02208C3.92744 39.796 3.82492 39.7566 3.7224 39.6777L3.73029 39.662ZM1.11987 35.5137C1.18297 35.5058 1.25394 35.4979 1.33281 35.4979C1.60095 35.4979 1.82177 35.5531 1.9795 35.6635C2.13722 35.7661 2.24764 35.9001 2.31073 36.0579C2.37382 36.2156 2.41325 36.3812 2.41325 36.5547C2.41325 36.7282 2.37382 36.9254 2.30284 37.0594C2.23186 37.1935 2.11357 37.296 1.95584 37.367C1.79022 37.438 1.5694 37.4774 1.30915 37.4774H1.11987V35.5137Z" fill="#707271"/>
<path d="M17.7838 35.2613C17.6892 35.3954 17.5551 35.4585 17.3816 35.4585H14.4005C14.3295 35.4585 14.2665 35.4585 14.2191 35.4506C14.1718 35.4506 14.1324 35.4348 14.1008 35.4191C14.0693 35.4033 14.0456 35.3875 14.0299 35.3717C14.0062 35.3481 13.9825 35.3165 13.951 35.2692L13.9273 35.2377H13.7617V36.5074H13.951V36.4364C13.9825 36.1604 14.0535 35.9869 14.1876 35.908C14.3295 35.8292 14.503 35.7818 14.716 35.7818H15.5598V39.3465C15.5598 39.5042 15.5204 39.6146 15.4494 39.6777C15.3627 39.7408 15.268 39.7803 15.1418 39.7803H15.0709V39.9774H16.6876V39.7803H16.6166C16.3248 39.7724 16.1907 39.6304 16.1907 39.3465V35.7818H17.0346C17.2396 35.7818 17.421 35.8213 17.563 35.908C17.6892 35.9869 17.768 36.1604 17.7917 36.4364V36.5074H17.9888V35.2377H17.8311L17.8075 35.2692L17.7838 35.2613Z" fill="#707271"/>
<path d="M25.2917 39.7488C25.2602 39.7409 25.2129 39.7014 25.1419 39.6068C25.0867 39.5201 25.0157 39.3781 24.9447 39.1888L23.5646 35.2456H23.1309L21.8296 39.2046C21.7665 39.4018 21.6876 39.5516 21.6088 39.6462C21.5299 39.733 21.4274 39.7803 21.2933 39.7961H21.2302V39.9932H22.4447V39.7961H22.3738C22.2712 39.7961 22.1924 39.7803 22.1451 39.7409C22.0898 39.7093 22.082 39.6147 22.082 39.5437C22.082 39.4727 22.1056 39.3465 22.1529 39.1967L22.4999 38.132H23.9668L24.3533 39.2835C24.3533 39.2992 24.3533 39.315 24.369 39.3308C24.4085 39.4412 24.4242 39.5201 24.4242 39.5831C24.4242 39.7251 24.369 39.7409 24.3533 39.7488C24.2823 39.7724 24.1719 39.7882 24.0299 39.7882H23.9589V39.9854H25.5835V39.7961H25.5204C25.4416 39.7803 25.3706 39.7645 25.3154 39.7488H25.2917ZM23.8327 37.8245H22.5867L23.1861 35.9554L23.8327 37.8245Z" fill="#707271"/>
<path d="M31.7113 39.0784L31.6955 39.1257C31.6324 39.2756 31.5772 39.3938 31.522 39.4727C31.4668 39.5437 31.4037 39.5989 31.3091 39.6383C31.2144 39.6778 31.0803 39.6935 30.9226 39.6935H30.5283C30.3232 39.6935 30.1734 39.662 30.0788 39.591C29.9999 39.5279 29.9605 39.4096 29.9605 39.2361V35.8765C29.9605 35.703 29.9999 35.5926 30.0788 35.5295C30.1655 35.4664 30.268 35.4349 30.3785 35.427H30.4494V35.2219H28.8248V35.4191H28.8958C29.0141 35.4191 29.1166 35.4585 29.1955 35.5216C29.2744 35.5847 29.3138 35.6951 29.3138 35.8607V39.3386C29.3138 39.4806 29.2744 39.5831 29.2034 39.662C29.1324 39.733 29.0456 39.7724 28.9589 39.7724H28.8248V39.9696H31.6955L31.9005 39.0626H31.7034L31.7113 39.0784Z" fill="#707271"/>
<path d="M10.2995 39.1648C10.26 39.2831 10.2127 39.3778 10.1575 39.4566C10.1023 39.5276 10.0313 39.5907 9.93668 39.6301C9.84204 39.6774 9.71586 39.6932 9.55813 39.6932H8.78526C8.6433 39.6932 8.55655 39.6617 8.52501 39.5986C8.48557 39.5197 8.46192 39.4251 8.46192 39.3147V35.5213H9.43195C10.0629 35.5213 10.1338 35.8131 10.1338 36.026V36.1049H10.3231V35.2295H7.34204V35.4345H7.47611C7.61018 35.4345 7.69693 35.474 7.74425 35.5528C7.79945 35.6475 7.831 35.7579 7.831 35.8841V39.3541C7.831 39.5118 7.79157 39.6222 7.7127 39.6853C7.63384 39.7563 7.55498 39.7879 7.47611 39.7879H7.34204V39.985H10.3073L10.4966 39.1175H10.3073L10.2916 39.1648H10.2995Z" fill="#707271"/>
<path d="M9.67648 37.2799L9.65281 37.3036C9.56606 37.4219 9.45565 37.4771 9.30581 37.4771H8.17017V37.761H8.99035C9.17174 37.761 9.32947 37.8004 9.44777 37.8714C9.55818 37.9345 9.62916 38.0922 9.64493 38.3288V38.3919H9.81843V37.2878H9.67648V37.2799Z" fill="#707271"/>
<path d="M31.9084 21.5863C29.6371 22.1699 28.0756 23.3528 28.0756 23.3528C25.0709 25.3008 21.5299 28.6525 18.817 28.6525C16.104 28.6525 15.9542 26.0658 15.9542 26.0658C15.9542 23.4869 17.5946 21.3339 18.5567 20.2929C18.4778 20.0011 18.4148 19.7093 18.3595 19.449C18.0677 17.9033 16.9084 9.32285 16.9084 9.32285C16.9084 9.32285 16.246 4.25187 12.5946 3.21875C12.6892 3.80235 14.7239 13.7629 15.063 15.5531C15.41 17.3434 15.2207 19.4964 15.2207 19.4964C15.0157 20.837 13.7854 22.1777 12.0504 23.3844C12.0504 23.3844 5.71759 27.9348 0.0472412 28.5815V31.8465H31.9006V23.0295V21.5863H31.9084Z" fill="#8E6B50"/>
<path d="M11.4825 22.3197C13.6277 20.9238 14.7712 19.6935 14.7712 19.4017C14.7712 18.6446 13.9668 15.3008 13.9668 15.3008C13.9668 15.3008 11.7822 4.4175 11.6245 3.37649C11.4668 2.3276 12.0898 1.40488 12.0898 1.40488C12.0898 1.40488 16.7665 1.5705 17.7996 9.27555C18.8248 16.9806 18.9904 18.8339 19.4242 19.9222C19.8579 21.0106 20.268 21.8781 21.3169 21.6494C21.3169 21.6494 22.0583 21.5232 22.5314 20.8449C22.5314 20.8449 22.2712 19.6856 21.4668 18.9285L21.6245 17.2487C21.6245 17.2487 23.0125 18.6367 23.0125 20.3639C23.0125 22.091 22.4605 22.9979 20.962 23.2188C19.7554 23.3923 19.0062 21.8386 18.604 20.427C17.3816 22.1541 16.6955 24.4491 16.6718 24.9459C16.656 25.2219 16.6087 27.0831 18.5409 27.0831C20.4731 27.0831 22.7996 25.3166 26.1119 23.0926C28.3753 21.4207 30.2996 20.5216 31.9163 20.1194V0.00109863H0.0629883V27.0516C6.11977 26.1762 11.4983 22.3276 11.4983 22.3276L11.4825 22.3197ZM22.1135 15.3402L20.3942 14.3308L21.0251 13.2503L19.5109 12.3591L20.3232 10.9711L22.0504 11.9806L21.4195 13.061L22.9415 13.9522L22.1213 15.3402H22.1135ZM19.6292 7.43801C19.6292 7.43801 20.5835 7.63517 20.9384 9.40962C20.9384 9.40962 20.8911 7.23296 21.7428 7.08312C22.5866 6.93327 22.3027 7.93485 22.2554 8.03738C22.2081 8.14779 22.145 7.60362 21.798 7.68249C21.4431 7.76135 21.1198 8.87334 21.0094 10.285C21.0094 10.285 20.7176 8.58943 19.7633 8.21876C19.7633 8.21876 19.992 8.47902 19.9131 8.54211C19.8343 8.6052 19.1718 8.26608 19.1876 7.87965C19.2191 7.31182 19.6371 7.43012 19.6371 7.43012L19.6292 7.43801Z" fill="#8E6B50"/>
<path d="M34.6451 30.5768L34.6609 30.8844H34.6215C34.6215 30.8292 34.6057 30.7897 34.5899 30.7661C34.5663 30.7266 34.5426 30.703 34.511 30.6793C34.4795 30.6635 34.4322 30.6556 34.377 30.6556H34.1877V31.6651C34.1877 31.744 34.1956 31.7992 34.2114 31.815C34.235 31.8465 34.2745 31.8544 34.3218 31.8544H34.3691V31.8938H33.8092V31.8544H33.8565C33.9117 31.8544 33.9511 31.8386 33.9748 31.8071C33.9905 31.7834 33.9984 31.7361 33.9984 31.6651V30.6556H33.8407C33.7776 30.6556 33.7303 30.6556 33.7066 30.6714C33.6751 30.6793 33.6435 30.7109 33.6199 30.7424C33.5962 30.7739 33.5804 30.8213 33.5804 30.8844H33.541L33.5568 30.5768H34.6372H34.6451Z" fill="#8E6B50"/>
<path d="M35.5284 31.9016L35.0158 30.7896V31.6729C35.0158 31.7517 35.0237 31.8069 35.0394 31.8227C35.0631 31.8543 35.1025 31.8621 35.1498 31.8621H35.1972V31.9016H34.7397V31.8621H34.7871C34.8423 31.8621 34.8817 31.8464 34.9054 31.8148C34.9211 31.7912 34.929 31.7439 34.929 31.6729V30.8054C34.929 30.7502 34.929 30.7028 34.9132 30.6792C34.9054 30.6634 34.8896 30.6476 34.8659 30.6319C34.8423 30.6161 34.8028 30.6161 34.7476 30.6161V30.5767H35.1183L35.5994 31.6098L36.0726 30.5767H36.4511V30.6161H36.4038C36.3486 30.6161 36.3091 30.6319 36.2855 30.6713C36.2697 30.695 36.2618 30.7423 36.2618 30.8133V31.6808C36.2618 31.7596 36.2697 31.8148 36.2934 31.8306C36.317 31.8622 36.3565 31.87 36.4038 31.87H36.4511V31.9095H35.8912V31.87H35.9385C35.9937 31.87 36.0331 31.8543 36.0568 31.8227C36.0725 31.7991 36.0804 31.7517 36.0804 31.6808V30.7975L35.5678 31.9095H35.5363L35.5284 31.9016Z" fill="#8E6B50"/>
</svg>
