<svg width="57" height="20" viewBox="0 0 57 20" fill="none" xmlns="http://www.w3.org/2000/svg">
<path d="M56.554 0.000732422H36.9484V19.6064H56.554V0.000732422Z" fill="url(#paint0_radial_79_441)"/>
<path d="M47.7686 8.2268C47.9973 8.3451 48.155 8.58169 48.1234 8.77097C48.084 8.96813 47.879 9.03122 47.6345 8.91292C47.3979 8.79463 47.2402 8.55015 47.2796 8.35299C47.319 8.1716 47.532 8.11639 47.7686 8.2268Z" fill="white"/>
<path d="M48.4546 4.44923C48.6439 4.55175 48.778 4.71736 48.7622 4.83566C48.7385 4.95396 48.5729 4.96973 48.3836 4.87509C48.1865 4.77257 48.0524 4.59907 48.0761 4.48077C48.0997 4.37036 48.2653 4.35459 48.4546 4.44923Z" fill="white"/>
<path d="M48.5178 4.07856C48.6755 4.16531 48.7859 4.29938 48.778 4.40191C48.7622 4.49654 48.6282 4.51232 48.4626 4.42557C48.2969 4.33881 48.1865 4.19686 48.2023 4.10222C48.226 3.9997 48.36 3.99181 48.5178 4.07856Z" fill="white"/>
<path d="M48.5807 3.70786C48.7306 3.78672 48.8331 3.9129 48.8173 3.99965C48.8016 4.08641 48.6754 4.09429 48.5255 4.01543C48.3757 3.93656 48.2732 3.80249 48.2811 3.71574C48.3047 3.62899 48.4309 3.62899 48.5807 3.70786Z" fill="white"/>
<path d="M48.6361 3.34506C48.7701 3.41604 48.8727 3.53434 48.8569 3.6132C48.8411 3.69207 48.7307 3.69207 48.5887 3.62109C48.4468 3.55011 48.3522 3.43181 48.3679 3.35295C48.3837 3.2662 48.502 3.2662 48.6361 3.34506Z" fill="white"/>
<path d="M48.6913 3.00599C48.8175 3.07697 48.9042 3.17949 48.8963 3.25047C48.8884 3.32145 48.778 3.32145 48.6518 3.25047C48.5257 3.17949 48.431 3.07697 48.4468 3.00599C48.4547 2.93501 48.5651 2.93501 48.6913 3.00599Z" fill="white"/>
<path d="M48.7385 2.70635C48.8568 2.76945 48.9357 2.86408 48.9278 2.92717C48.9199 2.99026 48.8174 2.99026 48.6991 2.92717C48.5808 2.86408 48.494 2.76156 48.5098 2.69847C48.5256 2.63538 48.6202 2.64326 48.7385 2.70635Z" fill="white"/>
<path d="M48.7859 2.40665C48.8884 2.46974 48.9672 2.54072 48.9594 2.6117C48.9515 2.67479 48.8568 2.65902 48.7543 2.60381C48.6439 2.54072 48.565 2.46186 48.5729 2.39877C48.5887 2.33568 48.6755 2.35145 48.7859 2.40665Z" fill="white"/>
<path d="M48.8332 2.11491C48.9279 2.17011 48.991 2.2332 48.991 2.28841C48.9831 2.34361 48.9042 2.32784 48.8096 2.28052C48.7149 2.22532 48.644 2.16222 48.6518 2.10702C48.6597 2.04393 48.7386 2.0597 48.8332 2.11491Z" fill="white"/>
<path d="M48.8726 1.83097C48.9593 1.87828 49.0224 1.94138 49.0145 1.98869C49.0067 2.03601 48.9357 2.02024 48.8489 1.97292C48.7622 1.9256 48.6991 1.86251 48.707 1.81519C48.7227 1.76787 48.7937 1.78365 48.8726 1.83097Z" fill="white"/>
<path d="M48.9199 1.55485C48.9909 1.59428 49.0461 1.64949 49.0461 1.68892C49.0382 1.72835 48.983 1.71258 48.9041 1.67315C48.8332 1.63371 48.778 1.57851 48.778 1.53908C48.7858 1.49964 48.841 1.51542 48.9199 1.55485Z" fill="white"/>
<path d="M48.9593 1.30253C49.0224 1.34196 49.0697 1.38139 49.0697 1.42083C49.0618 1.46026 49.0145 1.44449 48.9435 1.40505C48.8804 1.36562 48.8331 1.32619 48.8331 1.28676C48.841 1.24733 48.8962 1.2631 48.9593 1.30253Z" fill="white"/>
<path d="M47.5241 9.54384C47.3269 9.44131 47.2007 9.23627 47.2244 9.07065C47.2638 8.90504 47.4373 8.84983 47.6345 8.94447C47.8238 9.03911 47.9578 9.24415 47.9263 9.40977C47.8947 9.58327 47.7212 9.63847 47.5241 9.54384Z" fill="white"/>
<path d="M47.3662 10.3482C47.1691 10.2536 47.0508 10.0486 47.0823 9.87506C47.1218 9.70944 47.2953 9.64635 47.4845 9.74099C47.6738 9.83562 47.8 10.0328 47.7685 10.2063C47.7369 10.3798 47.5634 10.4429 47.3662 10.3482Z" fill="white"/>
<path d="M47.2007 11.1843C47.0114 11.0897 46.8931 10.8846 46.9246 10.7111C46.9641 10.5376 47.1297 10.4745 47.319 10.5613C47.5003 10.6559 47.6186 10.8531 47.595 11.0266C47.5634 11.208 47.3978 11.271 47.2007 11.1843Z" fill="white"/>
<path d="M47.0193 12.107C46.8379 12.0203 46.7196 11.8152 46.7591 11.6338C46.7985 11.4603 46.9641 11.3894 47.1455 11.4761C47.3269 11.5629 47.4373 11.76 47.4057 11.9414C47.3742 12.1149 47.2086 12.1938 47.0193 12.107Z" fill="white"/>
<path d="M46.8379 13.0297C46.6802 12.9509 46.5777 12.7695 46.6092 12.6039C46.6487 12.4461 46.7906 12.3752 46.9483 12.4461C47.1061 12.525 47.2007 12.6985 47.177 12.8641C47.1455 13.0297 46.9957 13.1007 46.8379 13.0297Z" fill="white"/>
<path d="M46.6093 14.1416C46.4515 14.0706 46.3648 13.8892 46.3963 13.7157C46.4358 13.5501 46.5777 13.4791 46.7354 13.5422C46.8853 13.6132 46.9799 13.7946 46.9484 13.9602C46.9089 14.1337 46.767 14.2126 46.6093 14.1416Z" fill="white"/>
<path d="M46.3568 15.3483C46.2149 15.2852 46.136 15.1196 46.1675 14.9618C46.1991 14.8041 46.3332 14.7331 46.4751 14.7883C46.6092 14.8514 46.6881 15.017 46.6644 15.1669C46.625 15.3246 46.4988 15.4035 46.3568 15.3483Z" fill="white"/>
<path d="M46.1045 16.5549C45.9862 16.5075 45.9231 16.3577 45.9546 16.2157C45.9862 16.0738 46.1045 16.0028 46.2227 16.0501C46.341 16.0974 46.4041 16.2473 46.3805 16.3892C46.341 16.5233 46.2227 16.5943 46.1045 16.5549Z" fill="white"/>
<path d="M48.5887 8.67629C48.7701 8.77093 48.8963 8.9602 48.8805 9.11793C48.8569 9.27566 48.6991 9.32298 48.5099 9.23623C48.3206 9.14159 48.1944 8.94443 48.2181 8.7867C48.2417 8.63686 48.3994 8.58954 48.5887 8.67629Z" fill="white"/>
<path d="M49.401 9.01547C49.6218 9.13376 49.7874 9.37824 49.7717 9.5754C49.748 9.77256 49.5587 9.84354 49.3221 9.72524C49.0934 9.60695 48.9278 9.35458 48.9515 9.15742C48.983 8.96026 49.1723 8.90505 49.401 9.01547Z" fill="white"/>
<path d="M55.0319 8.7236C54.9373 8.6684 54.8742 8.68417 54.89 8.76303C54.9058 8.84978 54.9846 8.96019 55.0793 9.02329C55.1739 9.08638 55.237 9.06272 55.2212 8.97597C55.2054 8.88922 55.1266 8.77881 55.0319 8.7236Z" fill="white"/>
<path d="M54.3774 8.27411C54.2512 8.20313 54.1644 8.2189 54.1802 8.32931C54.196 8.43184 54.2985 8.58168 54.4247 8.65266C54.5509 8.72363 54.6297 8.70786 54.6218 8.59745C54.6061 8.48704 54.4957 8.34509 54.3774 8.27411Z" fill="white"/>
<path d="M52.5477 14.3861C52.39 14.2915 52.2717 14.3546 52.2638 14.5439C52.2638 14.7331 52.39 14.9618 52.5477 15.0644C52.7054 15.1669 52.8237 15.0959 52.8316 14.8987C52.8237 14.7095 52.6975 14.4887 52.5477 14.3861Z" fill="white"/>
<path d="M51.7669 12.8404C51.5855 12.7379 51.4357 12.8089 51.4278 13.0061C51.4199 13.2111 51.5619 13.4477 51.7512 13.5581C51.9404 13.6685 52.0824 13.5897 52.0824 13.3846C52.0824 13.1796 51.9483 12.943 51.7669 12.8404Z" fill="white"/>
<path d="M50.9467 11.4997C50.7654 11.4051 50.6155 11.4603 50.6076 11.6417C50.5997 11.8231 50.7338 12.0439 50.9152 12.1543C51.0966 12.2568 51.2464 12.1858 51.2543 12.0044C51.2543 11.8152 51.1202 11.6022 50.9467 11.4997Z" fill="white"/>
<path d="M50.442 6.01074C50.2763 5.92399 50.1423 5.93976 50.1344 6.05806C50.1265 6.17636 50.2527 6.33408 50.4183 6.42872C50.5839 6.51547 50.718 6.49181 50.7259 6.37352C50.7259 6.25522 50.5997 6.09749 50.442 6.01074Z" fill="white"/>
<path d="M53.7937 8.43976C53.6675 8.36879 53.5729 8.39245 53.5808 8.50286C53.5887 8.61327 53.6991 8.76311 53.8253 8.84197C53.9514 8.92084 54.0461 8.88929 54.0382 8.77888C54.0224 8.66847 53.9199 8.51863 53.7937 8.43976Z" fill="white"/>
<path d="M53.1312 8.04546C52.9972 7.9666 52.8946 7.99026 52.9025 8.10067C52.9104 8.21108 53.0208 8.36881 53.1628 8.44767C53.2968 8.52653 53.3994 8.50288 53.3915 8.38458C53.3757 8.27417 53.2653 8.12433 53.1312 8.04546Z" fill="white"/>
<path d="M51.8142 7.82458C51.6565 7.73783 51.5303 7.76938 51.5303 7.89556C51.5303 8.02174 51.6565 8.19525 51.8142 8.28988C51.9798 8.37663 52.0981 8.34509 52.0981 8.21102C52.0902 8.07695 51.964 7.91133 51.8142 7.82458Z" fill="white"/>
<path d="M52.4767 7.64327C52.3269 7.55652 52.2086 7.58806 52.2164 7.70636C52.2243 7.83254 52.3426 7.99027 52.5004 8.08491C52.6581 8.17166 52.7685 8.14011 52.7606 8.01393C52.7527 7.88775 52.6265 7.73002 52.4767 7.64327Z" fill="white"/>
<path d="M51.7827 7.24106C51.6092 7.14642 51.483 7.17797 51.4751 7.30415C51.4751 7.43822 51.6092 7.61961 51.7827 7.71425C51.9562 7.80889 52.0902 7.77734 52.0902 7.64327C52.0824 7.5092 51.9483 7.3357 51.7827 7.24106Z" fill="white"/>
<path d="M51.1045 7.41454C50.931 7.3199 50.789 7.35145 50.7811 7.48552C50.7811 7.62747 50.9152 7.80886 51.0966 7.91138C51.278 8.00602 51.4199 7.97448 51.4199 7.83252C51.4199 7.69056 51.278 7.50917 51.1045 7.41454Z" fill="white"/>
<path d="M50.1581 10.2142C49.9688 10.1196 49.819 10.1748 49.7953 10.3483C49.7796 10.5218 49.9136 10.7347 50.1029 10.8372C50.2922 10.9319 50.4499 10.8767 50.4657 10.6953C50.4814 10.5297 50.3474 10.3167 50.1581 10.2142Z" fill="white"/>
<path d="M50.2133 9.48074C50.0161 9.37822 49.8505 9.43343 49.8268 9.60693C49.811 9.78832 49.9609 10.017 50.1659 10.1274C50.371 10.23 50.5366 10.1748 50.5524 9.99336C50.5603 9.81198 50.4183 9.59116 50.2133 9.48074Z" fill="white"/>
<path d="M50.2685 8.78669C50.0477 8.67628 49.8742 8.72359 49.8505 8.91287C49.8348 9.10214 50.0004 9.33874 50.2212 9.45703C50.442 9.57533 50.6234 9.51224 50.6313 9.32296C50.6392 9.13369 50.4814 8.90498 50.2685 8.78669Z" fill="white"/>
<path d="M50.3079 8.13216C50.095 8.02175 49.9215 8.06907 49.9057 8.23469C49.8978 8.40819 50.0476 8.6369 50.2606 8.75519C50.4735 8.8656 50.647 8.81828 50.6628 8.6369C50.6707 8.47128 50.5208 8.25046 50.3079 8.13216Z" fill="white"/>
<path d="M50.3395 7.57228C50.1581 7.47765 50.0083 7.50919 49.9925 7.65115C49.9846 7.80099 50.1187 7.99027 50.308 8.09279C50.4972 8.18743 50.6471 8.14799 50.655 8.00604C50.6629 7.8562 50.5288 7.66692 50.3395 7.57228Z" fill="white"/>
<path d="M50.379 6.9966C50.1818 6.89408 50.0162 6.92562 50.0004 7.07547C49.9925 7.22531 50.1424 7.43036 50.3474 7.54077C50.5525 7.64329 50.7102 7.61174 50.726 7.45402C50.726 7.30417 50.584 7.10701 50.379 6.9966Z" fill="white"/>
<path d="M50.4104 6.4761C50.2133 6.37358 50.0555 6.39724 50.0477 6.53919C50.0398 6.68115 50.1896 6.87831 50.3868 6.98872C50.5839 7.09124 50.7417 7.0597 50.7496 6.91774C50.7496 6.7679 50.6076 6.57862 50.4104 6.4761Z" fill="white"/>
<path d="M49.1486 4.87518C49.0145 4.8042 48.8962 4.81209 48.8805 4.89884C48.8726 4.98559 48.9672 5.11177 49.1092 5.19064C49.2511 5.26162 49.3615 5.24584 49.3773 5.15909C49.3852 5.07234 49.2827 4.95405 49.1486 4.87518Z" fill="white"/>
<path d="M49.1802 4.47296C49.054 4.40986 48.9515 4.41775 48.9357 4.48873C48.9278 4.56759 49.0145 4.678 49.1407 4.74898C49.2669 4.81207 49.3694 4.80419 49.3852 4.72532C49.3931 4.64646 49.2985 4.53605 49.1802 4.47296Z" fill="white"/>
<path d="M49.1959 4.08649C49.0855 4.03128 48.9987 4.03128 48.983 4.09437C48.9751 4.15747 49.0539 4.2521 49.1644 4.31519C49.2748 4.3704 49.3615 4.3704 49.3694 4.29942C49.3852 4.23633 49.3063 4.14169 49.1959 4.08649Z" fill="white"/>
<path d="M49.2117 3.71576C49.1171 3.66056 49.0382 3.66056 49.0224 3.72365C49.0146 3.78674 49.0855 3.8656 49.1881 3.92081C49.2906 3.97601 49.3695 3.97601 49.3773 3.91292C49.3852 3.84194 49.3142 3.76308 49.2117 3.71576Z" fill="white"/>
<path d="M49.2354 3.3687C49.1407 3.32138 49.0698 3.3135 49.0619 3.3687C49.054 3.42391 49.125 3.49489 49.2117 3.55009C49.3064 3.59741 49.3773 3.6053 49.3852 3.55009C49.3931 3.487 49.3221 3.41602 49.2354 3.3687Z" fill="white"/>
<path d="M49.2511 3.01388C49.1722 2.97445 49.1091 2.95868 49.1013 3.01388C49.0934 3.0612 49.1565 3.12429 49.2353 3.17161C49.3142 3.21893 49.3852 3.22682 49.3852 3.17161C49.3852 3.12429 49.33 3.0612 49.2511 3.01388Z" fill="white"/>
<path d="M49.267 2.7063C49.196 2.66686 49.1329 2.65898 49.125 2.69841C49.1171 2.74573 49.1723 2.80093 49.2512 2.84036C49.3301 2.8798 49.3853 2.88768 49.3932 2.84825C49.3932 2.80882 49.3379 2.75362 49.267 2.7063Z" fill="white"/>
<path d="M49.2749 2.39087C49.2118 2.35143 49.1566 2.34355 49.1487 2.38298C49.1487 2.42241 49.196 2.46973 49.2591 2.50916C49.3222 2.5486 49.3774 2.55648 49.3853 2.51705C49.3932 2.47762 49.3458 2.4303 49.2749 2.39087Z" fill="white"/>
<path d="M48.4152 9.89083C48.5572 9.96181 48.6834 9.91449 48.707 9.7883C48.7228 9.66212 48.6282 9.51228 48.4862 9.4413C48.3443 9.37032 48.2181 9.40976 48.1944 9.53594C48.1708 9.66212 48.2654 9.81196 48.4152 9.89083Z" fill="white"/>
<path d="M48.2891 10.6953C48.431 10.7584 48.5493 10.719 48.5651 10.5928C48.5809 10.4666 48.4862 10.3168 48.3522 10.2458C48.2181 10.1827 48.0919 10.2221 48.0682 10.3483C48.0604 10.4745 48.1471 10.6243 48.2891 10.6953Z" fill="white"/>
<path d="M48.0997 11.5234C48.2416 11.5865 48.3599 11.5392 48.3757 11.4051C48.3915 11.2789 48.3047 11.1291 48.1706 11.0581C48.0366 10.995 47.9183 11.0423 47.8946 11.1685C47.871 11.3026 47.9577 11.4603 48.0997 11.5234Z" fill="white"/>
<path d="M47.9183 12.4303C48.0445 12.4934 48.1628 12.4382 48.1786 12.312C48.1944 12.1858 48.1155 12.0439 47.9893 11.9808C47.8631 11.9256 47.7527 11.9729 47.7291 12.0991C47.7133 12.2174 47.7921 12.3672 47.9183 12.4303Z" fill="white"/>
<path d="M47.7055 13.3294C47.8238 13.3846 47.9342 13.3294 47.9499 13.2032C47.9657 13.077 47.8947 12.9429 47.7764 12.8877C47.6581 12.8325 47.5477 12.8877 47.532 13.006C47.5162 13.1322 47.5872 13.2742 47.7055 13.3294Z" fill="white"/>
<path d="M47.4609 14.4019C47.5713 14.4493 47.6738 14.3941 47.6975 14.2758C47.7133 14.1496 47.6423 14.0234 47.5319 13.9682C47.4215 13.9209 47.3189 13.9682 47.2953 14.0944C47.2795 14.2127 47.3505 14.3467 47.4609 14.4019Z" fill="white"/>
<path d="M51.0887 6.87829C50.9231 6.79154 50.7969 6.8152 50.7891 6.9335C50.7891 7.05968 50.9152 7.2253 51.0809 7.31993C51.2465 7.40668 51.3727 7.38302 51.3805 7.25684C51.3805 7.13066 51.2544 6.96504 51.0887 6.87829Z" fill="white"/>
<path d="M51.0572 8.00604C50.9073 7.92718 50.789 7.95872 50.7811 8.07702C50.7811 8.19532 50.8915 8.35304 51.0414 8.43979C51.1912 8.51866 51.3095 8.48711 51.3174 8.36093C51.3174 8.24263 51.207 8.0849 51.0572 8.00604Z" fill="white"/>
<path d="M51.0414 8.58961C50.8758 8.50286 50.7417 8.53441 50.7259 8.67636C50.718 8.81832 50.8521 9.00759 51.0177 9.10223C51.1912 9.19687 51.3253 9.14955 51.3253 9.00759C51.3332 8.85775 51.207 8.67636 51.0414 8.58961Z" fill="white"/>
<path d="M50.9625 10.6795C50.7968 10.5928 50.6628 10.6401 50.6549 10.7978C50.647 10.9556 50.7732 11.1527 50.9388 11.2474C51.1044 11.3341 51.2385 11.2789 51.2464 11.1212C51.2464 10.9634 51.1202 10.7742 50.9625 10.6795Z" fill="white"/>
<path d="M53.7386 7.872C53.5966 7.79314 53.502 7.81679 53.5099 7.9272C53.5256 8.0455 53.636 8.19534 53.778 8.28209C53.92 8.36096 54.0146 8.3373 54.0067 8.219C53.9909 8.10859 53.8726 7.95086 53.7386 7.872Z" fill="white"/>
<path d="M51.7038 13.8419C51.554 13.7552 51.4278 13.8182 51.4199 13.9918C51.4199 14.1653 51.5303 14.3782 51.6881 14.4728C51.8458 14.5596 51.9641 14.4965 51.972 14.3151C51.972 14.1337 51.8616 13.9287 51.7038 13.8419Z" fill="white"/>
<path d="M52.5555 15.4271C52.4136 15.3324 52.2953 15.4034 52.2953 15.5848C52.2953 15.7662 52.4057 15.987 52.5555 16.0895C52.7054 16.1842 52.8158 16.1132 52.8158 15.9239C52.8079 15.7347 52.6975 15.5217 52.5555 15.4271Z" fill="white"/>
<path d="M50.8757 12.3751C50.7101 12.2884 50.5682 12.3514 50.5603 12.5249C50.5524 12.7063 50.6786 12.9193 50.8442 13.0139C51.0177 13.1085 51.1518 13.0376 51.1597 12.8562C51.1675 12.6748 51.0414 12.4697 50.8757 12.3751Z" fill="white"/>
<path d="M50.0949 11.0738C49.9293 10.9871 49.7874 11.0423 49.7716 11.2C49.7558 11.3656 49.882 11.5628 50.0476 11.6495C50.2211 11.7363 50.3552 11.6811 50.371 11.5154C50.3789 11.3498 50.2606 11.1606 50.0949 11.0738Z" fill="white"/>
<path d="M49.33 9.80409C49.1487 9.70945 48.9909 9.76466 48.9673 9.93027C48.9515 10.0959 49.0777 10.3009 49.2591 10.3956C49.4483 10.4902 49.5982 10.4271 49.6218 10.2615C49.6376 10.0959 49.5114 9.89873 49.33 9.80409Z" fill="white"/>
<path d="M50.994 9.96972C50.8442 9.89086 50.718 9.93029 50.7101 10.0722C50.7022 10.2142 50.8205 10.3956 50.9782 10.4823C51.136 10.5691 51.2543 10.5218 51.2621 10.3719C51.2543 10.23 51.1438 10.0565 50.994 9.96972Z" fill="white"/>
<path d="M50.4577 5.56124C50.3158 5.48237 50.1975 5.49815 50.1896 5.59278C50.1817 5.68742 50.2921 5.82938 50.442 5.90824C50.5918 5.98711 50.7022 5.97133 50.7101 5.86881C50.7101 5.77417 50.5997 5.6401 50.4577 5.56124Z" fill="white"/>
<path d="M53.0919 7.53285C52.9815 7.46976 52.8947 7.48553 52.9026 7.58017C52.9105 7.67481 53.0051 7.7931 53.1155 7.86408C53.2338 7.92717 53.3127 7.9114 53.3048 7.81676C53.2969 7.72212 53.2102 7.59594 53.0919 7.53285Z" fill="white"/>
<path d="M51.8142 9.07061C51.6802 8.99964 51.5855 9.03118 51.5776 9.14159C51.5776 9.252 51.6802 9.40184 51.8063 9.48071C51.9404 9.55169 52.035 9.52014 52.035 9.40184C52.0429 9.28355 51.9404 9.14159 51.8142 9.07061Z" fill="white"/>
<path d="M51.7511 11.9808C51.5934 11.894 51.4672 11.9492 51.4594 12.1148C51.4594 12.2805 51.5776 12.4855 51.7433 12.588C51.9089 12.6827 52.0351 12.6196 52.0351 12.4461C52.0272 12.2726 51.9089 12.0754 51.7511 11.9808Z" fill="white"/>
<path d="M51.0177 9.29142C50.8679 9.21255 50.7496 9.25199 50.7417 9.37817C50.7338 9.51224 50.8521 9.67785 51.002 9.7646C51.1518 9.84347 51.2701 9.80404 51.278 9.66997C51.278 9.5359 51.1676 9.37028 51.0177 9.29142Z" fill="white"/>
<path d="M52.5634 10.159C52.4214 10.0801 52.311 10.1196 52.311 10.2536C52.311 10.3956 52.4293 10.5691 52.5792 10.6559C52.729 10.7426 52.8315 10.7032 52.8315 10.5612C52.8158 10.4193 52.7054 10.2458 52.5634 10.159Z" fill="white"/>
<path d="M53.1865 17.2016C53.0682 17.1149 52.9814 17.178 52.9814 17.3436C52.9814 17.5092 53.0761 17.7064 53.1944 17.801C53.3127 17.8877 53.3994 17.8246 53.3994 17.6511C53.3915 17.4855 53.3048 17.2884 53.1865 17.2016Z" fill="white"/>
<path d="M52.5004 8.22687C52.3663 8.1559 52.2638 8.17956 52.2638 8.28997C52.2717 8.40038 52.3742 8.55022 52.5083 8.62908C52.6423 8.70795 52.7449 8.6764 52.7449 8.56599C52.737 8.45558 52.6345 8.30574 52.5004 8.22687Z" fill="white"/>
<path d="M49.7796 5.22207C49.6455 5.15109 49.543 5.16686 49.5272 5.25361C49.5193 5.34036 49.6139 5.45866 49.748 5.53753C49.8821 5.6085 49.9846 5.59273 50.0004 5.50598C50.0083 5.41134 49.9136 5.29305 49.7796 5.22207Z" fill="white"/>
<path d="M51.1124 5.49812C50.9862 5.43502 50.8916 5.44291 50.8837 5.52177C50.8837 5.60853 50.9783 5.72682 51.1045 5.7978C51.2307 5.86089 51.3253 5.85301 51.3332 5.76625C51.3332 5.68739 51.2386 5.56909 51.1124 5.49812Z" fill="white"/>
<path d="M52.453 7.17795C52.3505 7.12274 52.2716 7.13851 52.2716 7.21738C52.2795 7.29624 52.3584 7.40665 52.4609 7.46975C52.5634 7.52495 52.6423 7.50918 52.6423 7.43031C52.6423 7.34356 52.5634 7.23315 52.453 7.17795Z" fill="white"/>
<path d="M51.7827 9.73311C51.6487 9.66213 51.5461 9.69368 51.5461 9.81986C51.5461 9.94604 51.6487 10.0959 51.7827 10.1747C51.9168 10.2457 52.0193 10.2142 52.0193 10.088C52.0193 9.96182 51.9168 9.81198 51.7827 9.73311Z" fill="white"/>
<path d="M52.5161 9.48864C52.3978 9.42555 52.311 9.4492 52.311 9.55961C52.311 9.66214 52.4057 9.79621 52.524 9.86719C52.6423 9.93028 52.729 9.90662 52.7211 9.79621C52.7211 9.6858 52.6344 9.55962 52.5161 9.48864Z" fill="white"/>
<path d="M53.2732 10.6086C53.147 10.5297 53.0524 10.5691 53.0524 10.6953C53.0603 10.8215 53.1628 10.9871 53.289 11.066C53.4151 11.1448 53.5098 11.1054 53.5098 10.9792C53.5019 10.8452 53.3994 10.6874 53.2732 10.6086Z" fill="white"/>
<path d="M54.4247 8.87351C54.33 8.81831 54.2591 8.83408 54.267 8.92083C54.2748 9.00758 54.3616 9.12588 54.4562 9.18897C54.5509 9.25206 54.6218 9.2284 54.614 9.14165C54.5982 9.04701 54.5193 8.9366 54.4247 8.87351Z" fill="white"/>
<path d="M51.1123 5.10383C51.0019 5.04862 50.9152 5.04862 50.9152 5.1196C50.9152 5.19058 51.0019 5.2931 51.1123 5.35619C51.2227 5.41928 51.3095 5.40351 51.3095 5.33253C51.3095 5.26155 51.2227 5.16692 51.1123 5.10383Z" fill="white"/>
<path d="M51.1044 5.94762C50.9861 5.88453 50.8994 5.9003 50.8915 5.97917C50.8915 6.05803 50.9782 6.16844 51.0965 6.23942C51.2148 6.30251 51.3016 6.28674 51.3016 6.20787C51.3095 6.12112 51.2227 6.01071 51.1044 5.94762Z" fill="white"/>
<path d="M53.3126 16.1211C53.1786 16.0265 53.076 16.0975 53.076 16.271C53.0839 16.4524 53.1865 16.6653 53.3205 16.7599C53.4546 16.8546 53.5571 16.7915 53.5492 16.6101C53.5492 16.4287 53.4467 16.2158 53.3126 16.1211Z" fill="white"/>
<path d="M50.4815 5.16682C50.3632 5.10372 50.2764 5.11161 50.2686 5.19048C50.2686 5.26145 50.3553 5.37187 50.4657 5.43496C50.584 5.49805 50.6708 5.48227 50.6786 5.4113C50.6786 5.34032 50.5919 5.22991 50.4815 5.16682Z" fill="white"/>
<path d="M51.7827 8.44769C51.6723 8.3846 51.5855 8.40826 51.5776 8.50289C51.5776 8.59753 51.6644 8.72371 51.7827 8.78681C51.901 8.8499 51.9877 8.82624 51.9877 8.72371C51.9798 8.63696 51.8931 8.51078 51.7827 8.44769Z" fill="white"/>
<path d="M51.7749 6.82304C51.6802 6.77572 51.6093 6.78361 51.6093 6.85459C51.6093 6.92556 51.6881 7.0202 51.7828 7.0754C51.8774 7.13061 51.9484 7.11484 51.9484 7.04386C51.9405 6.96499 51.8695 6.87036 51.7749 6.82304Z" fill="white"/>
<path d="M51.7669 11.2158C51.6565 11.1527 51.5619 11.1921 51.5619 11.3025C51.5619 11.4129 51.6486 11.5549 51.7591 11.6259C51.8773 11.689 51.9641 11.6495 51.9641 11.5391C51.9641 11.4208 51.8773 11.2789 51.7669 11.2158Z" fill="white"/>
<path d="M52.5635 13.4319C52.4373 13.353 52.3348 13.4082 52.3269 13.5502C52.3269 13.7 52.4294 13.8814 52.5635 13.9681C52.6976 14.047 52.7922 13.9918 52.7922 13.8419C52.8001 13.7 52.6976 13.5186 52.5635 13.4319Z" fill="white"/>
<path d="M51.0966 6.4682C51.0098 6.42088 50.9388 6.43666 50.9388 6.49186C50.9388 6.55496 51.0019 6.64171 51.0887 6.68902C51.1754 6.73634 51.2464 6.72057 51.2464 6.65748C51.2543 6.59439 51.1833 6.51552 51.0966 6.4682Z" fill="white"/>
<path d="M52.5003 16.4918C52.3978 16.4287 52.3189 16.476 52.311 16.618C52.311 16.7599 52.3899 16.9176 52.4924 16.9886C52.5949 17.0596 52.6738 17.0044 52.6817 16.8624C52.6817 16.7205 52.6028 16.5628 52.5003 16.4918Z" fill="white"/>
<path d="M53.1707 8.66058C53.0603 8.59749 52.9814 8.62115 52.9893 8.71578C52.9972 8.81042 53.0839 8.9366 53.1944 8.99969C53.3048 9.06279 53.3836 9.03913 53.3757 8.94449C53.3679 8.84985 53.2811 8.72367 53.1707 8.66058Z" fill="white"/>
<path d="M51.7669 5.47454C51.6644 5.41934 51.5934 5.42722 51.5934 5.49031C51.5934 5.5534 51.6722 5.64804 51.7748 5.70325C51.8773 5.75845 51.9483 5.75056 51.9483 5.67959C51.9404 5.62438 51.8615 5.52975 51.7669 5.47454Z" fill="white"/>
<path d="M55.6707 9.15742C55.5918 9.1101 55.5445 9.12587 55.5524 9.19685C55.5681 9.26783 55.6312 9.37035 55.7101 9.42556C55.789 9.48076 55.8442 9.4571 55.8284 9.38613C55.8205 9.30726 55.7495 9.21262 55.6707 9.15742Z" fill="white"/>
<path d="M53.9989 11.0817C53.8884 11.0107 53.8017 11.0423 53.8096 11.1606C53.8175 11.2789 53.9121 11.4287 54.0304 11.5076C54.1487 11.5786 54.2276 11.547 54.2197 11.4287C54.2039 11.3104 54.1093 11.1606 53.9989 11.0817Z" fill="white"/>
<path d="M53.6439 18.353C53.5493 18.2741 53.4783 18.3293 53.4783 18.4792C53.4862 18.6369 53.5571 18.8183 53.6518 18.9051C53.7464 18.9839 53.8174 18.9287 53.8095 18.771C53.8174 18.6211 53.7385 18.4398 53.6439 18.353Z" fill="white"/>
<path d="M51.6723 14.8988C51.554 14.8357 51.4672 14.883 51.4594 15.0249C51.4594 15.1669 51.5382 15.3246 51.6565 15.3956C51.7748 15.4666 51.8616 15.4114 51.8694 15.2694C51.8694 15.1275 51.7827 14.9697 51.6723 14.8988Z" fill="white"/>
<path d="M53.2417 9.96969C53.1628 9.92237 53.0997 9.94603 53.0997 10.017C53.1076 10.0959 53.1707 10.1905 53.2496 10.2457C53.3284 10.293 53.3915 10.2694 53.3915 10.1905C53.3915 10.1116 53.3206 10.017 53.2417 9.96969Z" fill="white"/>
<path d="M51.7275 5.0723C51.6407 5.02499 51.5776 5.02498 51.5776 5.08808C51.5776 5.15117 51.6486 5.22215 51.7275 5.26947C51.8142 5.31678 51.8773 5.31678 51.8773 5.25369C51.8773 5.1906 51.8142 5.11962 51.7275 5.0723Z" fill="white"/>
<path d="M52.3269 5.42721C52.2559 5.38778 52.2086 5.38778 52.2086 5.4351C52.2165 5.48242 52.2717 5.54551 52.3348 5.58494C52.4058 5.62438 52.4531 5.62437 52.4531 5.56917C52.4531 5.52974 52.3979 5.46665 52.3269 5.42721Z" fill="white"/>
<path d="M50.8364 13.4477C50.7339 13.3924 50.6471 13.4319 50.6392 13.5502C50.6313 13.6606 50.7102 13.7947 50.8127 13.8499C50.9152 13.9051 51.002 13.8577 51.0099 13.7473C51.0099 13.6369 50.931 13.5029 50.8364 13.4477Z" fill="white"/>
<path d="M49.9924 12.0439C49.8899 11.9965 49.811 12.0281 49.7953 12.1306C49.7874 12.2331 49.8584 12.3514 49.9609 12.4066C50.0634 12.4618 50.1502 12.4224 50.158 12.3199C50.1659 12.2174 50.0871 12.0991 49.9924 12.0439Z" fill="white"/>
<path d="M49.2117 10.7348C49.1092 10.6874 49.0303 10.719 49.0145 10.8136C49.0066 10.9083 49.0776 11.0187 49.1722 11.0739C49.2748 11.1212 49.3615 11.0896 49.3694 10.995C49.3773 10.9004 49.3063 10.79 49.2117 10.7348Z" fill="white"/>
<path d="M52.2954 5.04855C52.2244 5.00912 52.1692 5.00912 52.1692 5.05644C52.1771 5.11164 52.2323 5.17474 52.3033 5.21417C52.3742 5.2536 52.4294 5.2536 52.4294 5.20628C52.4216 5.15108 52.3663 5.08799 52.2954 5.04855Z" fill="white"/>
<path d="M52.7606 5.05651C52.6975 5.02497 52.6501 5.01708 52.6501 5.0644C52.658 5.11172 52.7054 5.16693 52.7684 5.19847C52.8315 5.23002 52.8789 5.2379 52.8789 5.19058C52.8789 5.15115 52.8315 5.09595 52.7606 5.05651Z" fill="white"/>
<path d="M54.7086 11.6338C54.6377 11.5865 54.5903 11.6101 54.5903 11.689C54.5982 11.7678 54.6613 11.8704 54.7323 11.9177C54.8033 11.965 54.8506 11.9413 54.8506 11.8625C54.8427 11.7836 54.7796 11.6811 54.7086 11.6338Z" fill="white"/>
<path d="M54.054 11.8151C53.9593 11.7599 53.8962 11.7836 53.9041 11.8861C53.912 11.9886 53.983 12.1148 54.0776 12.1779C54.1722 12.241 54.2353 12.2094 54.2274 12.1069C54.2117 11.9965 54.1407 11.8782 54.054 11.8151Z" fill="white"/>
<path d="M53.3127 11.3499C53.2259 11.2946 53.1628 11.3262 53.1707 11.4129C53.1786 11.4997 53.2417 11.6101 53.3284 11.6653C53.4152 11.7205 53.4783 11.689 53.4704 11.6022C53.4625 11.5155 53.3915 11.4051 53.3127 11.3499Z" fill="white"/>
<path d="M52.5555 10.9082C52.4767 10.8609 52.4136 10.8845 52.4136 10.9634C52.4136 11.0423 52.4767 11.1369 52.5555 11.1842C52.6344 11.2315 52.6975 11.2079 52.6975 11.129C52.6975 11.0501 52.6344 10.9555 52.5555 10.9082Z" fill="white"/>
<path d="M51.7827 10.4587C51.7038 10.4114 51.6407 10.4351 51.6407 10.5139C51.6407 10.5928 51.7038 10.6874 51.7827 10.7348C51.8616 10.7821 51.9247 10.7584 51.9247 10.6795C51.9247 10.6007 51.8616 10.506 51.7827 10.4587Z" fill="white"/>
<path d="M54.748 12.3277C54.677 12.2804 54.6218 12.3041 54.6297 12.383C54.6375 12.4697 54.7006 12.5722 54.7716 12.6274C54.8426 12.6826 54.8978 12.6511 54.8899 12.5643C54.882 12.4855 54.8268 12.3751 54.748 12.3277Z" fill="white"/>
<path d="M55.4814 12.8797C55.4183 12.8324 55.371 12.8561 55.3789 12.935C55.3868 13.0138 55.442 13.1163 55.5051 13.1637C55.5682 13.211 55.6155 13.1873 55.6076 13.1085C55.5997 13.0296 55.5445 12.9271 55.4814 12.8797Z" fill="white"/>
<path d="M51.7512 5.90033C51.6723 5.85301 51.6093 5.8609 51.6093 5.91611C51.6093 5.9792 51.6723 6.05018 51.7591 6.09749C51.838 6.14481 51.901 6.13693 51.901 6.07383C51.901 6.01863 51.838 5.94765 51.7512 5.90033Z" fill="white"/>
<path d="M46.9089 7.84044C46.7197 7.75369 46.5462 7.79312 46.5067 7.94296C46.4673 8.10069 46.5935 8.28996 46.7906 8.3846C46.9878 8.47135 47.1613 8.42403 47.1928 8.27419C47.2165 8.12435 47.0982 7.93507 46.9089 7.84044Z" fill="white"/>
<path d="M46.0808 7.375C45.8363 7.26459 45.6155 7.31979 45.5524 7.50118C45.4972 7.69046 45.6471 7.92705 45.8994 8.04534C46.1518 8.15575 46.3726 8.10055 46.4278 7.91128C46.4673 7.722 46.3174 7.49329 46.0808 7.375Z" fill="white"/>
<path d="M40.5524 1.5313C40.6786 1.57862 40.7417 1.65749 40.7022 1.72058C40.6549 1.78367 40.513 1.79156 40.3868 1.75212C40.2527 1.7048 40.1896 1.62594 40.2369 1.56285C40.2764 1.50764 40.4183 1.49187 40.5524 1.5313Z" fill="white"/>
<path d="M41.4593 1.81512C41.6171 1.87821 41.6959 1.98074 41.6407 2.05172C41.5855 2.13058 41.4278 2.13847 41.2622 2.08326C41.1045 2.02017 41.0256 1.91765 41.0808 1.83878C41.1439 1.77569 41.3016 1.75992 41.4593 1.81512Z" fill="white"/>
<path d="M41.1124 9.03912C41.2622 9.09433 41.3253 9.2284 41.278 9.34669C41.2228 9.46499 41.0651 9.5202 40.9152 9.4571C40.7654 9.4019 40.6944 9.25994 40.7496 9.14165C40.8127 9.03124 40.9704 8.98392 41.1124 9.03912Z" fill="white"/>
<path d="M42.4215 8.38452C42.6186 8.46338 42.7212 8.65266 42.6581 8.81038C42.5871 8.96811 42.382 9.0312 42.177 8.95234C41.9719 8.86559 41.8694 8.67631 41.9404 8.51859C42.0114 8.36086 42.2243 8.30565 42.4215 8.38452Z" fill="white"/>
<path d="M43.7386 8.00605C43.9436 8.10069 44.0619 8.28996 44.0067 8.45558C43.9436 8.62119 43.7386 8.68429 43.5177 8.58965C43.3048 8.49501 43.1865 8.29785 43.2496 8.13224C43.3127 7.97451 43.5256 7.9193 43.7386 8.00605Z" fill="white"/>
<path d="M46.1913 3.81827C46.3648 3.90502 46.4752 4.05487 46.4515 4.15739C46.42 4.2678 46.2544 4.28357 46.073 4.19682C45.8916 4.11007 45.7812 3.96023 45.8127 3.84982C45.8443 3.74729 46.0099 3.73152 46.1913 3.81827Z" fill="white"/>
<path d="M42.0351 2.56434C42.2007 2.62744 42.2875 2.74573 42.2402 2.83248C42.1849 2.91924 42.0193 2.93501 41.8458 2.8798C41.6802 2.81671 41.5856 2.69841 41.6408 2.61166C41.696 2.51703 41.8695 2.50125 42.0351 2.56434Z" fill="white"/>
<path d="M42.8789 2.87987C43.0445 2.95085 43.1392 3.06915 43.0919 3.16378C43.0367 3.25842 42.871 3.27419 42.6975 3.20322C42.524 3.13224 42.4294 3.00606 42.4846 2.91142C42.5398 2.83256 42.7133 2.81678 42.8789 2.87987Z" fill="white"/>
<path d="M44.2827 4.02343C44.4641 4.11018 44.5745 4.25214 44.5272 4.37044C44.4799 4.48085 44.2985 4.50451 44.1092 4.42564C43.92 4.33889 43.8096 4.18905 43.8569 4.07864C43.92 3.96034 44.1014 3.93668 44.2827 4.02343Z" fill="white"/>
<path d="M43.6991 3.20322C43.8805 3.28209 43.983 3.42404 43.9357 3.52657C43.8884 3.62909 43.707 3.64486 43.5177 3.57388C43.3363 3.49502 43.2259 3.35306 43.2811 3.25054C43.3363 3.14013 43.5177 3.12436 43.6991 3.20322Z" fill="white"/>
<path d="M44.5114 3.55014C44.7007 3.6369 44.8111 3.78674 44.7717 3.90503C44.7244 4.01544 44.5351 4.0391 44.3379 3.95235C44.1408 3.8656 44.0304 3.70787 44.0777 3.59746C44.1329 3.48705 44.3222 3.47128 44.5114 3.55014Z" fill="white"/>
<path d="M45.0872 4.36242C45.2843 4.45706 45.4026 4.62268 45.3632 4.74886C45.3159 4.87504 45.1266 4.8987 44.9215 4.81195C44.7165 4.71731 44.5982 4.54381 44.6455 4.41763C44.7007 4.29933 44.89 4.27567 45.0872 4.36242Z" fill="white"/>
<path d="M44.9531 7.67477C45.1581 7.76941 45.2764 7.95868 45.2291 8.1243C45.1739 8.28991 44.9767 8.34512 44.7638 8.25048C44.5508 8.15584 44.4325 7.95868 44.4878 7.79307C44.543 7.63534 44.7401 7.58802 44.9531 7.67477Z" fill="white"/>
<path d="M45.1581 6.99656C45.3789 7.09908 45.5051 7.30413 45.4657 7.46974C45.4104 7.63536 45.1975 7.69056 44.9688 7.58804C44.7401 7.48551 44.6139 7.27258 44.6612 7.10696C44.7243 6.94924 44.9373 6.90192 45.1581 6.99656Z" fill="white"/>
<path d="M45.3474 6.35775C45.584 6.46816 45.7259 6.6811 45.6786 6.8546C45.6234 7.0281 45.3947 7.07542 45.1502 6.97289C44.9057 6.8546 44.7638 6.63378 44.819 6.46028C44.8821 6.29466 45.1108 6.24734 45.3474 6.35775Z" fill="white"/>
<path d="M45.5446 5.75841C45.7733 5.86882 45.9152 6.07387 45.8679 6.2316C45.8127 6.39721 45.5998 6.43664 45.3632 6.32623C45.1266 6.21582 44.9846 6.00289 45.0398 5.84516C45.0872 5.69532 45.308 5.65589 45.5446 5.75841Z" fill="white"/>
<path d="M45.7023 5.24577C45.8995 5.34041 46.0256 5.5218 45.9862 5.65587C45.9389 5.78994 45.7496 5.82148 45.5446 5.72685C45.3395 5.62432 45.2133 5.45082 45.2607 5.30887C45.3159 5.1748 45.5051 5.15114 45.7023 5.24577Z" fill="white"/>
<path d="M45.8915 4.71734C46.1045 4.81987 46.2385 5.00914 46.207 5.1511C46.1597 5.29305 45.9625 5.3246 45.7338 5.21419C45.513 5.10378 45.3789 4.9145 45.4184 4.77255C45.4736 4.64636 45.6707 4.61482 45.8915 4.71734Z" fill="white"/>
<path d="M46.0492 4.24412C46.2622 4.34664 46.3884 4.52803 46.3568 4.6621C46.3174 4.79617 46.1202 4.81983 45.8994 4.7173C45.6865 4.61478 45.5524 4.43339 45.5918 4.29932C45.647 4.16525 45.8442 4.14159 46.0492 4.24412Z" fill="white"/>
<path d="M47.7291 4.13374C47.8711 4.20472 47.9657 4.3309 47.9499 4.40976C47.9263 4.49651 47.808 4.5044 47.666 4.43342C47.5241 4.36244 47.4294 4.23626 47.4452 4.14951C47.461 4.07064 47.5872 4.06276 47.7291 4.13374Z" fill="white"/>
<path d="M47.8395 3.74737C47.9657 3.81835 48.0524 3.92087 48.0445 3.99974C48.0288 4.07071 47.9184 4.0786 47.7843 4.01551C47.6581 3.94453 47.5635 3.83412 47.5792 3.76314C47.595 3.69217 47.7054 3.68428 47.8395 3.74737Z" fill="white"/>
<path d="M47.9499 3.39248C48.0603 3.45557 48.1313 3.54232 48.1234 3.60541C48.1076 3.6685 48.013 3.6685 47.9026 3.6133C47.7922 3.55021 47.7133 3.45557 47.7291 3.39248C47.7369 3.33727 47.8316 3.33727 47.9499 3.39248Z" fill="white"/>
<path d="M48.0446 3.04546C48.1471 3.10067 48.2102 3.17164 48.2023 3.23474C48.1865 3.29783 48.0998 3.28994 48.0051 3.24262C47.9026 3.18742 47.8316 3.10855 47.8474 3.04546C47.8632 2.99026 47.942 2.99814 48.0446 3.04546Z" fill="white"/>
<path d="M48.1392 2.73789C48.2338 2.78521 48.2969 2.85619 48.289 2.91139C48.2733 2.9666 48.1944 2.95871 48.1077 2.91139C48.013 2.86408 47.9499 2.7931 47.9578 2.73789C47.9657 2.6748 48.0446 2.68269 48.1392 2.73789Z" fill="white"/>
<path d="M48.226 2.43816C48.3048 2.48548 48.3679 2.54068 48.36 2.59589C48.3522 2.64321 48.2812 2.63532 48.1944 2.59589C48.1156 2.54857 48.0525 2.49337 48.0604 2.43816C48.0761 2.38296 48.1471 2.39084 48.226 2.43816Z" fill="white"/>
<path d="M48.3048 2.18579C48.3836 2.22522 48.4309 2.28043 48.423 2.32774C48.4152 2.37506 48.3521 2.35929 48.2732 2.31986C48.1943 2.28043 48.147 2.22522 48.1549 2.1779C48.1628 2.13847 48.2259 2.14636 48.3048 2.18579Z" fill="white"/>
<path d="M48.3837 1.93347C48.4547 1.9729 48.4941 2.02022 48.4941 2.05965C48.4862 2.09908 48.431 2.0912 48.36 2.05176C48.2891 2.01233 48.2417 1.96502 48.2496 1.92558C48.2575 1.88615 48.3127 1.89404 48.3837 1.93347Z" fill="white"/>
<path d="M46.6328 9.01549C46.483 8.94451 46.3883 8.79467 46.4199 8.66849C46.4514 8.55019 46.5855 8.51076 46.7353 8.58174C46.8852 8.65271 46.9719 8.80255 46.9483 8.92085C46.9167 9.04703 46.7827 9.08647 46.6328 9.01549Z" fill="white"/>
<path d="M46.4672 9.80414C46.3253 9.73316 46.2385 9.5912 46.2622 9.46502C46.2937 9.34672 46.4278 9.29941 46.5697 9.37039C46.7117 9.44136 46.7985 9.58332 46.7748 9.7095C46.7432 9.81991 46.6171 9.86723 46.4672 9.80414Z" fill="white"/>
<path d="M46.3174 10.6401C46.1754 10.5771 46.0887 10.4272 46.1202 10.2931C46.1518 10.167 46.2859 10.1196 46.4278 10.1827C46.5698 10.2458 46.6486 10.3957 46.625 10.5218C46.5934 10.648 46.4594 10.7032 46.3174 10.6401Z" fill="white"/>
<path d="M46.1755 11.5392C46.0414 11.4761 45.9626 11.3341 45.9941 11.2079C46.0257 11.0818 46.1518 11.0344 46.2859 11.0975C46.4121 11.1606 46.491 11.2947 46.4673 11.4209C46.4358 11.5471 46.3096 11.6023 46.1755 11.5392Z" fill="white"/>
<path d="M45.994 12.5248C45.8678 12.4696 45.7968 12.3277 45.8284 12.2094C45.8599 12.0911 45.9782 12.0359 46.0965 12.0911C46.2227 12.1463 46.2937 12.2804 46.2621 12.4065C46.2385 12.5248 46.1202 12.58 45.994 12.5248Z" fill="white"/>
<path d="M45.8048 13.6447C45.6865 13.5895 45.6234 13.4634 45.6549 13.3372C45.6865 13.2189 45.7969 13.1637 45.9152 13.211C46.0256 13.2662 46.0966 13.3924 46.065 13.5107C46.0335 13.6369 45.9231 13.6921 45.8048 13.6447Z" fill="white"/>
<path d="M45.2921 3.92078C45.4735 4.00753 45.5839 4.15737 45.5524 4.26778C45.5129 4.37819 45.3394 4.40185 45.1502 4.3151C44.9609 4.22835 44.8505 4.07062 44.8899 3.96021C44.9293 3.8498 45.1107 3.83403 45.2921 3.92078Z" fill="white"/>
<path d="M44.882 4.89869C45.0476 4.97756 45.1423 5.11951 45.1107 5.22204C45.0713 5.33245 44.9136 5.35611 44.7401 5.27724C44.5745 5.19838 44.4719 5.05642 44.5114 4.94601C44.5508 4.85137 44.7085 4.82771 44.882 4.89869Z" fill="white"/>
<path d="M44.6928 5.41916C44.882 5.50591 44.9924 5.67152 44.953 5.7977C44.9057 5.92389 44.7243 5.95543 44.5271 5.87657C44.33 5.78982 44.2196 5.6242 44.2669 5.49013C44.3142 5.36395 44.4956 5.34029 44.6928 5.41916Z" fill="white"/>
<path d="M43.991 7.28833C44.1802 7.37508 44.2828 7.54069 44.2354 7.69053C44.1802 7.83249 43.991 7.87981 43.8017 7.80095C43.6124 7.7142 43.502 7.54069 43.5572 7.39085C43.6124 7.24889 43.8017 7.20946 43.991 7.28833Z" fill="white"/>
<path d="M42.3111 2.11493C42.4846 2.18591 42.5792 2.31209 42.524 2.39884C42.4688 2.48559 42.2874 2.50136 42.106 2.43038C41.9246 2.35941 41.83 2.23322 41.8931 2.13859C41.9483 2.05183 42.1297 2.04395 42.3111 2.11493Z" fill="white"/>
<path d="M42.0745 9.26792C42.2558 9.34678 42.3505 9.52029 42.2953 9.67801C42.2243 9.83574 42.035 9.89883 41.8457 9.82786C41.6565 9.74899 41.5618 9.5676 41.6328 9.40988C41.6959 9.25215 41.8931 9.19694 42.0745 9.26792Z" fill="white"/>
<path d="M40.7654 9.78835C40.9547 9.85933 41.0414 10.0407 40.9704 10.1984C40.8916 10.3562 40.6865 10.4272 40.4972 10.3562C40.308 10.2852 40.2212 10.0959 40.2922 9.93819C40.3711 9.78835 40.5761 9.72526 40.7654 9.78835Z" fill="white"/>
<path d="M43.431 8.82624C43.6282 8.91299 43.7307 9.09438 43.6755 9.25999C43.6124 9.42561 43.4152 9.48081 43.2181 9.40195C43.0209 9.3152 42.9184 9.12592 42.9736 8.96031C43.0446 8.80258 43.2417 8.73949 43.431 8.82624Z" fill="white"/>
<path d="M44.6928 8.46338C44.8741 8.55013 44.9846 8.72363 44.9372 8.87348C44.8899 9.02332 44.7085 9.07852 44.5193 8.99966C44.33 8.91291 44.2275 8.73152 44.2748 8.58168C44.33 8.43184 44.5114 8.38452 44.6928 8.46338Z" fill="white"/>
<path d="M45.86 8.10854C46.0493 8.20318 46.1676 8.39245 46.1361 8.5423C46.0887 8.70002 45.9073 8.75523 45.7102 8.66059C45.513 8.56596 45.3947 8.37668 45.442 8.21895C45.4815 8.06911 45.6708 8.02179 45.86 8.10854Z" fill="white"/>
<path d="M44.2275 6.62592C44.401 6.70479 44.5035 6.86252 44.4641 6.9887C44.4167 7.11488 44.2432 7.15432 44.0619 7.08334C43.8805 7.00448 43.7858 6.84675 43.8331 6.71268C43.8805 6.59438 44.054 6.55495 44.2275 6.62592Z" fill="white"/>
<path d="M46.3174 3.40827C46.4672 3.48714 46.5698 3.61332 46.5461 3.70007C46.5146 3.78682 46.3726 3.80259 46.2149 3.72373C46.0572 3.64487 45.9546 3.51868 45.9862 3.42405C46.0177 3.34518 46.1597 3.33729 46.3174 3.40827Z" fill="white"/>
<path d="M43.1313 2.49335C43.2732 2.55645 43.3442 2.65897 43.3048 2.72995C43.2654 2.80093 43.1234 2.80881 42.9814 2.75361C42.8395 2.69052 42.7606 2.58799 42.8079 2.51702C42.8474 2.43815 42.9893 2.43026 43.1313 2.49335Z" fill="white"/>
<path d="M43.8253 5.0959C43.9752 5.16687 44.0619 5.28517 44.0225 5.3877C43.983 5.48233 43.8332 5.51388 43.6755 5.45079C43.5177 5.37981 43.4389 5.25363 43.4783 5.15899C43.5256 5.05647 43.6755 5.02492 43.8253 5.0959Z" fill="white"/>
<path d="M42.737 7.6117C42.9262 7.69056 43.0288 7.86406 42.9735 8.01391C42.9105 8.16375 42.7133 8.21895 42.5161 8.14009C42.319 8.05334 42.2164 7.87984 42.2795 7.72999C42.3505 7.58015 42.5477 7.53283 42.737 7.6117Z" fill="white"/>
<path d="M44.4483 6.04229C44.6139 6.12116 44.7164 6.271 44.677 6.3893C44.6297 6.50759 44.4641 6.53914 44.2906 6.46816C44.1171 6.3893 44.0224 6.23945 44.0619 6.11327C44.1092 6.00286 44.2748 5.97132 44.4483 6.04229Z" fill="white"/>
<path d="M42.6739 5.27728C42.8553 5.34826 42.9499 5.4981 42.8947 5.60851C42.8395 5.7268 42.6581 5.75835 42.4767 5.68737C42.2953 5.60851 42.2007 5.46655 42.2559 5.34826C42.3111 5.23785 42.4925 5.2063 42.6739 5.27728Z" fill="white"/>
<path d="M39.6297 10.3561C39.7638 10.4035 39.819 10.5296 39.7638 10.6479C39.7007 10.7662 39.5508 10.8214 39.4168 10.7741C39.2827 10.7268 39.2275 10.6006 39.2827 10.4823C39.3458 10.3561 39.4956 10.3088 39.6297 10.3561Z" fill="white"/>
<path d="M43.4467 3.68421C43.6045 3.75519 43.6991 3.88138 43.6597 3.97601C43.6124 4.07065 43.4546 4.09431 43.289 4.02333C43.1234 3.95235 43.0366 3.82617 43.0761 3.73153C43.1234 3.6369 43.2811 3.61324 43.4467 3.68421Z" fill="white"/>
<path d="M47.0351 3.78668C47.1692 3.85766 47.2638 3.97596 47.2401 4.05482C47.2165 4.13368 47.0903 4.14946 46.9562 4.07848C46.8143 4.0075 46.7275 3.8892 46.7512 3.81034C46.7748 3.72359 46.8931 3.7157 47.0351 3.78668Z" fill="white"/>
<path d="M45.024 2.42242C45.1266 2.46185 45.1976 2.54072 45.1818 2.59592C45.166 2.65113 45.0714 2.6669 44.9688 2.62747C44.8584 2.58803 44.7953 2.50917 44.8111 2.45396C44.8269 2.39087 44.9215 2.38299 45.024 2.42242Z" fill="white"/>
<path d="M43.8962 2.80878C44.0145 2.86398 44.0855 2.95862 44.0618 3.02171C44.0303 3.08481 43.9041 3.10058 43.7779 3.04537C43.6518 2.99017 43.5808 2.89553 43.6123 2.82455C43.6518 2.76935 43.77 2.76146 43.8962 2.80878Z" fill="white"/>
<path d="M43.565 5.68737C43.7227 5.75835 43.8095 5.88453 43.77 5.99494C43.7227 6.09746 43.5729 6.12901 43.4073 6.06592C43.2495 5.99494 43.1628 5.86087 43.2022 5.75835C43.2495 5.64794 43.4073 5.62428 43.565 5.68737Z" fill="white"/>
<path d="M42.9499 4.74894C43.0918 4.80414 43.1628 4.92244 43.1234 5.00919C43.084 5.09594 42.942 5.1196 42.8001 5.06439C42.6581 5.0013 42.5792 4.89089 42.6265 4.80414C42.666 4.71739 42.8079 4.69373 42.9499 4.74894Z" fill="white"/>
<path d="M41.7433 4.95397C41.9089 5.01706 41.9957 5.14324 41.9405 5.24576C41.8853 5.34829 41.7118 5.37983 41.5462 5.31674C41.3805 5.25365 41.2938 5.12747 41.349 5.01706C41.4042 4.92242 41.5777 4.89088 41.7433 4.95397Z" fill="white"/>
<path d="M41.1755 2.29621C41.3095 2.34353 41.3726 2.43028 41.3332 2.49337C41.2859 2.55647 41.1518 2.57224 41.0177 2.53281C40.8837 2.48549 40.8127 2.39874 40.86 2.33565C40.9073 2.26467 41.0493 2.24889 41.1755 2.29621Z" fill="white"/>
<path d="M45.2054 2.05968C45.3158 2.107 45.3947 2.18586 45.3789 2.24107C45.3631 2.29627 45.2606 2.31205 45.1502 2.26473C45.0319 2.21741 44.9609 2.13854 44.9767 2.08334C44.9846 2.02813 45.0871 2.02025 45.2054 2.05968Z" fill="white"/>
<path d="M45.5997 3.07697C45.7417 3.14795 45.8206 3.25836 45.7969 3.33723C45.7653 3.41609 45.6392 3.42398 45.4972 3.36088C45.3553 3.28991 45.2685 3.1795 45.3 3.10063C45.3316 3.02177 45.4657 3.01388 45.5997 3.07697Z" fill="white"/>
<path d="M45.7653 2.69049C45.8836 2.75358 45.9624 2.85611 45.9467 2.9192C45.923 2.99018 45.8126 2.99018 45.6864 2.92708C45.5602 2.86399 45.4814 2.76147 45.505 2.69838C45.5287 2.63529 45.647 2.63529 45.7653 2.69049Z" fill="white"/>
<path d="M44.0383 4.59116C44.1723 4.65425 44.2433 4.75678 44.2118 4.84353C44.1723 4.93028 44.0461 4.94605 43.9121 4.89085C43.778 4.82775 43.6991 4.72523 43.7386 4.63848C43.7701 4.55173 43.9042 4.53596 44.0383 4.59116Z" fill="white"/>
<path d="M44.6848 3.18743C44.7953 3.23475 44.8584 3.3215 44.8347 3.38459C44.811 3.44768 44.7006 3.45557 44.5902 3.40036C44.4798 3.34516 44.4167 3.26629 44.4404 3.2032C44.4719 3.14011 44.5744 3.13223 44.6848 3.18743Z" fill="white"/>
<path d="M43.0209 6.95706C43.155 7.01226 43.226 7.13056 43.1865 7.23308C43.1471 7.3356 43.0052 7.36715 42.8711 7.31194C42.737 7.25674 42.6581 7.13056 42.7055 7.03592C42.7449 6.9334 42.8869 6.90185 43.0209 6.95706Z" fill="white"/>
<path d="M45.4184 3.5423C45.513 3.58962 45.5761 3.66848 45.5524 3.72369C45.5288 3.77889 45.442 3.78678 45.3395 3.73946C45.2449 3.69214 45.1818 3.61328 45.2054 3.55807C45.2291 3.50287 45.3237 3.49498 45.4184 3.5423Z" fill="white"/>
<path d="M46.4278 3.04546C46.5382 3.10067 46.6092 3.19531 46.5934 3.2584C46.5776 3.32149 46.483 3.32149 46.3647 3.27417C46.2543 3.21896 46.1833 3.12433 46.1991 3.06124C46.2149 2.99814 46.3174 2.99026 46.4278 3.04546Z" fill="white"/>
<path d="M42.5871 3.36877C42.7212 3.42397 42.7922 3.5265 42.7606 3.59747C42.7212 3.67634 42.5792 3.69211 42.4451 3.63691C42.3111 3.5817 42.2322 3.47918 42.2716 3.40031C42.3111 3.32934 42.4451 3.31356 42.5871 3.36877Z" fill="white"/>
<path d="M39.6455 1.23952C39.7559 1.27107 39.8032 1.33416 39.7638 1.38936C39.7164 1.43668 39.5981 1.45245 39.4877 1.42091C39.3773 1.38936 39.3221 1.32627 39.3694 1.27107C39.4167 1.21586 39.535 1.20797 39.6455 1.23952Z" fill="white"/>
<path d="M40.7891 4.62275C40.9389 4.67795 41.0178 4.78836 40.9704 4.883C40.9152 4.97764 40.7496 5.00918 40.5919 4.95398C40.4342 4.89877 40.3553 4.78836 40.4105 4.69372C40.4736 4.59909 40.6313 4.56754 40.7891 4.62275Z" fill="white"/>
<path d="M39.2984 11.2079C39.4246 11.2553 39.4719 11.3736 39.4088 11.484C39.3458 11.5944 39.2038 11.6496 39.0855 11.6102C38.9593 11.5628 38.912 11.4445 38.9751 11.3262C39.0382 11.2158 39.1801 11.1685 39.2984 11.2079Z" fill="white"/>
<path d="M38.3442 11.7048C38.4546 11.7442 38.494 11.8468 38.4388 11.9414C38.3836 12.036 38.2574 12.0833 38.147 12.0518C38.0366 12.0124 37.9972 11.9098 38.0524 11.8152C38.1076 11.7206 38.2338 11.6733 38.3442 11.7048Z" fill="white"/>
<path d="M41.7354 10.1195C41.8773 10.1747 41.9404 10.3167 41.8931 10.4429C41.8379 10.5691 41.6881 10.6243 41.5461 10.5691C41.4041 10.5139 41.3332 10.3719 41.3884 10.2457C41.4436 10.1116 41.5934 10.0643 41.7354 10.1195Z" fill="white"/>
<path d="M40.4263 10.6795C40.5682 10.7347 40.6313 10.8766 40.584 11.0028C40.5288 11.129 40.379 11.1842 40.237 11.129C40.0951 11.0738 40.0241 10.9318 40.0793 10.8057C40.1345 10.6716 40.2843 10.6243 40.4263 10.6795Z" fill="white"/>
<path d="M42.0351 4.43349C42.1376 4.47292 42.1928 4.55178 42.1613 4.61487C42.1297 4.67796 42.0193 4.69374 41.9168 4.6543C41.8143 4.61487 41.759 4.53601 41.7906 4.47292C41.8221 4.40983 41.9325 4.39405 42.0351 4.43349Z" fill="white"/>
<path d="M44.7322 1.52333C44.819 1.56276 44.8821 1.61797 44.8663 1.66528C44.8505 1.7126 44.7717 1.7126 44.677 1.68106C44.5903 1.64163 44.5272 1.58642 44.543 1.5391C44.5666 1.49178 44.6455 1.49178 44.7322 1.52333Z" fill="white"/>
<path d="M43.1234 9.68588C43.2417 9.7332 43.3048 9.8515 43.2654 9.96191C43.2259 10.0644 43.1076 10.1039 42.9814 10.0565C42.8632 10.0013 42.8001 9.88304 42.8395 9.78052C42.8789 9.67799 43.0051 9.63856 43.1234 9.68588Z" fill="white"/>
<path d="M44.4167 9.24417C44.5271 9.29149 44.5902 9.40979 44.5666 9.50442C44.535 9.59906 44.4246 9.63849 44.3063 9.59117C44.1959 9.54386 44.1328 9.42556 44.1644 9.33092C44.188 9.23629 44.2984 9.19685 44.4167 9.24417Z" fill="white"/>
<path d="M45.6156 8.97596C45.7181 9.02328 45.7812 9.13369 45.7654 9.22044C45.7417 9.30719 45.6392 9.33874 45.5288 9.29142C45.4184 9.2441 45.3553 9.13369 45.379 9.04694C45.4026 8.96019 45.5052 8.92864 45.6156 8.97596Z" fill="white"/>
<path d="M39.7558 4.35458C39.8584 4.38613 39.9057 4.45711 39.8741 4.5202C39.8347 4.5754 39.7243 4.59906 39.6139 4.56752C39.5113 4.53597 39.4561 4.46499 39.4956 4.4019C39.5429 4.3467 39.6533 4.32304 39.7558 4.35458Z" fill="white"/>
<path d="M40.4341 5.10382C40.5603 5.15113 40.6155 5.23789 40.5761 5.31675C40.5288 5.39561 40.3947 5.41927 40.2685 5.37984C40.1423 5.33252 40.0792 5.24577 40.1266 5.16691C40.1818 5.08804 40.3079 5.06438 40.4341 5.10382Z" fill="white"/>
<path d="M41.4121 5.53759C41.5225 5.57702 41.5777 5.66377 41.5383 5.73475C41.4988 5.80573 41.3805 5.82939 41.2701 5.78996C41.1597 5.75052 41.1045 5.66377 41.1439 5.58491C41.1912 5.52182 41.3017 5.49816 41.4121 5.53759Z" fill="white"/>
<path d="M42.3742 5.92406C42.4689 5.9635 42.5241 6.04236 42.4925 6.11334C42.461 6.17643 42.3585 6.20009 42.2638 6.16066C42.1613 6.12122 42.114 6.04236 42.1455 5.97138C42.1771 5.90829 42.2796 5.88463 42.3742 5.92406Z" fill="white"/>
<path d="M43.2891 6.31043C43.3837 6.34986 43.4389 6.42873 43.4074 6.49971C43.3758 6.5628 43.2812 6.58646 43.1865 6.54702C43.0919 6.50759 43.0367 6.42084 43.0682 6.35775C43.0998 6.28677 43.1944 6.271 43.2891 6.31043Z" fill="white"/>
<path d="M45.3631 1.76784C45.4498 1.79938 45.505 1.85459 45.4972 1.9019C45.4814 1.94922 45.4104 1.94922 45.3237 1.91768C45.2369 1.88613 45.1817 1.83093 45.1896 1.78361C45.2054 1.73629 45.2763 1.73629 45.3631 1.76784Z" fill="white"/>
<path d="M44.9136 1.23943C44.9925 1.27098 45.0398 1.3183 45.0319 1.36561C45.0161 1.40505 44.953 1.40505 44.8742 1.3735C44.7953 1.34196 44.748 1.29464 44.7559 1.24732C44.7716 1.20789 44.8347 1.20788 44.9136 1.23943Z" fill="white"/>
<path d="M44.4325 0.789929C44.5035 0.821475 44.5508 0.860909 44.5429 0.900341C44.535 0.939774 44.4719 0.939772 44.4009 0.916113C44.33 0.884567 44.2826 0.845135 44.2905 0.805703C44.3063 0.758385 44.3615 0.758384 44.4325 0.789929Z" fill="white"/>
<path d="M45.8836 2.3829C45.9782 2.43022 46.0334 2.49331 46.0177 2.54852C46.0019 2.60372 45.923 2.59584 45.8284 2.5564C45.7338 2.50909 45.6786 2.43811 45.6943 2.3829C45.718 2.33558 45.7968 2.33558 45.8836 2.3829Z" fill="white"/>
<path d="M39.4247 4.81201C39.5272 4.84355 39.5824 4.91453 39.543 4.98551C39.5036 5.0486 39.3853 5.07226 39.2749 5.04072C39.1644 5.00917 39.1171 4.93819 39.1566 4.86721C39.2039 4.80412 39.3143 4.78046 39.4247 4.81201Z" fill="white"/>
<path d="M38.4704 4.55174C38.573 4.5754 38.6124 4.63849 38.5808 4.70158C38.5414 4.75678 38.431 4.78045 38.3285 4.75679C38.2259 4.73313 38.1786 4.67004 38.2181 4.60694C38.2654 4.55174 38.3758 4.52808 38.4704 4.55174Z" fill="white"/>
<path d="M46.5224 4.20471C46.4909 4.31512 46.5855 4.45708 46.7511 4.56749C46.5618 4.5044 46.3962 4.53594 46.3568 4.66213C46.3252 4.77254 46.4041 4.90661 46.5382 5.0249C46.3726 4.99336 46.2464 5.03279 46.2069 5.15109C46.1675 5.28516 46.2779 5.45866 46.4593 5.58484C46.2543 5.52175 46.0886 5.56907 46.0413 5.71102C46.0098 5.82932 46.0729 5.97128 46.2069 6.09746C46.0413 6.08169 45.9151 6.13689 45.8757 6.25519C45.8363 6.39714 45.923 6.56276 46.0808 6.68894C45.8915 6.6574 45.7416 6.72049 45.6943 6.86244C45.6391 7.0596 45.8047 7.30408 46.065 7.43027C46.2779 7.5249 46.4751 7.50913 46.5776 7.39083C46.6013 7.56434 46.7511 7.74572 46.964 7.84825C47.1454 7.935 47.311 7.92711 47.4136 7.85613C47.4688 8.00598 47.6028 8.15582 47.7763 8.25045C47.9577 8.33721 48.1155 8.32932 48.2101 8.25045C48.2653 8.40818 48.3994 8.55803 48.5808 8.64478C48.7621 8.73153 48.9199 8.72364 49.0145 8.63689C49.0697 8.80251 49.2117 8.96024 49.3852 9.05487C49.6375 9.18106 49.8347 9.11796 49.8584 8.91292C49.8663 8.75519 49.7716 8.5738 49.6139 8.43973C49.7795 8.47127 49.8978 8.40818 49.9136 8.25834C49.9215 8.12427 49.8426 7.96654 49.7085 7.84036C49.8505 7.85613 49.953 7.80093 49.9609 7.66686C49.9688 7.51702 49.8505 7.32774 49.677 7.20156C49.8584 7.26465 50.0003 7.21733 50.0161 7.06749C50.024 6.94131 49.9372 6.79146 49.7953 6.67317C49.9372 6.70471 50.0398 6.6574 50.0555 6.5391C50.0634 6.40503 49.9451 6.23153 49.7716 6.11323C49.9293 6.16844 50.0476 6.13689 50.0634 6.01859C50.0713 5.88453 49.9293 5.71102 49.7401 5.6085C49.5745 5.52175 49.4325 5.52963 49.3852 5.6085C49.3615 5.48232 49.2353 5.34036 49.0697 5.25361C48.912 5.17475 48.77 5.16686 48.7148 5.24572C48.6833 5.11165 48.5492 4.96181 48.3757 4.86717C48.1943 4.77254 48.0366 4.77254 47.9656 4.85929C47.942 4.74099 47.8237 4.60692 47.658 4.52017C47.4609 4.41765 47.2874 4.42553 47.248 4.55172C47.2716 4.42553 47.1375 4.25992 46.9325 4.1574C46.7432 4.06276 46.5618 4.07853 46.5224 4.20471ZM49.1013 7.97443C49.1959 8.02175 49.2669 8.12427 49.259 8.20314C49.2511 8.282 49.1644 8.30566 49.0697 8.25045C48.9751 8.19525 48.9041 8.10061 48.912 8.02175C48.9199 7.95077 49.0066 7.92711 49.1013 7.97443ZM48.3363 7.60377C48.423 7.65109 48.4861 7.73784 48.4703 7.80093C48.4546 7.87191 48.3836 7.88768 48.2969 7.84825C48.2101 7.80093 48.147 7.71418 48.1628 7.6432C48.1707 7.58011 48.2416 7.55645 48.3363 7.60377ZM47.5555 7.21733C47.6423 7.26465 47.7054 7.3514 47.6896 7.41449C47.6738 7.48547 47.595 7.50124 47.5082 7.45392C47.4215 7.40661 47.3584 7.31986 47.3741 7.25676C47.3899 7.19367 47.4688 7.17001 47.5555 7.21733ZM46.8536 7.0044C46.8379 7.07538 46.7432 7.09904 46.6407 7.05172C46.5382 6.99651 46.4751 6.90187 46.4909 6.8309C46.5145 6.75992 46.6013 6.73626 46.7038 6.78358C46.8063 6.83878 46.8694 6.93342 46.8536 7.0044ZM49.2038 7.43027C49.2905 7.47758 49.3457 7.55645 49.3379 7.62743C49.33 7.69052 49.259 7.71418 49.1722 7.66686C49.0855 7.61954 49.0303 7.53279 49.0382 7.4697C49.0461 7.40661 49.117 7.39083 49.2038 7.43027ZM46.8379 6.2473C46.9246 6.29462 46.9798 6.37348 46.9719 6.43657C46.9562 6.49967 46.8773 6.51544 46.7827 6.47601C46.6959 6.42869 46.6407 6.34982 46.6486 6.28673C46.6722 6.22364 46.7511 6.20787 46.8379 6.2473ZM49.2669 6.86244C49.3457 6.90187 49.4088 6.98863 49.401 7.05172C49.3931 7.11481 49.3221 7.13058 49.2432 7.08326C49.1565 7.03594 49.1013 6.95708 49.1092 6.89399C49.117 6.8309 49.188 6.82301 49.2669 6.86244ZM46.9719 5.70314C47.0587 5.75046 47.1139 5.82143 47.0981 5.88452C47.0823 5.93973 47.0035 5.9555 46.9167 5.91607C46.83 5.86875 46.7748 5.78989 46.7905 5.73468C46.8142 5.67159 46.8852 5.66371 46.9719 5.70314ZM49.33 6.32617C49.4088 6.3656 49.464 6.44446 49.464 6.49967C49.4562 6.56276 49.3931 6.57065 49.3063 6.53121C49.2274 6.49178 49.1644 6.41291 49.1722 6.34982C49.1801 6.29462 49.2511 6.28673 49.33 6.32617ZM47.0981 5.19841C47.1849 5.23784 47.2322 5.30881 47.2243 5.37191C47.2085 5.42711 47.1375 5.435 47.0508 5.39557C46.964 5.34825 46.9088 5.27727 46.9246 5.22206C46.9404 5.15897 47.0192 5.15109 47.0981 5.19841ZM49.3615 5.782C49.4483 5.82932 49.5114 5.90818 49.5035 5.97128C49.4956 6.03437 49.4246 6.04225 49.3379 5.99493C49.2511 5.94762 49.188 5.86875 49.1959 5.80566C49.2038 5.74257 49.2748 5.73468 49.3615 5.782ZM48.6754 5.435C48.7543 5.47443 48.8095 5.54541 48.8016 5.60061C48.7937 5.65582 48.7227 5.66371 48.6439 5.62427C48.565 5.58484 48.5098 5.51386 48.5177 5.45866C48.5334 5.39557 48.5965 5.39557 48.6754 5.435ZM47.9814 5.08011C48.0603 5.11954 48.1155 5.19052 48.1076 5.24572C48.0997 5.30093 48.0287 5.30882 47.9498 5.26938C47.871 5.22995 47.8158 5.15897 47.8237 5.10377C47.8316 5.04068 47.9025 5.03279 47.9814 5.08011ZM47.2243 4.6779C47.311 4.72522 47.3741 4.80408 47.3584 4.85929C47.3426 4.91449 47.2637 4.93027 47.1691 4.88295C47.0823 4.83563 47.0192 4.75676 47.035 4.70156C47.0587 4.64635 47.1375 4.63847 47.2243 4.6779Z" fill="white"/>
<path d="M27.6737 1.67981H26.3093V9.60568H27.6737V1.67981Z" fill="#5F646A"/>
<path d="M26.7588 10.7649V12.0819C27.2004 12.1608 27.5159 12.1845 27.8235 12.1845C29.7241 12.1845 30.6468 11.317 30.6468 9.52674V4.78699H29.2194V9.54251C29.2194 10.4416 28.7146 10.9857 27.926 10.9857C27.4213 10.9857 27.0585 10.8674 26.9244 10.8201L26.7588 10.7649Z" fill="#5F646A"/>
<path d="M32.926 2.53149H31.5616V9.60563H32.926V2.53149Z" fill="#5F646A"/>
<path d="M9.59004 9.07729C10.2604 9.51893 10.8203 9.60568 12.0979 9.60568H12.5711C12.5553 10.5205 12.0427 10.97 11.0648 10.97C10.6232 10.97 10.0948 10.9069 9.51906 10.7098L9.42442 10.6782V12.0032C10.1263 12.1215 10.6547 12.1845 11.1437 12.1845C13.0128 12.1845 13.967 11.317 13.9986 9.60568H22.0269C24.243 9.60568 25.4102 9.02997 25.4102 6.96372C25.4102 5.63091 24.5427 4.27445 22.6027 4.27445C21.0254 4.27445 20.1736 5.14195 20.1736 6.79811V8.43848H18.9276C19.109 8.09148 19.2194 7.66561 19.2194 7.14511C19.2194 5.97792 18.4781 4.62145 16.4118 4.62145H16.2304L18.9039 1.67981H17.2478C16.2462 2.79968 14.7399 4.44006 14.5585 4.61356V5.79653H16.4986C17.09 5.79653 17.8077 6.02524 17.8077 7.08991C17.8077 8.07571 17.3661 8.43848 16.1673 8.43848H13.9512V6.79811C13.9512 5.14195 13.0995 4.27445 11.5222 4.27445C9.58215 4.27445 8.69887 5.62303 8.69887 6.96372C8.69098 7.94164 9.01433 8.68296 9.59004 9.07729ZM21.5538 6.95583C21.5538 5.93848 21.9165 5.44952 22.7052 5.44952C23.4938 5.44952 23.9986 6.02524 23.9986 6.92429C23.9986 7.98896 23.5096 8.44637 22.374 8.44637H21.5538V6.95583ZM11.4118 5.44952C12.2004 5.44952 12.5475 5.93848 12.5475 6.95583V8.44637H11.7588C10.6074 8.44637 10.1184 7.98896 10.1184 6.92429C10.1184 6.02524 10.6232 5.44952 11.4118 5.44952Z" fill="#5F646A"/>
<path d="M33.2572 1.28544H32.5001C32.1847 1.26966 32.1058 1.20657 32.1058 0.96998C32.1058 0.693954 32.2005 0.638748 32.5317 0.638748C32.7446 0.638748 32.8945 0.686068 33.1232 0.851683V0.181336L33.0206 0.134017C32.855 0.0551525 32.7052 0.0314941 32.5159 0.0314941C31.814 0.0314941 31.4197 0.362723 31.4197 0.985751C31.4197 1.11982 31.4512 1.21446 31.4828 1.29332H31.2225V1.90058H33.2572V1.28544Z" fill="#5F646A"/>
<path d="M30.56 14.385C29.0852 14.385 27.8865 15.5837 27.8865 17.0585C27.8865 18.5333 29.0852 19.732 30.56 19.732C32.0347 19.732 33.2177 18.5333 33.2177 17.0585C33.2177 15.5916 32.0347 14.385 30.56 14.385ZM30.56 18.5175C29.7477 18.5175 29.101 17.855 29.101 17.0585C29.101 16.262 29.7477 15.6153 30.56 15.6153C31.3565 15.6153 32.0032 16.262 32.0032 17.0585C32.0032 17.855 31.3565 18.5175 30.56 18.5175Z" fill="#5F646A"/>
<path d="M20.7728 14.3298C20.1892 14.3298 19.5899 14.4481 19.1088 14.6453C18.7145 14.4166 18.3438 14.3298 17.7996 14.3298C17.1214 14.3298 16.4353 14.4166 15.6861 14.6768L15.552 14.7242V19.6374H16.8848V15.6153C17.1529 15.5286 17.3659 15.497 17.634 15.497C18.2965 15.497 18.4936 15.71 18.4936 16.3961V19.6374H19.8422V16.3014C19.8422 16.0018 19.8264 15.8046 19.7791 15.6232C20.0473 15.5365 20.2602 15.4891 20.4968 15.4891C21.1277 15.4891 21.4116 15.773 21.4116 16.3882V19.6295H22.7523V16.2778C22.7523 15.6153 22.6498 15.2289 22.3501 14.8977C22.0189 14.5428 21.4668 14.3298 20.7728 14.3298Z" fill="#5F646A"/>
<path d="M26.1278 18.5727C25.2366 18.5727 24.724 18.0207 24.724 17.0585C24.724 16.0727 25.2366 15.5049 26.1357 15.5049C26.3249 15.5049 26.4827 15.5207 26.6325 15.568C26.6325 15.568 26.9085 15.6468 27.153 15.8361L27.7208 14.8661C27.4133 14.6058 27.0505 14.4954 26.9243 14.4639C26.5773 14.3614 26.0647 14.3456 26.0647 14.3456C24.4559 14.3456 23.3833 15.4576 23.3833 17.1137C23.3833 18.7068 24.4085 19.732 25.9937 19.732C25.9937 19.732 27.0584 19.7793 27.7682 19.1169L27.1057 18.2651C26.7429 18.4938 26.4906 18.5727 26.1278 18.5727Z" fill="#5F646A"/>
<path d="M8.70659 14.3771C6.79808 14.3771 5.91479 15.2209 5.91479 17.0033V19.6294H7.27915V17.1058V16.9875C7.27915 16.0884 7.79177 15.5285 8.5883 15.5285C8.91953 15.5285 9.17189 15.5916 9.35328 15.631L9.66874 14.4481C9.14035 14.3771 8.70659 14.3771 8.70659 14.3771Z" fill="#5F646A"/>
<path d="M14.7634 16.8534V19.6294H12.9337C11.6719 19.6294 11.1198 19.5427 10.4574 19.101C9.88956 18.7067 9.5741 17.9733 9.5741 17.0111C9.5741 15.6862 10.4416 14.3534 12.3659 14.3534C13.9274 14.3613 14.7634 15.2288 14.7634 16.8534ZM13.4306 17.0032C13.4306 15.9938 13.0362 15.5048 12.2555 15.5048C11.459 15.5048 10.9463 16.0884 10.9463 16.9796C10.9463 18.0442 11.459 18.5095 12.5946 18.5095H13.4227V17.0032H13.4306Z" fill="#5F646A"/>
<path d="M5.1735 16.8534V19.6294H3.35962C2.09779 19.6294 1.54574 19.5427 0.883281 19.101C0.315457 18.7067 0 17.9733 0 17.0111C0 15.6862 0.867508 14.3534 2.7918 14.3534C4.34543 14.3613 5.1735 15.2288 5.1735 16.8534ZM3.79338 17.0032C3.79338 15.9859 3.4306 15.5048 2.63407 15.5048C1.83754 15.5048 1.32492 16.0884 1.32492 16.9796C1.32492 18.0442 1.83754 18.5095 2.97319 18.5095H3.78549V17.0032H3.79338Z" fill="#5F646A"/>
<defs>
<radialGradient id="paint0_radial_79_441" cx="0" cy="0" r="1" gradientUnits="userSpaceOnUse" gradientTransform="translate(28.1574 24.9263) scale(37.7866 37.7866)">
<stop offset="0.29" stop-color="#7FBF3F"/>
<stop offset="0.44" stop-color="#5FB644"/>
<stop offset="0.685" stop-color="#009848"/>
<stop offset="0.705" stop-color="#0062AF"/>
<stop offset="0.9" stop-color="#00A4E5"/>
<stop offset="1" stop-color="#00ACEC"/>
</radialGradient>
</defs>
</svg>
