<?xml version="1.0" encoding="utf-8"?>
<!-- Generator: Adobe Illustrator 27.2.0, SVG Export Plug-In . SVG Version: 6.00 Build 0)  -->
<svg version="1.1" id="Layer_1" xmlns="http://www.w3.org/2000/svg" xmlns:xlink="http://www.w3.org/1999/xlink" x="0px" y="0px"
	 viewBox="0 0 1000 1000" style="enable-background:new 0 0 1000 1000;" xml:space="preserve">
<style type="text/css">
	.st0{fill:url(#SVGID_1_);}
	.st1{fill:#FFFFFF;}
	.st2{fill:#5F646A;}
</style>
<g>
	<g>
		<radialGradient id="SVGID_1_" cx="498.5312" cy="690.8555" r="479.1337" gradientUnits="userSpaceOnUse">
			<stop  offset="0.29" style="stop-color:#7FBF3F"/>
			<stop  offset="0.44" style="stop-color:#5FB644"/>
			<stop  offset="0.685" style="stop-color:#009848"/>
			<stop  offset="0.705" style="stop-color:#0062AF"/>
			<stop  offset="0.9" style="stop-color:#00A4E5"/>
			<stop  offset="1" style="stop-color:#00ACEC"/>
		</radialGradient>
		<rect x="610" y="374.8" class="st0" width="248.6" height="248.6"/>
		<g>
			<path class="st1" d="M747.2,479.1c2.9,1.5,4.9,4.5,4.5,6.9c-0.5,2.5-3.1,3.3-6.2,1.8c-3-1.5-5-4.6-4.5-7.1
				C741.5,478.4,744.2,477.7,747.2,479.1z"/>
			<path class="st1" d="M755.9,431.2c2.4,1.3,4.1,3.4,3.9,4.9c-0.3,1.5-2.4,1.7-4.8,0.5c-2.5-1.3-4.2-3.5-3.9-5
				C751.4,430.2,753.5,430,755.9,431.2z"/>
			<path class="st1" d="M756.7,426.5c2,1.1,3.4,2.8,3.3,4.1c-0.2,1.2-1.9,1.4-4,0.3c-2.1-1.1-3.5-2.9-3.3-4.1
				C753,425.5,754.7,425.4,756.7,426.5z"/>
			<path class="st1" d="M757.5,421.8c1.9,1,3.2,2.6,3,3.7c-0.2,1.1-1.8,1.2-3.7,0.2c-1.9-1-3.2-2.7-3.1-3.8
				C754,420.8,755.6,420.8,757.5,421.8z"/>
			<path class="st1" d="M758.2,417.2c1.7,0.9,3,2.4,2.8,3.4c-0.2,1-1.6,1-3.4,0.1c-1.8-0.9-3-2.4-2.8-3.4
				C755,416.2,756.5,416.2,758.2,417.2z"/>
			<path class="st1" d="M758.9,412.9c1.6,0.9,2.7,2.2,2.6,3.1c-0.1,0.9-1.5,0.9-3.1,0c-1.6-0.9-2.8-2.2-2.6-3.1
				C755.9,412,757.3,412,758.9,412.9z"/>
			<path class="st1" d="M759.5,409.1c1.5,0.8,2.5,2,2.4,2.8c-0.1,0.8-1.4,0.8-2.9,0c-1.5-0.8-2.6-2.1-2.4-2.9
				C756.8,408.2,758,408.3,759.5,409.1z"/>
			<path class="st1" d="M760.1,405.3c1.3,0.8,2.3,1.7,2.2,2.6c-0.1,0.8-1.3,0.6-2.6-0.1c-1.4-0.8-2.4-1.8-2.3-2.6
				C757.6,404.4,758.7,404.6,760.1,405.3z"/>
			<path class="st1" d="M760.7,401.6c1.2,0.7,2,1.5,2,2.2c-0.1,0.7-1.1,0.5-2.3-0.1c-1.2-0.7-2.1-1.5-2-2.2
				C758.5,400.7,759.5,400.9,760.7,401.6z"/>
			<path class="st1" d="M761.2,398c1.1,0.6,1.9,1.4,1.8,2c-0.1,0.6-1,0.4-2.1-0.2c-1.1-0.6-1.9-1.4-1.8-2
				C759.3,397.2,760.2,397.4,761.2,398z"/>
			<path class="st1" d="M761.8,394.5c0.9,0.5,1.6,1.2,1.6,1.7c-0.1,0.5-0.8,0.3-1.8-0.2c-0.9-0.5-1.6-1.2-1.6-1.7
				C760.1,393.8,760.8,394,761.8,394.5z"/>
			<path class="st1" d="M762.3,391.3c0.8,0.5,1.4,1,1.4,1.5c-0.1,0.5-0.7,0.3-1.6-0.2c-0.8-0.5-1.4-1-1.4-1.5
				C760.8,390.6,761.5,390.8,762.3,391.3z"/>
			<path class="st1" d="M744.1,495.8c-2.5-1.3-4.1-3.9-3.8-6c0.5-2.1,2.7-2.8,5.2-1.6c2.4,1.2,4.1,3.8,3.7,5.9
				C748.8,496.3,746.6,497,744.1,495.8z"/>
			<path class="st1" d="M742.1,506c-2.5-1.2-4-3.8-3.6-6c0.5-2.1,2.7-2.9,5.1-1.7c2.4,1.2,4,3.7,3.6,5.9
				C746.8,506.4,744.6,507.2,742.1,506z"/>
			<path class="st1" d="M740,516.6c-2.4-1.2-3.9-3.8-3.5-6c0.5-2.2,2.6-3,5-1.9c2.3,1.2,3.8,3.7,3.5,5.9
				C744.6,516.9,742.5,517.7,740,516.6z"/>
			<path class="st1" d="M737.7,528.3c-2.3-1.1-3.8-3.7-3.3-6c0.5-2.2,2.6-3.1,4.9-2c2.3,1.1,3.7,3.6,3.3,5.9
				C742.2,528.4,740.1,529.4,737.7,528.3z"/>
			<path class="st1" d="M735.4,540c-2-1-3.3-3.3-2.9-5.4c0.5-2,2.3-2.9,4.3-2c2,1,3.2,3.2,2.9,5.3C739.3,540,737.4,540.9,735.4,540z
				"/>
			<path class="st1" d="M732.5,554.1c-2-0.9-3.1-3.2-2.7-5.4c0.5-2.1,2.3-3,4.3-2.2c1.9,0.9,3.1,3.2,2.7,5.3
				C736.3,554,734.5,555,732.5,554.1z"/>
			<path class="st1" d="M729.3,569.4c-1.8-0.8-2.8-2.9-2.4-4.9c0.4-2,2.1-2.9,3.9-2.2c1.7,0.8,2.7,2.9,2.4,4.8
				C732.7,569.1,731.1,570.1,729.3,569.4z"/>
			<path class="st1" d="M726.1,584.7c-1.5-0.6-2.3-2.5-1.9-4.3c0.4-1.8,1.9-2.7,3.4-2.1c1.5,0.6,2.3,2.5,2,4.3
				C729.1,584.3,727.6,585.2,726.1,584.7z"/>
			<path class="st1" d="M757.6,484.8c2.3,1.2,3.9,3.6,3.7,5.6c-0.3,2-2.3,2.6-4.7,1.5c-2.4-1.2-4-3.7-3.7-5.7
				C753.2,484.3,755.2,483.7,757.6,484.8z"/>
			<path class="st1" d="M767.9,489.1c2.8,1.5,4.9,4.6,4.7,7.1c-0.3,2.5-2.7,3.4-5.7,1.9c-2.9-1.5-5-4.7-4.7-7.2
				C762.6,488.4,765,487.7,767.9,489.1z"/>
			<path class="st1" d="M839.3,485.4c-1.2-0.7-2-0.5-1.8,0.5c0.2,1.1,1.2,2.5,2.4,3.3c1.2,0.8,2,0.5,1.8-0.6
				C841.5,487.5,840.5,486.1,839.3,485.4z"/>
			<path class="st1" d="M831,479.7c-1.6-0.9-2.7-0.7-2.5,0.7c0.2,1.3,1.5,3.2,3.1,4.1c1.6,0.9,2.6,0.7,2.5-0.7
				C833.9,482.4,832.5,480.6,831,479.7z"/>
			<path class="st1" d="M807.8,557.2c-2-1.2-3.5-0.4-3.6,2c0,2.4,1.6,5.3,3.6,6.6c2,1.3,3.5,0.4,3.6-2.1
				C811.3,561.3,809.7,558.5,807.8,557.2z"/>
			<path class="st1" d="M797.9,537.6c-2.3-1.3-4.2-0.4-4.3,2.1c-0.1,2.6,1.7,5.6,4.1,7c2.4,1.4,4.2,0.4,4.2-2.2
				C801.9,541.9,800.2,538.9,797.9,537.6z"/>
			<path class="st1" d="M787.5,520.6c-2.3-1.2-4.2-0.5-4.3,1.8c-0.1,2.3,1.6,5.1,3.9,6.5c2.3,1.3,4.2,0.4,4.3-1.9
				C791.4,524.6,789.7,521.9,787.5,520.6z"/>
			<path class="st1" d="M781.1,451c-2.1-1.1-3.8-0.9-3.9,0.6c-0.1,1.5,1.5,3.5,3.6,4.7c2.1,1.1,3.8,0.8,3.9-0.7
				C784.7,454.1,783.1,452.1,781.1,451z"/>
			<path class="st1" d="M823.6,481.8c-1.6-0.9-2.8-0.6-2.7,0.8c0.1,1.4,1.5,3.3,3.1,4.3c1.6,1,2.8,0.6,2.7-0.8
				C826.5,484.7,825.2,482.8,823.6,481.8z"/>
			<path class="st1" d="M815.2,476.8c-1.7-1-3-0.7-2.9,0.7c0.1,1.4,1.5,3.4,3.3,4.4c1.7,1,3,0.7,2.9-0.8
				C818.3,479.7,816.9,477.8,815.2,476.8z"/>
			<path class="st1" d="M798.5,474c-2-1.1-3.6-0.7-3.6,0.9c0,1.6,1.6,3.8,3.6,5c2.1,1.1,3.6,0.7,3.6-1
				C802,477.2,800.4,475.1,798.5,474z"/>
			<path class="st1" d="M806.9,471.7c-1.9-1.1-3.4-0.7-3.3,0.8c0.1,1.6,1.6,3.6,3.6,4.8c2,1.1,3.4,0.7,3.3-0.9
				C810.4,474.8,808.8,472.8,806.9,471.7z"/>
			<path class="st1" d="M798.1,466.6c-2.2-1.2-3.8-0.8-3.9,0.8c0,1.7,1.7,4,3.9,5.2c2.2,1.2,3.9,0.8,3.9-0.9
				C801.9,470,800.2,467.8,798.1,466.6z"/>
			<path class="st1" d="M789.5,468.8c-2.2-1.2-4-0.8-4.1,0.9c0,1.8,1.7,4.1,4,5.4c2.3,1.2,4.1,0.8,4.1-1
				C793.5,472.3,791.7,470,789.5,468.8z"/>
			<path class="st1" d="M777.5,504.3c-2.4-1.2-4.3-0.5-4.6,1.7c-0.2,2.2,1.5,4.9,3.9,6.2c2.4,1.2,4.4,0.5,4.6-1.8
				C781.6,508.3,779.9,505.6,777.5,504.3z"/>
			<path class="st1" d="M778.2,495c-2.5-1.3-4.6-0.6-4.9,1.6c-0.2,2.3,1.7,5.2,4.3,6.6c2.6,1.3,4.7,0.6,4.9-1.7
				C782.6,499.2,780.8,496.4,778.2,495z"/>
			<path class="st1" d="M778.9,486.2c-2.8-1.4-5-0.8-5.3,1.6c-0.2,2.4,1.9,5.4,4.7,6.9c2.8,1.5,5.1,0.7,5.2-1.7
				C783.6,490.6,781.6,487.7,778.9,486.2z"/>
			<path class="st1" d="M779.4,477.9c-2.7-1.4-4.9-0.8-5.1,1.3c-0.1,2.2,1.8,5.1,4.5,6.6c2.7,1.4,4.9,0.8,5.1-1.5
				C784,482.2,782.1,479.4,779.4,477.9z"/>
			<path class="st1" d="M779.8,470.8c-2.3-1.2-4.2-0.8-4.4,1c-0.1,1.9,1.6,4.3,4,5.6c2.4,1.2,4.3,0.7,4.4-1.1
				C783.9,474.4,782.2,472,779.8,470.8z"/>
			<path class="st1" d="M780.3,463.5c-2.5-1.3-4.6-0.9-4.8,1c-0.1,1.9,1.8,4.5,4.4,5.9c2.6,1.3,4.6,0.9,4.8-1.1
				C784.7,467.4,782.9,464.9,780.3,463.5z"/>
			<path class="st1" d="M780.7,456.9c-2.5-1.3-4.5-1-4.6,0.8c-0.1,1.8,1.8,4.3,4.3,5.7c2.5,1.3,4.5,0.9,4.6-0.9
				C785,460.6,783.2,458.2,780.7,456.9z"/>
			<path class="st1" d="M764.7,436.6c-1.7-0.9-3.2-0.8-3.4,0.3c-0.1,1.1,1.1,2.7,2.9,3.7c1.8,0.9,3.2,0.7,3.4-0.4
				C767.7,439.1,766.4,437.6,764.7,436.6z"/>
			<path class="st1" d="M765.1,431.5c-1.6-0.8-2.9-0.7-3.1,0.2c-0.1,1,1,2.4,2.6,3.3c1.6,0.8,2.9,0.7,3.1-0.3
				C767.8,433.7,766.6,432.3,765.1,431.5z"/>
			<path class="st1" d="M765.3,426.6c-1.4-0.7-2.5-0.7-2.7,0.1c-0.1,0.8,0.9,2,2.3,2.8c1.4,0.7,2.5,0.7,2.6-0.2
				C767.7,428.5,766.7,427.3,765.3,426.6z"/>
			<path class="st1" d="M765.5,421.9c-1.2-0.7-2.2-0.7-2.4,0.1c-0.1,0.8,0.8,1.8,2.1,2.5c1.3,0.7,2.3,0.7,2.4-0.1
				C767.7,423.5,766.8,422.5,765.5,421.9z"/>
			<path class="st1" d="M765.8,417.5c-1.2-0.6-2.1-0.7-2.2,0c-0.1,0.7,0.8,1.6,1.9,2.3c1.2,0.6,2.1,0.7,2.2,0
				C767.8,419,766.9,418.1,765.8,417.5z"/>
			<path class="st1" d="M766,413c-1-0.5-1.8-0.7-1.9,0c-0.1,0.6,0.7,1.4,1.7,2c1,0.6,1.9,0.7,1.9,0C767.7,414.4,767,413.6,766,413z"
				/>
			<path class="st1" d="M766.2,409.1c-0.9-0.5-1.7-0.6-1.8-0.1c-0.1,0.6,0.6,1.3,1.6,1.8c1,0.5,1.7,0.6,1.8,0.1
				C767.8,410.4,767.1,409.7,766.2,409.1z"/>
			<path class="st1" d="M766.3,405.1c-0.8-0.5-1.5-0.6-1.6-0.1c0,0.5,0.6,1.1,1.4,1.6c0.8,0.5,1.5,0.6,1.6,0.1
				C767.8,406.2,767.2,405.6,766.3,405.1z"/>
			<path class="st1" d="M755.4,500.2c1.8,0.9,3.4,0.3,3.7-1.3c0.2-1.6-1-3.5-2.8-4.4c-1.8-0.9-3.4-0.4-3.7,1.2
				C752.3,497.3,753.5,499.2,755.4,500.2z"/>
			<path class="st1" d="M753.8,510.4c1.8,0.8,3.3,0.3,3.5-1.3c0.2-1.6-1-3.5-2.7-4.4c-1.7-0.8-3.3-0.3-3.6,1.3
				C750.9,507.6,752,509.5,753.8,510.4z"/>
			<path class="st1" d="M751.4,520.9c1.8,0.8,3.3,0.2,3.5-1.5c0.2-1.6-0.9-3.5-2.6-4.4c-1.7-0.8-3.2-0.2-3.5,1.4
				C748.5,518.1,749.6,520.1,751.4,520.9z"/>
			<path class="st1" d="M749.1,532.4c1.6,0.8,3.1,0.1,3.3-1.5c0.2-1.6-0.8-3.4-2.4-4.2c-1.6-0.7-3-0.1-3.3,1.5
				C746.5,529.7,747.5,531.6,749.1,532.4z"/>
			<path class="st1" d="M746.4,543.8c1.5,0.7,2.9,0,3.1-1.6c0.2-1.6-0.7-3.3-2.2-4c-1.5-0.7-2.9,0-3.1,1.5
				C744,541.3,744.9,543.1,746.4,543.8z"/>
			<path class="st1" d="M743.3,557.4c1.4,0.6,2.7-0.1,3-1.6c0.2-1.6-0.7-3.2-2.1-3.9c-1.4-0.6-2.7,0-3,1.6
				C741,555,741.9,556.7,743.3,557.4z"/>
			<path class="st1" d="M789.3,462c-2.1-1.1-3.7-0.8-3.8,0.7c0,1.6,1.6,3.7,3.7,4.9c2.1,1.1,3.7,0.8,3.8-0.8
				C793,465.2,791.4,463.1,789.3,462z"/>
			<path class="st1" d="M788.9,476.3c-1.9-1-3.4-0.6-3.5,0.9c0,1.5,1.4,3.5,3.3,4.6c1.9,1,3.4,0.6,3.5-1
				C792.2,479.3,790.8,477.3,788.9,476.3z"/>
			<path class="st1" d="M788.7,483.7c-2.1-1.1-3.8-0.7-4,1.1c-0.1,1.8,1.6,4.2,3.7,5.4c2.2,1.2,3.9,0.6,3.9-1.2
				C792.4,487.1,790.8,484.8,788.7,483.7z"/>
			<path class="st1" d="M787.7,510.2c-2.1-1.1-3.8-0.5-3.9,1.5c-0.1,2,1.5,4.5,3.6,5.7c2.1,1.1,3.8,0.4,3.9-1.6
				C791.3,513.8,789.7,511.4,787.7,510.2z"/>
			<path class="st1" d="M822.9,474.6c-1.8-1-3-0.7-2.9,0.7c0.2,1.5,1.6,3.4,3.4,4.5c1.8,1,3,0.7,2.9-0.8
				C826.1,477.6,824.6,475.6,822.9,474.6z"/>
			<path class="st1" d="M797.1,550.3c-1.9-1.1-3.5-0.3-3.6,1.9c0,2.2,1.4,4.9,3.4,6.1c2,1.1,3.5,0.3,3.6-2
				C800.5,554,799.1,551.4,797.1,550.3z"/>
			<path class="st1" d="M807.9,570.4c-1.8-1.2-3.3-0.3-3.3,2c0,2.3,1.4,5.1,3.3,6.4c1.9,1.2,3.3,0.3,3.3-2.1
				C811.1,574.3,809.7,571.6,807.9,570.4z"/>
			<path class="st1" d="M786.6,531.7c-2.1-1.1-3.9-0.3-4,1.9c-0.1,2.3,1.5,5,3.6,6.2c2.2,1.2,3.9,0.3,4-2
				C790.3,535.5,788.7,532.9,786.6,531.7z"/>
			<path class="st1" d="M776.7,515.2c-2.1-1.1-3.9-0.4-4.1,1.6c-0.2,2.1,1.4,4.6,3.5,5.7c2.2,1.1,3.9,0.4,4.1-1.7
				C780.3,518.7,778.8,516.3,776.7,515.2z"/>
			<path class="st1" d="M767,499.1c-2.3-1.2-4.3-0.5-4.6,1.6c-0.2,2.1,1.4,4.7,3.7,5.9c2.4,1.2,4.3,0.4,4.6-1.7
				C770.9,502.8,769.3,500.3,767,499.1z"/>
			<path class="st1" d="M788.1,501.2c-1.9-1-3.5-0.5-3.6,1.3c-0.1,1.8,1.4,4.1,3.4,5.2c2,1.1,3.5,0.5,3.6-1.4
				C791.4,504.5,790,502.3,788.1,501.2z"/>
			<path class="st1" d="M781.3,445.3c-1.8-1-3.3-0.8-3.4,0.4c-0.1,1.2,1.3,3,3.2,4c1.9,1,3.3,0.8,3.4-0.5
				C784.5,448,783.1,446.3,781.3,445.3z"/>
			<path class="st1" d="M814.7,470.3c-1.4-0.8-2.5-0.6-2.4,0.6c0.1,1.2,1.3,2.7,2.7,3.6c1.5,0.8,2.5,0.6,2.4-0.6
				C817.3,472.7,816.2,471.1,814.7,470.3z"/>
			<path class="st1" d="M798.5,489.8c-1.7-0.9-2.9-0.5-3,0.9c0,1.4,1.3,3.3,2.9,4.3c1.7,0.9,2.9,0.5,2.9-1
				C801.4,492.5,800.1,490.7,798.5,489.8z"/>
			<path class="st1" d="M797.7,526.7c-2-1.1-3.6-0.4-3.7,1.7c0,2.1,1.5,4.7,3.6,6c2.1,1.2,3.7,0.4,3.7-1.8
				C801.2,530.4,799.7,527.9,797.7,526.7z"/>
			<path class="st1" d="M788.4,492.6c-1.9-1-3.4-0.5-3.5,1.1c-0.1,1.7,1.4,3.8,3.3,4.9c1.9,1,3.4,0.5,3.5-1.2
				C791.7,495.7,790.3,493.6,788.4,492.6z"/>
			<path class="st1" d="M808,503.6c-1.8-1-3.2-0.5-3.2,1.2c0,1.8,1.5,4,3.4,5.1c1.9,1.1,3.2,0.6,3.2-1.2
				C811.2,506.9,809.8,504.7,808,503.6z"/>
			<path class="st1" d="M815.9,592.9c-1.5-1.1-2.6-0.3-2.6,1.8c0,2.1,1.2,4.6,2.7,5.8c1.5,1.1,2.6,0.3,2.6-1.9
				C818.5,596.5,817.4,594,815.9,592.9z"/>
			<path class="st1" d="M807.2,479.1c-1.7-0.9-3-0.6-3,0.8c0.1,1.4,1.4,3.3,3.1,4.3c1.7,1,3,0.6,3-0.8
				C810.2,482,808.9,480.1,807.2,479.1z"/>
			<path class="st1" d="M772.7,441c-1.7-0.9-3-0.7-3.2,0.4c-0.1,1.1,1.1,2.6,2.8,3.6c1.7,0.9,3,0.7,3.2-0.4
				C775.6,443.4,774.4,441.9,772.7,441z"/>
			<path class="st1" d="M789.6,444.5c-1.6-0.8-2.8-0.7-2.9,0.3c0,1.1,1.2,2.6,2.8,3.5c1.6,0.8,2.8,0.7,2.9-0.4
				C792.4,446.9,791.2,445.4,789.6,444.5z"/>
			<path class="st1" d="M806.6,465.8c-1.3-0.7-2.3-0.5-2.3,0.5c0.1,1,1.1,2.4,2.4,3.2c1.3,0.7,2.3,0.5,2.3-0.5
				C809,467.9,808,466.5,806.6,465.8z"/>
			<path class="st1" d="M798.1,498.2c-1.7-0.9-3-0.5-3,1.1c0,1.6,1.3,3.5,3,4.5c1.7,0.9,3,0.5,3-1.1
				C801.1,501.1,799.8,499.2,798.1,498.2z"/>
			<path class="st1" d="M807.4,495.1c-1.5-0.8-2.6-0.5-2.6,0.9c0,1.3,1.2,3,2.7,3.9c1.5,0.8,2.6,0.5,2.5-0.9
				C810,497.6,808.9,496,807.4,495.1z"/>
			<path class="st1" d="M817,509.3c-1.6-1-2.8-0.5-2.8,1.1c0.1,1.6,1.4,3.7,3,4.7c1.6,1,2.8,0.5,2.8-1.1
				C819.9,512.3,818.6,510.3,817,509.3z"/>
			<path class="st1" d="M831.6,487.3c-1.2-0.7-2.1-0.5-2,0.6c0.1,1.1,1.2,2.6,2.4,3.4c1.2,0.8,2.1,0.5,2-0.6
				C833.8,489.5,832.8,488.1,831.6,487.3z"/>
			<path class="st1" d="M789.6,439.5c-1.4-0.7-2.5-0.7-2.5,0.2c0,0.9,1.1,2.2,2.5,3c1.4,0.8,2.5,0.6,2.5-0.3
				C792.1,441.5,791,440.3,789.6,439.5z"/>
			<path class="st1" d="M789.5,450.2c-1.5-0.8-2.6-0.6-2.7,0.4c0,1,1.1,2.4,2.6,3.3c1.5,0.8,2.6,0.6,2.6-0.4
				C792.1,452.4,791,451,789.5,450.2z"/>
			<path class="st1" d="M817.5,579.2c-1.7-1.2-3-0.3-3,1.9c0.1,2.3,1.4,5,3.1,6.2c1.7,1.2,3,0.4,2.9-1.9
				C820.5,583.1,819.2,580.4,817.5,579.2z"/>
			<path class="st1" d="M781.6,440.3c-1.5-0.8-2.6-0.7-2.7,0.3c0,0.9,1.1,2.3,2.5,3.1c1.5,0.8,2.6,0.6,2.7-0.3
				C784.1,442.5,783,441.1,781.6,440.3z"/>
			<path class="st1" d="M798.1,481.9c-1.4-0.8-2.5-0.5-2.6,0.7c0,1.2,1.1,2.8,2.6,3.6c1.5,0.8,2.6,0.5,2.6-0.8
				C800.6,484.3,799.5,482.7,798.1,481.9z"/>
			<path class="st1" d="M798,461.3c-1.2-0.6-2.1-0.5-2.1,0.4c0,0.9,1,2.1,2.2,2.8c1.2,0.7,2.1,0.5,2.1-0.4
				C800.1,463.1,799.2,461.9,798,461.3z"/>
			<path class="st1" d="M797.9,517c-1.4-0.8-2.6-0.3-2.6,1.1c0,1.4,1.1,3.2,2.5,4.1c1.5,0.8,2.6,0.3,2.6-1.1
				C800.4,519.6,799.3,517.8,797.9,517z"/>
			<path class="st1" d="M808,545.1c-1.6-1-2.9-0.3-3,1.5c0,1.9,1.3,4.2,3,5.3c1.7,1,2.9,0.3,2.9-1.6
				C811,548.5,809.7,546.2,808,545.1z"/>
			<path class="st1" d="M789.4,456.8c-1.1-0.6-2-0.4-2,0.3c0,0.8,0.8,1.9,1.9,2.5c1.1,0.6,2,0.4,2-0.4
				C791.4,458.4,790.5,457.4,789.4,456.8z"/>
			<path class="st1" d="M807.2,583.9c-1.3-0.8-2.3-0.2-2.4,1.6c0,1.8,1,3.8,2.3,4.7c1.3,0.9,2.3,0.2,2.4-1.6
				C809.5,586.8,808.5,584.8,807.2,583.9z"/>
			<path class="st1" d="M815.7,484.6c-1.4-0.8-2.4-0.5-2.3,0.7c0.1,1.2,1.2,2.8,2.6,3.6c1.4,0.8,2.4,0.5,2.3-0.7
				C818.2,487,817.1,485.4,815.7,484.6z"/>
			<path class="st1" d="M797.9,444.2c-1.3-0.7-2.2-0.6-2.2,0.2c0,0.8,1,2,2.3,2.7c1.3,0.7,2.2,0.6,2.2-0.3
				C800.1,446.1,799.1,444.9,797.9,444.2z"/>
			<path class="st1" d="M847.4,490.9c-1-0.6-1.6-0.4-1.5,0.5c0.2,0.9,1,2.2,2,2.9c1,0.7,1.7,0.4,1.5-0.5
				C849.3,492.8,848.4,491.6,847.4,490.9z"/>
			<path class="st1" d="M826.2,515.3c-1.4-0.9-2.5-0.5-2.4,1c0.1,1.5,1.3,3.4,2.8,4.4c1.5,0.9,2.5,0.5,2.4-1
				C828.8,518.2,827.6,516.3,826.2,515.3z"/>
			<path class="st1" d="M821.7,607.5c-1.2-1-2.1-0.3-2.1,1.6c0.1,2,1,4.3,2.2,5.4c1.2,1,2.1,0.3,2-1.7
				C823.9,610.9,822.9,608.6,821.7,607.5z"/>
			<path class="st1" d="M796.7,563.7c-1.5-0.8-2.6-0.2-2.7,1.6c0,1.8,1,3.8,2.5,4.7c1.5,0.9,2.6,0.2,2.7-1.6
				C799.2,566.6,798.1,564.6,796.7,563.7z"/>
			<path class="st1" d="M816.6,501.2c-1-0.6-1.8-0.3-1.8,0.6c0.1,1,0.9,2.2,1.9,2.9c1,0.6,1.8,0.3,1.8-0.7
				C818.5,503,817.6,501.8,816.6,501.2z"/>
			<path class="st1" d="M797.4,439.1c-1.1-0.6-1.9-0.6-1.9,0.2c0,0.8,0.9,1.7,1.9,2.3c1.1,0.6,1.9,0.6,1.9-0.2
				C799.3,440.6,798.5,439.7,797.4,439.1z"/>
			<path class="st1" d="M805,443.6c-0.9-0.5-1.5-0.5-1.5,0.1c0.1,0.6,0.8,1.4,1.6,1.9c0.9,0.5,1.5,0.5,1.5-0.2
				C806.6,444.9,805.9,444.1,805,443.6z"/>
			<path class="st1" d="M786.1,545.3c-1.3-0.7-2.4-0.2-2.5,1.3c-0.1,1.4,0.9,3.1,2.2,3.8c1.3,0.7,2.4,0.1,2.5-1.3
				C788.3,547.7,787.3,546,786.1,545.3z"/>
			<path class="st1" d="M775.4,527.5c-1.3-0.6-2.3-0.2-2.5,1.1c-0.1,1.3,0.8,2.8,2.1,3.5c1.3,0.7,2.4,0.2,2.5-1.1
				C777.6,529.7,776.6,528.2,775.4,527.5z"/>
			<path class="st1" d="M765.5,510.9c-1.3-0.6-2.3-0.2-2.5,1c-0.1,1.2,0.8,2.6,2,3.3c1.3,0.6,2.4,0.2,2.5-1
				C767.6,513,766.7,511.6,765.5,510.9z"/>
			<path class="st1" d="M804.6,438.8c-0.9-0.5-1.6-0.5-1.6,0.1c0.1,0.7,0.8,1.5,1.7,2c0.9,0.5,1.6,0.5,1.6-0.1
				C806.2,440.1,805.5,439.3,804.6,438.8z"/>
			<path class="st1" d="M810.5,438.9c-0.8-0.4-1.4-0.5-1.4,0.1c0.1,0.6,0.7,1.3,1.5,1.7c0.8,0.4,1.4,0.5,1.4-0.1
				C812,440.1,811.4,439.4,810.5,438.9z"/>
			<path class="st1" d="M835.2,522.3c-0.9-0.6-1.5-0.3-1.5,0.7c0.1,1,0.9,2.3,1.8,2.9c0.9,0.6,1.5,0.3,1.5-0.7
				C836.9,524.2,836.1,522.9,835.2,522.3z"/>
			<path class="st1" d="M826.9,524.6c-1.2-0.7-2-0.4-1.9,0.9c0.1,1.3,1,2.9,2.2,3.7c1.2,0.8,2,0.4,1.9-0.9
				C828.9,526.9,828,525.4,826.9,524.6z"/>
			<path class="st1" d="M817.5,518.7c-1.1-0.7-1.9-0.3-1.8,0.8c0.1,1.1,0.9,2.5,2,3.2c1.1,0.7,1.9,0.3,1.8-0.8
				C819.4,520.8,818.5,519.4,817.5,518.7z"/>
			<path class="st1" d="M807.9,513.1c-1-0.6-1.8-0.3-1.8,0.7c0,1,0.8,2.2,1.8,2.8c1,0.6,1.8,0.3,1.8-0.7
				C809.7,514.9,808.9,513.7,807.9,513.1z"/>
			<path class="st1" d="M798.1,507.4c-1-0.6-1.8-0.3-1.8,0.7c0,1,0.8,2.2,1.8,2.8c1,0.6,1.8,0.3,1.8-0.7
				C799.9,509.2,799.1,508,798.1,507.4z"/>
			<path class="st1" d="M835.7,531.1c-0.9-0.6-1.6-0.3-1.5,0.7c0.1,1.1,0.9,2.4,1.8,3.1c0.9,0.7,1.6,0.3,1.5-0.8
				C837.4,533.1,836.7,531.7,835.7,531.1z"/>
			<path class="st1" d="M845,538.1c-0.8-0.6-1.4-0.3-1.3,0.7c0.1,1,0.8,2.3,1.6,2.9c0.8,0.6,1.4,0.3,1.3-0.7
				C846.5,540,845.8,538.7,845,538.1z"/>
			<path class="st1" d="M797.7,449.6c-1-0.6-1.8-0.5-1.8,0.2c0,0.8,0.8,1.7,1.9,2.3c1,0.6,1.8,0.5,1.8-0.3
				C799.6,451.1,798.8,450.2,797.7,449.6z"/>
			<path class="st1" d="M736.3,474.2c-2.4-1.1-4.6-0.6-5.1,1.3c-0.5,2,1.1,4.4,3.6,5.6c2.5,1.1,4.7,0.5,5.1-1.4
				C740.2,477.8,738.7,475.4,736.3,474.2z"/>
			<path class="st1" d="M725.8,468.3c-3.1-1.4-5.9-0.7-6.7,1.6c-0.7,2.4,1.2,5.4,4.4,6.9c3.2,1.4,6,0.7,6.7-1.7
				C730.7,472.7,728.8,469.8,725.8,468.3z"/>
			<path class="st1" d="M655.7,394.2c1.6,0.6,2.4,1.6,1.9,2.4c-0.6,0.8-2.4,0.9-4,0.4c-1.7-0.6-2.5-1.6-1.9-2.4
				C652.2,393.9,654,393.7,655.7,394.2z"/>
			<path class="st1" d="M667.2,397.8c2,0.8,3,2.1,2.3,3c-0.7,1-2.7,1.1-4.8,0.4c-2-0.8-3-2.1-2.3-3.1
				C663.2,397.3,665.2,397.1,667.2,397.8z"/>
			<path class="st1" d="M662.8,489.4c1.9,0.7,2.7,2.4,2.1,3.9c-0.7,1.5-2.7,2.2-4.6,1.4c-1.9-0.7-2.8-2.5-2.1-4
				C659,489.3,661,488.7,662.8,489.4z"/>
			<path class="st1" d="M679.4,481.1c2.5,1,3.8,3.4,3,5.4c-0.9,2-3.5,2.8-6.1,1.8c-2.6-1.1-3.9-3.5-3-5.5
				C674.2,480.8,676.9,480.1,679.4,481.1z"/>
			<path class="st1" d="M696.1,476.3c2.6,1.2,4.1,3.6,3.4,5.7c-0.8,2.1-3.4,2.9-6.2,1.7c-2.7-1.2-4.2-3.7-3.4-5.8
				C690.7,475.9,693.4,475.2,696.1,476.3z"/>
			<path class="st1" d="M727.2,423.2c2.2,1.1,3.6,3,3.3,4.3c-0.4,1.4-2.5,1.6-4.8,0.5c-2.3-1.1-3.7-3-3.3-4.4
				C722.8,422.3,724.9,422.1,727.2,423.2z"/>
			<path class="st1" d="M674.5,407.3c2.1,0.8,3.2,2.3,2.6,3.4c-0.7,1.1-2.8,1.3-5,0.6c-2.1-0.8-3.3-2.3-2.6-3.4
				C670.2,406.7,672.4,406.5,674.5,407.3z"/>
			<path class="st1" d="M685.2,411.3c2.1,0.9,3.3,2.4,2.7,3.6c-0.7,1.2-2.8,1.4-5,0.5c-2.2-0.9-3.4-2.5-2.7-3.7
				C680.9,410.7,683.1,410.5,685.2,411.3z"/>
			<path class="st1" d="M703,425.8c2.3,1.1,3.7,2.9,3.1,4.4c-0.6,1.4-2.9,1.7-5.3,0.7c-2.4-1.1-3.8-3-3.2-4.4
				C698.4,425,700.7,424.7,703,425.8z"/>
			<path class="st1" d="M695.6,415.4c2.3,1,3.6,2.8,3,4.1c-0.6,1.3-2.9,1.5-5.3,0.6c-2.3-1-3.7-2.8-3-4.1
				C691,414.6,693.3,414.4,695.6,415.4z"/>
			<path class="st1" d="M705.9,419.8c2.4,1.1,3.8,3,3.3,4.5c-0.6,1.4-3,1.7-5.5,0.6c-2.5-1.1-3.9-3.1-3.3-4.5
				C701.1,419,703.5,418.8,705.9,419.8z"/>
			<path class="st1" d="M713.2,430.1c2.5,1.2,4,3.3,3.5,4.9c-0.6,1.6-3,1.9-5.6,0.8c-2.6-1.2-4.1-3.4-3.5-5
				C708.3,429.3,710.7,429,713.2,430.1z"/>
			<path class="st1" d="M711.5,472.1c2.6,1.2,4.1,3.6,3.5,5.7c-0.7,2.1-3.2,2.8-5.9,1.6c-2.7-1.2-4.2-3.7-3.5-5.8
				C706.3,471.6,708.8,471,711.5,472.1z"/>
			<path class="st1" d="M714.1,463.5c2.8,1.3,4.4,3.9,3.9,6c-0.7,2.1-3.4,2.8-6.3,1.5c-2.9-1.3-4.5-4-3.9-6.1
				C708.6,462.9,711.3,462.3,714.1,463.5z"/>
			<path class="st1" d="M716.5,455.4c3,1.4,4.8,4.1,4.2,6.3c-0.7,2.2-3.6,2.8-6.7,1.5c-3.1-1.5-4.9-4.3-4.2-6.5
				C710.6,454.6,713.5,454,716.5,455.4z"/>
			<path class="st1" d="M719,447.8c2.9,1.4,4.7,4,4.1,6c-0.7,2.1-3.4,2.6-6.4,1.2c-3-1.4-4.8-4.1-4.1-6.1
				C713.2,447,716,446.5,719,447.8z"/>
			<path class="st1" d="M721,441.3c2.5,1.2,4.1,3.5,3.6,5.2c-0.6,1.7-3,2.1-5.6,0.9c-2.6-1.3-4.2-3.5-3.6-5.3
				C716.1,440.4,718.5,440.1,721,441.3z"/>
			<path class="st1" d="M723.4,434.6c2.7,1.3,4.4,3.7,4,5.5c-0.6,1.8-3.1,2.2-6,0.8c-2.8-1.4-4.5-3.8-4-5.6
				C718.1,433.7,720.6,433.3,723.4,434.6z"/>
			<path class="st1" d="M725.4,428.6c2.7,1.3,4.3,3.6,3.9,5.3c-0.5,1.7-3,2-5.8,0.7c-2.7-1.3-4.4-3.6-3.9-5.3
				C720.3,427.6,722.8,427.3,725.4,428.6z"/>
			<path class="st1" d="M746.7,427.2c1.8,0.9,3,2.5,2.8,3.5c-0.3,1.1-1.8,1.2-3.6,0.3c-1.8-0.9-3-2.5-2.8-3.6
				C743.3,426.4,744.9,426.3,746.7,427.2z"/>
			<path class="st1" d="M748.1,422.3c1.6,0.9,2.7,2.2,2.6,3.2c-0.2,0.9-1.6,1-3.3,0.2c-1.6-0.9-2.8-2.3-2.6-3.2
				C745,421.6,746.4,421.5,748.1,422.3z"/>
			<path class="st1" d="M749.5,417.8c1.4,0.8,2.3,1.9,2.2,2.7c-0.2,0.8-1.4,0.8-2.8,0.1c-1.4-0.8-2.4-2-2.2-2.8
				C746.8,417.1,748,417.1,749.5,417.8z"/>
			<path class="st1" d="M750.7,413.4c1.3,0.7,2.1,1.6,2,2.4c-0.2,0.8-1.3,0.7-2.5,0.1c-1.3-0.7-2.2-1.7-2-2.5
				C748.4,412.7,749.4,412.8,750.7,413.4z"/>
			<path class="st1" d="M751.9,409.5c1.2,0.6,2,1.5,1.9,2.2c-0.2,0.7-1.2,0.6-2.3,0c-1.2-0.6-2-1.5-1.9-2.2
				C749.7,408.7,750.7,408.8,751.9,409.5z"/>
			<path class="st1" d="M753,405.7c1,0.6,1.8,1.3,1.7,2c-0.1,0.6-1,0.5-2.1,0c-1-0.6-1.8-1.3-1.7-2C751.1,405,752,405.1,753,405.7z"
				/>
			<path class="st1" d="M754,402.5c1,0.5,1.6,1.2,1.5,1.8c-0.1,0.6-0.9,0.4-1.9-0.1c-1-0.5-1.6-1.2-1.5-1.8
				C752.2,401.9,753,402,754,402.5z"/>
			<path class="st1" d="M755,399.3c0.9,0.5,1.4,1.1,1.4,1.6c-0.1,0.5-0.8,0.4-1.7-0.1c-0.9-0.5-1.5-1.1-1.4-1.6
				C753.4,398.7,754.1,398.8,755,399.3z"/>
			<path class="st1" d="M732.8,489.1c-1.9-0.9-3.1-2.8-2.7-4.4c0.4-1.5,2.1-2,4-1.1c1.9,0.9,3,2.8,2.7,4.3
				C736.4,489.5,734.7,490,732.8,489.1z"/>
			<path class="st1" d="M730.7,499.1c-1.8-0.9-2.9-2.7-2.6-4.3c0.4-1.5,2.1-2.1,3.9-1.2c1.8,0.9,2.9,2.7,2.6,4.3
				C734.2,499.3,732.6,499.9,730.7,499.1z"/>
			<path class="st1" d="M728.8,509.7c-1.8-0.8-2.9-2.7-2.5-4.4c0.4-1.6,2.1-2.2,3.9-1.4c1.8,0.8,2.8,2.7,2.5,4.3
				C732.3,509.8,730.6,510.5,728.8,509.7z"/>
			<path class="st1" d="M727,521.1c-1.7-0.8-2.7-2.6-2.3-4.2c0.4-1.6,2-2.2,3.7-1.4c1.6,0.8,2.6,2.5,2.3,4.1
				C730.3,521.2,728.7,521.9,727,521.1z"/>
			<path class="st1" d="M724.7,533.6c-1.6-0.7-2.5-2.5-2.1-4c0.4-1.5,1.9-2.2,3.4-1.5c1.6,0.7,2.5,2.4,2.1,4
				C727.8,533.6,726.3,534.3,724.7,533.6z"/>
			<path class="st1" d="M722.3,547.8c-1.5-0.7-2.3-2.3-1.9-3.9c0.4-1.5,1.8-2.2,3.3-1.6c1.4,0.7,2.3,2.3,1.9,3.8
				C725.2,547.7,723.8,548.4,722.3,547.8z"/>
			<path class="st1" d="M715.8,424.5c2.3,1.1,3.7,3,3.3,4.4c-0.5,1.4-2.7,1.7-5.1,0.6c-2.4-1.1-3.8-3.1-3.3-4.5
				C711.2,423.6,713.5,423.4,715.8,424.5z"/>
			<path class="st1" d="M710.6,436.9c2.1,1,3.3,2.8,2.9,4.1c-0.5,1.4-2.5,1.7-4.7,0.7c-2.1-1-3.4-2.8-2.9-4.2
				C706.4,436.3,708.4,436,710.6,436.9z"/>
			<path class="st1" d="M708.2,443.5c2.4,1.1,3.8,3.2,3.3,4.8c-0.6,1.6-2.9,2-5.4,1c-2.5-1.1-3.9-3.2-3.3-4.9
				C703.4,442.8,705.7,442.5,708.2,443.5z"/>
			<path class="st1" d="M699.3,467.2c2.4,1.1,3.7,3.2,3.1,5.1c-0.7,1.8-3.1,2.4-5.5,1.4c-2.4-1.1-3.8-3.3-3.1-5.2
				C694.5,466.7,696.9,466.2,699.3,467.2z"/>
			<path class="st1" d="M678,401.6c2.2,0.9,3.4,2.5,2.7,3.6c-0.7,1.1-3,1.3-5.3,0.4c-2.3-0.9-3.5-2.5-2.7-3.7
				C673.4,400.8,675.7,400.7,678,401.6z"/>
			<path class="st1" d="M675,492.3c2.3,1,3.5,3.2,2.8,5.2c-0.9,2-3.3,2.8-5.7,1.9c-2.4-1-3.6-3.3-2.7-5.3
				C670.2,492.1,672.7,491.4,675,492.3z"/>
			<path class="st1" d="M658.4,498.9c2.4,0.9,3.5,3.2,2.6,5.2c-1,2-3.6,2.9-6,2c-2.4-0.9-3.5-3.3-2.6-5.3
				C653.4,498.9,656,498.1,658.4,498.9z"/>
			<path class="st1" d="M692.2,486.7c2.5,1.1,3.8,3.4,3.1,5.5c-0.8,2.1-3.3,2.8-5.8,1.8c-2.5-1.1-3.8-3.5-3.1-5.6
				C687.3,486.4,689.8,485.6,692.2,486.7z"/>
			<path class="st1" d="M708.2,482.1c2.3,1.1,3.7,3.3,3.1,5.2c-0.6,1.9-2.9,2.6-5.3,1.6c-2.4-1.1-3.7-3.4-3.1-5.3
				C703.6,481.7,705.9,481.1,708.2,482.1z"/>
			<path class="st1" d="M723,477.6c2.4,1.2,3.9,3.6,3.5,5.5c-0.6,2-2.9,2.7-5.4,1.5c-2.5-1.2-4-3.6-3.4-5.6
				C718.2,477.1,720.6,476.5,723,477.6z"/>
			<path class="st1" d="M702.3,458.8c2.2,1,3.5,3,3,4.6c-0.6,1.6-2.8,2.1-5.1,1.2c-2.3-1-3.5-3-2.9-4.7
				C697.9,458.4,700.1,457.9,702.3,458.8z"/>
			<path class="st1" d="M728.8,418c1.9,1,3.2,2.6,2.9,3.7c-0.4,1.1-2.2,1.3-4.2,0.3c-2-1-3.3-2.6-2.9-3.8
				C725,417.2,726.8,417.1,728.8,418z"/>
			<path class="st1" d="M688.4,406.4c1.8,0.8,2.7,2.1,2.2,3c-0.5,0.9-2.3,1-4.1,0.3c-1.8-0.8-2.8-2.1-2.2-3
				C684.8,405.7,686.6,405.6,688.4,406.4z"/>
			<path class="st1" d="M697.2,439.4c1.9,0.9,3,2.4,2.5,3.7c-0.5,1.2-2.4,1.6-4.4,0.8c-2-0.9-3-2.5-2.5-3.7
				C693.4,438.9,695.3,438.5,697.2,439.4z"/>
			<path class="st1" d="M683.4,471.3c2.4,1,3.7,3.2,3,5.1c-0.8,1.9-3.3,2.6-5.8,1.6c-2.5-1.1-3.8-3.3-3-5.2
				C678.5,470.9,681,470.3,683.4,471.3z"/>
			<path class="st1" d="M705.1,451.4c2.1,1,3.4,2.9,2.9,4.4c-0.6,1.5-2.7,1.9-4.9,1c-2.2-1-3.4-2.9-2.9-4.5
				C700.8,450.9,702.9,450.5,705.1,451.4z"/>
			<path class="st1" d="M682.6,441.7c2.3,0.9,3.5,2.8,2.8,4.2c-0.7,1.5-3,1.9-5.3,1c-2.3-1-3.5-2.8-2.8-4.3
				C678,441.2,680.3,440.8,682.6,441.7z"/>
			<path class="st1" d="M644,506.1c1.7,0.6,2.4,2.2,1.7,3.7c-0.8,1.5-2.7,2.2-4.4,1.6c-1.7-0.6-2.4-2.2-1.7-3.7
				C640.4,506.1,642.3,505.5,644,506.1z"/>
			<path class="st1" d="M692.4,421.5c2,0.9,3.2,2.5,2.7,3.7c-0.6,1.2-2.6,1.5-4.7,0.6c-2.1-0.9-3.2-2.5-2.7-3.7
				C688.3,420.9,690.3,420.6,692.4,421.5z"/>
			<path class="st1" d="M737.9,422.8c1.7,0.9,2.9,2.4,2.6,3.4c-0.3,1-1.9,1.2-3.6,0.3c-1.8-0.9-2.9-2.4-2.6-3.4
				C734.6,422,736.1,421.9,737.9,422.8z"/>
			<path class="st1" d="M712.4,405.5c1.3,0.5,2.2,1.5,2,2.2c-0.2,0.7-1.4,0.9-2.7,0.4c-1.4-0.5-2.2-1.5-2-2.2
				C709.9,405.1,711.1,405,712.4,405.5z"/>
			<path class="st1" d="M698.1,410.4c1.5,0.7,2.4,1.9,2.1,2.7c-0.4,0.8-2,1-3.6,0.3c-1.6-0.7-2.5-1.9-2.1-2.8
				C695,409.9,696.5,409.8,698.1,410.4z"/>
			<path class="st1" d="M693.9,446.9c2,0.9,3.1,2.5,2.6,3.9c-0.6,1.3-2.5,1.7-4.6,0.9c-2-0.9-3.1-2.6-2.6-3.9
				C689.9,446.4,691.9,446.1,693.9,446.9z"/>
			<path class="st1" d="M686.1,435c1.8,0.7,2.7,2.2,2.2,3.3c-0.5,1.1-2.3,1.4-4.1,0.7c-1.8-0.8-2.8-2.2-2.2-3.3
				C682.5,434.6,684.3,434.3,686.1,435z"/>
			<path class="st1" d="M670.8,437.6c2.1,0.8,3.2,2.4,2.5,3.7c-0.7,1.3-2.9,1.7-5,0.9c-2.1-0.8-3.2-2.4-2.5-3.8
				C666.5,437.2,668.7,436.8,670.8,437.6z"/>
			<path class="st1" d="M663.6,403.9c1.7,0.6,2.5,1.7,2,2.5c-0.6,0.8-2.3,1-4,0.5c-1.7-0.6-2.6-1.7-2-2.5
				C660.2,403.5,662,403.3,663.6,403.9z"/>
			<path class="st1" d="M714.7,400.9c1.4,0.6,2.4,1.6,2.2,2.3c-0.2,0.7-1.5,0.9-2.9,0.3c-1.5-0.6-2.4-1.6-2.2-2.3
				C711.9,400.5,713.2,400.4,714.7,400.9z"/>
			<path class="st1" d="M719.7,413.8c1.8,0.9,2.8,2.3,2.5,3.3c-0.4,1-2,1.1-3.8,0.3c-1.8-0.9-2.9-2.3-2.5-3.3
				C716.3,413.1,718,413,719.7,413.8z"/>
			<path class="st1" d="M721.8,408.9c1.5,0.8,2.5,2.1,2.3,2.9c-0.3,0.9-1.7,0.9-3.3,0.1c-1.6-0.8-2.6-2.1-2.3-2.9
				C718.8,408.2,720.3,408.2,721.8,408.9z"/>
			<path class="st1" d="M699.9,433c1.7,0.8,2.6,2.1,2.2,3.2c-0.5,1.1-2.1,1.3-3.8,0.6c-1.7-0.8-2.7-2.1-2.2-3.2
				C696.5,432.5,698.2,432.3,699.9,433z"/>
			<path class="st1" d="M708.1,415.2c1.4,0.6,2.2,1.7,1.9,2.5c-0.3,0.8-1.7,0.9-3.1,0.2c-1.4-0.7-2.2-1.7-1.9-2.5
				C705.4,414.6,706.7,414.5,708.1,415.2z"/>
			<path class="st1" d="M687,463c1.7,0.7,2.6,2.2,2.1,3.5c-0.5,1.3-2.3,1.7-4,1c-1.7-0.7-2.7-2.3-2.1-3.5
				C683.5,462.7,685.3,462.3,687,463z"/>
			<path class="st1" d="M717.4,419.7c1.2,0.6,2,1.6,1.7,2.3c-0.3,0.7-1.4,0.8-2.7,0.2c-1.2-0.6-2-1.6-1.7-2.3
				C715,419.2,716.2,419.1,717.4,419.7z"/>
			<path class="st1" d="M730.2,413.4c1.4,0.7,2.3,1.9,2.1,2.7c-0.2,0.8-1.4,0.8-2.9,0.2c-1.4-0.7-2.3-1.9-2.1-2.7
				C727.5,412.8,728.8,412.7,730.2,413.4z"/>
			<path class="st1" d="M681.5,417.5c1.7,0.7,2.6,2,2.2,2.9c-0.5,1-2.3,1.2-4,0.5c-1.7-0.7-2.7-2-2.2-3
				C678,417,679.7,416.8,681.5,417.5z"/>
			<path class="st1" d="M644.2,390.5c1.4,0.4,2,1.2,1.5,1.9c-0.6,0.6-2.1,0.8-3.5,0.4c-1.4-0.4-2.1-1.2-1.5-1.9
				C641.3,390.2,642.8,390.1,644.2,390.5z"/>
			<path class="st1" d="M658.7,433.4c1.9,0.7,2.9,2.1,2.3,3.3c-0.7,1.2-2.8,1.6-4.8,0.9c-2-0.7-3-2.1-2.3-3.3
				C654.7,433.1,656.7,432.7,658.7,433.4z"/>
			<path class="st1" d="M639.8,516.9c1.6,0.6,2.2,2.1,1.4,3.5c-0.8,1.4-2.6,2.1-4.1,1.6c-1.6-0.6-2.2-2.1-1.4-3.6
				C636.5,517,638.3,516.4,639.8,516.9z"/>
			<path class="st1" d="M627.7,523.2c1.4,0.5,1.9,1.8,1.2,3c-0.7,1.2-2.3,1.8-3.7,1.4c-1.4-0.5-1.9-1.8-1.2-3
				C624.7,523.4,626.3,522.8,627.7,523.2z"/>
			<path class="st1" d="M670.7,503.1c1.8,0.7,2.6,2.5,2,4.1c-0.7,1.6-2.6,2.3-4.4,1.6c-1.8-0.7-2.7-2.5-2-4.1
				C667,503,668.9,502.4,670.7,503.1z"/>
			<path class="st1" d="M654.1,510.2c1.8,0.7,2.6,2.5,2,4.1c-0.7,1.6-2.6,2.3-4.4,1.6c-1.8-0.7-2.7-2.5-2-4.1
				C650.4,510.1,652.3,509.5,654.1,510.2z"/>
			<path class="st1" d="M674.5,431c1.3,0.5,2,1.5,1.6,2.3c-0.4,0.8-1.8,1-3.1,0.5c-1.3-0.5-2-1.5-1.6-2.3
				C671.8,430.7,673.2,430.5,674.5,431z"/>
			<path class="st1" d="M708.7,394.1c1.1,0.5,1.9,1.2,1.7,1.8c-0.2,0.6-1.2,0.6-2.4,0.2c-1.1-0.5-1.9-1.2-1.7-1.8
				C706.6,393.7,707.6,393.7,708.7,394.1z"/>
			<path class="st1" d="M688.3,497.6c1.5,0.6,2.3,2.1,1.8,3.5c-0.5,1.3-2,1.8-3.6,1.2c-1.5-0.7-2.3-2.2-1.8-3.5
				C685.2,497.5,686.8,497,688.3,497.6z"/>
			<path class="st1" d="M704.7,492c1.4,0.6,2.2,2.1,1.9,3.3c-0.4,1.2-1.8,1.7-3.3,1.1c-1.4-0.6-2.2-2.1-1.8-3.3
				C701.8,491.9,703.2,491.4,704.7,492z"/>
			<path class="st1" d="M719.9,488.6c1.3,0.6,2.1,2,1.9,3.1c-0.3,1.1-1.6,1.5-3,0.9c-1.4-0.6-2.2-2-1.9-3.1
				C717.2,488.4,718.5,488,719.9,488.6z"/>
			<path class="st1" d="M645.6,430c1.3,0.4,1.9,1.3,1.5,2.1c-0.5,0.7-1.9,1-3.3,0.6c-1.3-0.4-2-1.3-1.5-2.1
				C642.9,429.9,644.3,429.6,645.6,430z"/>
			<path class="st1" d="M654.2,439.5c1.6,0.6,2.3,1.7,1.8,2.7c-0.6,1-2.3,1.3-3.9,0.8c-1.6-0.6-2.4-1.7-1.8-2.7
				C651,439.3,652.6,439,654.2,439.5z"/>
			<path class="st1" d="M666.6,445c1.4,0.5,2.1,1.6,1.6,2.5c-0.5,0.9-2,1.2-3.4,0.7c-1.4-0.5-2.1-1.6-1.6-2.6
				C663.8,444.8,665.2,444.5,666.6,445z"/>
			<path class="st1" d="M678.8,449.9c1.2,0.5,1.9,1.5,1.5,2.4c-0.4,0.8-1.7,1.1-2.9,0.6c-1.3-0.5-1.9-1.5-1.5-2.4
				C676.3,449.7,677.6,449.4,678.8,449.9z"/>
			<path class="st1" d="M690.4,454.8c1.2,0.5,1.9,1.5,1.5,2.4c-0.4,0.8-1.6,1.1-2.8,0.6c-1.2-0.5-1.9-1.6-1.5-2.4
				C688,454.5,689.2,454.3,690.4,454.8z"/>
			<path class="st1" d="M716.7,397.2c1.1,0.4,1.8,1.1,1.7,1.7c-0.2,0.6-1.1,0.6-2.2,0.2c-1.1-0.4-1.8-1.1-1.7-1.7
				C714.7,396.8,715.6,396.8,716.7,397.2z"/>
			<path class="st1" d="M711,390.5c1,0.4,1.6,1,1.5,1.6c-0.2,0.5-1,0.5-2,0.1c-1-0.4-1.6-1-1.5-1.6C709.2,390.1,710,390.1,711,390.5
				z"/>
			<path class="st1" d="M704.9,384.8c0.9,0.4,1.5,0.9,1.4,1.4c-0.1,0.5-0.9,0.5-1.8,0.2c-0.9-0.4-1.5-0.9-1.4-1.4
				C703.3,384.4,704,384.4,704.9,384.8z"/>
			<path class="st1" d="M723.3,405c1.2,0.6,1.9,1.4,1.7,2.1c-0.2,0.7-1.2,0.6-2.4,0.1c-1.2-0.6-1.9-1.5-1.7-2.2
				C721.2,404.4,722.2,404.4,723.3,405z"/>
			<path class="st1" d="M641.4,435.8c1.3,0.4,2,1.3,1.5,2.2c-0.5,0.8-2,1.1-3.4,0.7c-1.4-0.4-2-1.3-1.5-2.2
				C638.6,435.7,640,435.4,641.4,435.8z"/>
			<path class="st1" d="M629.3,432.5c1.3,0.3,1.8,1.1,1.4,1.9c-0.5,0.7-1.9,1-3.2,0.7c-1.3-0.3-1.9-1.1-1.4-1.9
				C626.7,432.5,628.1,432.2,629.3,432.5z"/>
			<path class="st1" d="M731.4,428.1c-0.4,1.4,0.8,3.2,2.9,4.6c-2.4-0.8-4.5-0.4-5,1.2c-0.4,1.4,0.6,3.1,2.3,4.6
				c-2.1-0.4-3.7,0.1-4.2,1.6c-0.5,1.7,0.9,3.9,3.2,5.5c-2.6-0.8-4.7-0.2-5.3,1.6c-0.4,1.5,0.4,3.3,2.1,4.9c-2.1-0.2-3.7,0.5-4.2,2
				c-0.5,1.8,0.6,3.9,2.6,5.5c-2.4-0.4-4.3,0.4-4.9,2.2c-0.7,2.5,1.4,5.6,4.7,7.2c2.7,1.2,5.2,1,6.5-0.5c0.3,2.2,2.2,4.5,4.9,5.8
				c2.3,1.1,4.4,1,5.7,0.1c0.7,1.9,2.4,3.8,4.6,5c2.3,1.1,4.3,1,5.5,0c0.7,2,2.4,3.9,4.7,5c2.3,1.1,4.3,1,5.5-0.1
				c0.7,2.1,2.5,4.1,4.7,5.3c3.2,1.6,5.7,0.8,6-1.8c0.1-2-1.1-4.3-3.1-6c2.1,0.4,3.6-0.4,3.8-2.3c0.1-1.7-0.9-3.7-2.6-5.3
				c1.8,0.2,3.1-0.5,3.2-2.2c0.1-1.9-1.4-4.3-3.6-5.9c2.3,0.8,4.1,0.2,4.3-1.7c0.1-1.6-1-3.5-2.8-5c1.8,0.4,3.1-0.2,3.3-1.7
				c0.1-1.7-1.4-3.9-3.6-5.4c2,0.7,3.5,0.3,3.7-1.2c0.1-1.7-1.7-3.9-4.1-5.2c-2.1-1.1-3.9-1-4.5,0c-0.3-1.6-1.9-3.4-4-4.5
				c-2-1-3.8-1.1-4.5-0.1c-0.4-1.7-2.1-3.6-4.3-4.8c-2.3-1.2-4.3-1.2-5.2-0.1c-0.3-1.5-1.8-3.2-3.9-4.3c-2.5-1.3-4.7-1.2-5.2,0.4
				l0,0c0.3-1.6-1.4-3.7-4-5C734.2,426.3,731.9,426.5,731.4,428.1z M764.1,475.9c1.2,0.6,2.1,1.9,2,2.9c-0.1,1-1.2,1.3-2.4,0.6
				c-1.2-0.7-2.1-1.9-2-2.9C761.8,475.6,762.9,475.3,764.1,475.9z M754.4,471.2c1.1,0.6,1.9,1.7,1.7,2.5c-0.2,0.9-1.1,1.1-2.2,0.6
				c-1.1-0.6-1.9-1.7-1.7-2.6C752.3,470.9,753.2,470.6,754.4,471.2z M744.5,466.3c1.1,0.6,1.9,1.7,1.7,2.5c-0.2,0.9-1.2,1.1-2.3,0.5
				c-1.1-0.6-1.9-1.7-1.7-2.5C742.4,466,743.4,465.7,744.5,466.3z M735.6,463.6c-0.2,0.9-1.4,1.2-2.7,0.6c-1.3-0.7-2.1-1.9-1.9-2.8
				c0.3-0.9,1.4-1.2,2.7-0.6C735,461.5,735.8,462.7,735.6,463.6z M765.4,469c1.1,0.6,1.8,1.6,1.7,2.5c-0.1,0.8-1,1.1-2.1,0.5
				c-1.1-0.6-1.8-1.7-1.7-2.5C763.4,468.7,764.3,468.5,765.4,469z M735.4,454c1.1,0.6,1.8,1.6,1.7,2.4c-0.2,0.8-1.2,1-2.4,0.5
				c-1.1-0.6-1.8-1.6-1.7-2.4C733.3,453.7,734.3,453.5,735.4,454z M766.2,461.8c1,0.5,1.8,1.6,1.7,2.4c-0.1,0.8-1,1-2,0.4
				c-1.1-0.6-1.8-1.6-1.7-2.4C764.3,461.4,765.2,461.3,766.2,461.8z M737.1,447.1c1.1,0.6,1.8,1.5,1.6,2.3c-0.2,0.7-1.2,0.9-2.3,0.4
				c-1.1-0.6-1.8-1.6-1.6-2.3C735.1,446.7,736,446.6,737.1,447.1z M767,455c1,0.5,1.7,1.5,1.7,2.2c-0.1,0.8-0.9,0.9-2,0.4
				c-1-0.5-1.8-1.5-1.7-2.3C765.1,454.6,766,454.5,767,455z M738.7,440.7c1.1,0.5,1.7,1.4,1.6,2.2c-0.2,0.7-1.1,0.8-2.2,0.3
				c-1.1-0.6-1.8-1.5-1.6-2.2C736.7,440.2,737.7,440.1,738.7,440.7z M767.4,448.1c1.1,0.6,1.9,1.6,1.8,2.4c-0.1,0.8-1,0.9-2.1,0.3
				c-1.1-0.6-1.9-1.6-1.8-2.4C765.4,447.6,766.3,447.5,767.4,448.1z M758.7,443.7c1,0.5,1.7,1.4,1.6,2.1c-0.1,0.7-1,0.8-2,0.3
				c-1-0.5-1.7-1.4-1.6-2.1C756.9,443.2,757.7,443.2,758.7,443.7z M749.9,439.2c1,0.5,1.7,1.4,1.6,2.1c-0.1,0.7-1,0.8-2,0.3
				c-1-0.5-1.7-1.4-1.6-2.1C748,438.7,748.9,438.6,749.9,439.2z M740.3,434.1c1.1,0.6,1.9,1.6,1.7,2.3c-0.2,0.7-1.2,0.9-2.4,0.3
				c-1.1-0.6-1.9-1.6-1.7-2.3C738.2,433.7,739.2,433.6,740.3,434.1z"/>
		</g>
	</g>
	<g>
		<g>
			<rect x="475.1" y="396.1" class="st2" width="17.3" height="100.5"/>
			<path class="st2" d="M480.8,511.3V528c5.6,1,9.6,1.3,13.5,1.3c24.1,0,35.8-11,35.8-33.7v-60.1H512v60.3
				c0,11.4-6.4,18.3-16.4,18.3c-6.4,0-11-1.5-12.7-2.1L480.8,511.3z"/>
			<rect x="541.7" y="406.9" class="st2" width="17.3" height="89.7"/>
			<path class="st2" d="M263.1,489.9c8.5,5.6,15.6,6.7,31.8,6.7h6c-0.2,11.6-6.7,17.3-19.1,17.3c-5.6,0-12.3-0.8-19.6-3.3l-1.2-0.4
				v16.8c8.9,1.5,15.6,2.3,21.8,2.3c23.7,0,35.8-11,36.2-32.7h101.8c28.1,0,42.9-7.3,42.9-33.5c0-16.9-11-34.1-35.6-34.1
				c-20,0-30.8,11-30.8,32v20.8h-15.8c2.3-4.4,3.7-9.8,3.7-16.4c0-14.8-9.4-32-35.6-32h-2.3l33.9-37.3h-21
				c-12.7,14.2-31.8,35-34.1,37.2v15h24.6c7.5,0,16.6,2.9,16.6,16.4c0,12.5-5.6,17.1-20.8,17.1h-28.1V461c0-21-10.8-32-30.8-32
				c-24.6,0-35.8,17.1-35.8,34.1C251.7,475.5,255.8,484.9,263.1,489.9z M414.8,463c0-12.9,4.6-19.1,14.6-19.1s16.4,7.3,16.4,18.7
				c0,13.5-6.2,19.3-20.6,19.3h-10.4V463z M286.2,443.9c10,0,14.4,6.2,14.4,19.1v18.9h-10c-14.6,0-20.8-5.8-20.8-19.3
				C269.8,451.2,276.2,443.9,286.2,443.9z"/>
			<path class="st2" d="M563.2,391.1h-9.6c-4-0.2-5-1-5-4c0-3.5,1.2-4.2,5.4-4.2c2.7,0,4.6,0.6,7.5,2.7v-8.5l-1.3-0.6
				c-2.1-1-4-1.3-6.4-1.3c-8.9,0-13.9,4.2-13.9,12.1c0,1.7,0.4,2.9,0.8,3.9h-3.3v7.7h25.8V391.1z"/>
		</g>
		<g>
			<g>
				<path class="st2" d="M529,557.2c-18.7,0-33.9,15.2-33.9,33.9c0,18.7,15.2,33.9,33.9,33.9c18.7,0,33.7-15.2,33.7-33.9
					C562.7,572.5,547.7,557.2,529,557.2z M529,609.6c-10.3,0-18.5-8.4-18.5-18.5c0-10.1,8.2-18.3,18.5-18.3
					c10.1,0,18.3,8.2,18.3,18.3C547.3,601.2,539.1,609.6,529,609.6z"/>
				<path class="st2" d="M404.9,556.5c-7.4,0-15,1.5-21.1,4c-5-2.9-9.7-4-16.6-4c-8.6,0-17.3,1.1-26.8,4.4l-1.7,0.6v62.3h16.9v-51
					c3.4-1.1,6.1-1.5,9.5-1.5c8.4,0,10.9,2.7,10.9,11.4v41.1h17.1v-42.3c0-3.8-0.2-6.3-0.8-8.6c3.4-1.1,6.1-1.7,9.1-1.7
					c8,0,11.6,3.6,11.6,11.4v41.1H430v-42.5c0-8.4-1.3-13.3-5.1-17.5C420.7,559.2,413.7,556.5,404.9,556.5z"/>
				<path class="st2" d="M472.8,610.3c-11.3,0-17.8-7-17.8-19.2c0-12.5,6.5-19.7,17.9-19.7c2.4,0,4.4,0.2,6.3,0.8c0,0,3.5,1,6.6,3.4
					l7.2-12.3c-3.9-3.3-8.5-4.7-10.1-5.1c-4.4-1.3-10.9-1.5-10.9-1.5c-20.4,0-34,14.1-34,35.1c0,20.2,13,33.2,33.1,33.2
					c0,0,13.5,0.6,22.5-7.8l-8.4-10.8C480.6,609.3,477.4,610.3,472.8,610.3z"/>
				<path class="st2" d="M251.9,557.1c-24.2,0-35.4,10.7-35.4,33.3v33.3h17.3v-32v-1.5c0-11.4,6.5-18.5,16.6-18.5
					c4.2,0,7.4,0.8,9.7,1.3l4-15C257.4,557.1,251.9,557.1,251.9,557.1z"/>
				<path class="st2" d="M328.7,588.5v35.2h-23.2c-16,0-23-1.1-31.4-6.7c-7.2-5-11.2-14.3-11.2-26.5c0-16.8,11-33.7,35.4-33.7
					C318.1,556.9,328.7,567.9,328.7,588.5z M311.8,590.4c0-12.8-5-19-14.9-19c-10.1,0-16.6,7.4-16.6,18.7c0,13.5,6.5,19.4,20.9,19.4
					h10.5V590.4z"/>
				<path class="st2" d="M207.1,588.5v35.2h-23c-16,0-23-1.1-31.4-6.7c-7.2-5-11.2-14.3-11.2-26.5c0-16.8,11-33.7,35.4-33.7
					C196.6,556.9,207.1,567.9,207.1,588.5z M189.6,590.4c0-12.9-4.6-19-14.7-19c-10.1,0-16.6,7.4-16.6,18.7
					c0,13.5,6.5,19.4,20.9,19.4h10.3V590.4z"/>
			</g>
		</g>
	</g>
</g>
</svg>
