<?xml version="1.0" encoding="UTF-8"?>
<svg id="Ebene_1" data-name="Ebene 1" xmlns="http://www.w3.org/2000/svg" xmlns:xlink="http://www.w3.org/1999/xlink" viewBox="0 0 550.26 260.79">
  <defs>
    <style>
      .cls-1 {
        fill: url(#Unbenannter_Verlauf_179-2);
      }

      .cls-2 {
        fill: url(#Unbenannter_Verlauf_179-3);
      }

      .cls-3 {
        fill: url(#Unbenannter_Verlauf_506-2);
      }

      .cls-4 {
        fill: #000f19;
      }

      .cls-5 {
        fill: url(#Unbenannter_Verlauf_506);
      }

      .cls-6 {
        fill: url(#Unbenannter_Verlauf_179);
      }

      .cls-7 {
        fill: url(#Unbenannter_Verlauf_15);
      }

      .cls-8 {
        fill: url(#Unbenannter_Verlauf_14);
      }

      .cls-9 {
        fill: url(#Unbenannter_Verlauf_13);
      }

      .cls-10 {
        fill: url(#Unbenannter_Verlauf_2);
      }

      .cls-11 {
        fill: url(#Unbenannter_Verlauf_3);
      }
    </style>
    <linearGradient id="Unbenannter_Verlauf_179" data-name="Unbenannter Verlauf 179" x1="224.85" y1="62.46" x2="275.95" y2="62.46" gradientUnits="userSpaceOnUse">
      <stop offset="0" stop-color="#5a461e"/>
      <stop offset=".3" stop-color="#604d26"/>
      <stop offset=".78" stop-color="#72613f"/>
      <stop offset=".98" stop-color="#7b6b4b"/>
    </linearGradient>
    <linearGradient id="Unbenannter_Verlauf_506" data-name="Unbenannter Verlauf 506" x1="62.48" y1="158.49" x2="151.78" y2="158.49" gradientUnits="userSpaceOnUse">
      <stop offset="0" stop-color="#000f19"/>
      <stop offset=".46" stop-color="#081721"/>
      <stop offset=".98" stop-color="#192730"/>
    </linearGradient>
    <linearGradient id="Unbenannter_Verlauf_179-2" data-name="Unbenannter Verlauf 179" x1="148.3" y1="85.57" x2="254.23" y2="85.57" xlink:href="#Unbenannter_Verlauf_179"/>
    <linearGradient id="Unbenannter_Verlauf_506-2" data-name="Unbenannter Verlauf 506" x1="20.28" y1="202.76" x2="97.46" y2="202.76" xlink:href="#Unbenannter_Verlauf_506"/>
    <linearGradient id="Unbenannter_Verlauf_179-3" data-name="Unbenannter Verlauf 179" x1="69.33" y1="124.79" x2="219.38" y2="124.79" xlink:href="#Unbenannter_Verlauf_179"/>
    <linearGradient id="Unbenannter_Verlauf_14" data-name="Unbenannter Verlauf 14" x1="291.4" y1="150.34" x2="141.27" y2="45.22" gradientUnits="userSpaceOnUse">
      <stop offset="0" stop-color="#736240"/>
      <stop offset=".08" stop-color="#66532e"/>
      <stop offset=".15" stop-color="#5d4922"/>
      <stop offset=".23" stop-color="#5a461e"/>
      <stop offset=".28" stop-color="#624d22"/>
      <stop offset=".36" stop-color="#7b622d"/>
      <stop offset=".45" stop-color="#9b7d3c"/>
      <stop offset=".45" stop-color="#9b7d3c"/>
      <stop offset=".57" stop-color="#af9763"/>
      <stop offset=".67" stop-color="#bba77c"/>
      <stop offset=".72" stop-color="#c0ae85"/>
      <stop offset=".77" stop-color="#b6a172"/>
      <stop offset=".87" stop-color="#9e8142"/>
      <stop offset=".89" stop-color="#9b7d3c"/>
      <stop offset=".95" stop-color="#856b31"/>
      <stop offset="1" stop-color="#7d642d"/>
    </linearGradient>
    <linearGradient id="Unbenannter_Verlauf_15" data-name="Unbenannter Verlauf 15" x1="305.51" y1="122.05" x2="213.54" y2="33.23" gradientUnits="userSpaceOnUse">
      <stop offset="0" stop-color="#6f5d3a"/>
      <stop offset=".06" stop-color="#66532e"/>
      <stop offset=".16" stop-color="#5d4922"/>
      <stop offset=".25" stop-color="#5a461e"/>
      <stop offset=".3" stop-color="#624d22"/>
      <stop offset=".39" stop-color="#7b622d"/>
      <stop offset=".47" stop-color="#9b7d3c"/>
      <stop offset=".56" stop-color="#a58a50"/>
      <stop offset=".68" stop-color="#b19b69"/>
      <stop offset=".75" stop-color="#b6a172"/>
      <stop offset=".81" stop-color="#ac945f"/>
      <stop offset=".9" stop-color="#9b7d3c"/>
      <stop offset=".95" stop-color="#8b7238"/>
      <stop offset="1" stop-color="#836c37"/>
    </linearGradient>
    <linearGradient id="Unbenannter_Verlauf_3" data-name="Unbenannter Verlauf 3" x1="107.87" y1="280.22" x2="33.62" y2="151.63" gradientUnits="userSpaceOnUse">
      <stop offset=".02" stop-color="#13212a"/>
      <stop offset=".04" stop-color="#101e27"/>
      <stop offset=".14" stop-color="#04121c"/>
      <stop offset=".25" stop-color="#000f19"/>
      <stop offset=".43" stop-color="#122029"/>
      <stop offset=".72" stop-color="#39454d"/>
      <stop offset=".78" stop-color="#2e3a42"/>
      <stop offset=".91" stop-color="#15232c"/>
      <stop offset="1" stop-color="#0d1b24"/>
    </linearGradient>
    <linearGradient id="Unbenannter_Verlauf_2" data-name="Unbenannter Verlauf 2" x1="154.36" y1="268.43" x2="68.34" y2="83.96" gradientUnits="userSpaceOnUse">
      <stop offset="0" stop-color="#192730"/>
      <stop offset=".11" stop-color="#101e27"/>
      <stop offset=".23" stop-color="#000f19"/>
      <stop offset=".36" stop-color="#122029"/>
      <stop offset=".62" stop-color="#424d54"/>
      <stop offset=".68" stop-color="#4c575e"/>
      <stop offset=".89" stop-color="#1f2c34"/>
      <stop offset="1" stop-color="#0d1b24"/>
    </linearGradient>
    <linearGradient id="Unbenannter_Verlauf_13" data-name="Unbenannter Verlauf 13" x1="262.29" y1="179.95" x2="63" y2="82.75" gradientUnits="userSpaceOnUse">
      <stop offset=".02" stop-color="#776645"/>
      <stop offset=".02" stop-color="#756443"/>
      <stop offset=".08" stop-color="#66532e"/>
      <stop offset=".14" stop-color="#5d4922"/>
      <stop offset=".2" stop-color="#5a461e"/>
      <stop offset=".25" stop-color="#624d22"/>
      <stop offset=".34" stop-color="#7b622d"/>
      <stop offset=".42" stop-color="#9b7d3c"/>
      <stop offset=".47" stop-color="#a58a50"/>
      <stop offset=".57" stop-color="#b9a477"/>
      <stop offset=".65" stop-color="#c5b590"/>
      <stop offset=".7" stop-color="#cabb99"/>
      <stop offset=".74" stop-color="#c0ae86"/>
      <stop offset=".83" stop-color="#a88e56"/>
      <stop offset=".88" stop-color="#9b7d3c"/>
      <stop offset=".95" stop-color="#856b31"/>
      <stop offset="1" stop-color="#7d642d"/>
    </linearGradient>
  </defs>
  <g>
    <path class="cls-4" d="m311.62,65.11c0-10.95,6.62-17.47,19.73-17.47,7.01,0,11.81,1.87,13.44,3.22,0,3.07-1.34,6-3.41,7.73-2.64-2.64-6.62-3.98-10.08-3.98-4.8,0-9.6,2.64-9.6,10.18,0,6.58,3.55,10.27,9.75,10.27,2.3,0,4.71-.48,5.62-.96v-4.13h-5.33c-.53-1.87-.58-3.89-.05-5.76h13.2v15.12l-.72.72c-3.84,1.58-8.5,2.54-13.25,2.54-11.38,0-19.3-5.52-19.3-17.47Z"/>
    <path class="cls-4" d="m354.3,81.19v-25.35l-4.8-.19c-.48-2.5-.48-4.9,0-7.34h29.81c.58,2.45.58,4.94,0,7.39h-15.46v6.05h13.92c.48,2.45.48,4.94,0,7.39h-13.92v5.38h16.18c.58,2.45.58,4.94,0,7.39h-25.01l-.72-.72Z"/>
    <path class="cls-4" d="m402.54,70.24h-3.79v11.67c-2.69.34-6.05.53-8.83,0l-.72-.77v-25.3l-4.8-.19c-.48-2.5-.53-4.9,0-7.34h22.08c8.02,0,12.67,4.66,12.67,11.28,0,4.75-2.69,8.54-7.87,10.22,1.49,3.12,3.65,4.99,5.86,4.99,1.73,0,2.54-.24,3.84-.62.48,2.54.53,5.04.05,7.58-1.49.24-2.64.38-4.42.38-9.12,0-12.43-6.58-14.06-11.91Zm2.59-7.49c3.02,0,4.32-1.34,4.32-3.41,0-2.59-1.68-3.65-4.32-3.65h-6.38v7.06h6.38Z"/>
    <path class="cls-4" d="m428.97,81.14v-25.3l-4.8-.19c-.48-2.5-.77-4.8,0-7.34,4.85-.48,9.7-.48,14.5,0l5.04,7.3,4.94,7.49h.19l4.46-7.49,4.66-7.3c3.46-.48,6.87-.48,10.27,0v33.6c-3.26.48-6.53.48-9.79,0v-9.7l.48-10.18-.38-.05-9.41,14.4h-1.63l-9.36-14.11-.34.05.38,9.31v10.27c-2.69.34-5.66.38-8.45,0l-.77-.77Z"/>
    <path class="cls-4" d="m473.21,81.14l12.24-33.03h11.42l1.15.91,11.86,32.16-.29.72c-3.17.43-6.48.43-9.7,0l-2.21-6.77h-13.39l-2.4,6.77c-2.93.43-4.99.38-7.92,0l-.77-.77Zm21.94-13.44l-4.03-11.95h-.34l-3.94,11.95h8.3Z"/>
    <path class="cls-4" d="m515.64,81.14l-.05-25.3-4.8-.19c-.48-2.5-.48-4.9,0-7.34,4.94-.48,9.79-.48,14.74,0l12.39,19.63h.29l-.53-8.45v-11.19c2.69-.34,5.76-.34,8.59,0l.77.77-.38,6.1v26.74c-3.26.48-6.58.48-9.89,0l-12.34-20.31h-.29l.38,8.64v11.67c-2.74.34-5.38.43-8.11,0l-.77-.77Z"/>
    <path class="cls-4" d="m321.49,146.82v-44l-8.35-.33c-.84-4.34-.84-8.52,0-12.77,8.1-.58,15.53-.5,23.71,0l1.25,1.25v57.19c-4.68.58-10.27.75-15.36,0l-1.25-1.34Z"/>
    <path class="cls-4" d="m353.83,146.82l-.08-44-8.35-.33c-.84-4.34-.84-8.52,0-12.77,8.6-.83,17.03-.83,25.63,0l21.54,34.15h.5l-.92-14.7v-19.45c4.68-.58,10.02-.58,14.95,0l1.34,1.34-.67,10.6v46.51c-5.68.83-11.44.83-17.2,0l-21.46-35.32h-.5l.67,15.03v20.29c-4.76.58-9.35.75-14.11,0l-1.34-1.34Z"/>
    <path class="cls-4" d="m423.81,146.82l-.08-44-8.35-.33c-.84-4.34-.84-8.52,0-12.77,8.6-.83,17.03-.83,25.63,0l21.54,34.15h.5l-.92-14.7v-19.45c4.68-.58,10.02-.58,14.95,0l1.34,1.34-.67,10.6v46.51c-5.68.83-11.44.83-17.2,0l-21.46-35.32h-.5l.67,15.03v20.29c-4.76.58-9.35.75-14.11,0l-1.34-1.34Z"/>
    <path class="cls-4" d="m486.39,118.93c0-17.62,11.1-30.39,31.81-30.39s32.06,12.77,32.06,30.39-11.27,30.39-32.06,30.39-31.81-12.69-31.81-30.39Zm46.26.08c0-11.27-4.93-17.37-14.45-17.37s-14.19,6.18-14.19,17.37,4.76,17.2,14.19,17.2,14.45-5.93,14.45-17.2Z"/>
    <path class="cls-4" d="m329.22,194.01l-11.2-29.51-5.38-.28c-.62-2.86-.62-5.66,0-8.51,3.92-.56,10.19-.56,14.11,0l6.38,17.64,3.08,9.3h.5l2.86-9.41,6.27-17.53c3.19-.5,7-.39,10.3,0l.84.9-14.67,38.3c-3.7.5-8.57.45-12.21,0l-.9-.9Z"/>
    <path class="cls-4" d="m354.31,194.01l14.28-38.53h13.33l1.34,1.06,13.83,37.52-.34.84c-3.7.5-7.56.5-11.31,0l-2.58-7.9h-15.62l-2.8,7.9c-3.42.5-5.82.45-9.24,0l-.9-.9Zm25.59-15.68l-4.7-13.94h-.39l-4.59,13.94h9.69Z"/>
    <path class="cls-4" d="m406.68,194.01v-29.68h-11.87c-.56-2.86-.56-5.77,0-8.62h34.94c.67,2.86.67,5.77,0,8.62h-11.93v30.58c-3.13.39-7,.5-10.25,0l-.9-.9Z"/>
    <path class="cls-4" d="m440.34,194.01v-29.51l-5.6-.22c-.56-2.91-.56-5.71,0-8.57,5.43-.39,10.42-.34,15.9,0l.84.84v38.36c-3.14.39-6.89.5-10.3,0l-.84-.9Z"/>
    <path class="cls-4" d="m458.72,175.31c0-11.82,7.45-20.38,21.34-20.38s21.5,8.57,21.5,20.38-7.56,20.38-21.5,20.38-21.34-8.51-21.34-20.38Zm31.02.06c0-7.56-3.3-11.65-9.69-11.65s-9.52,4.14-9.52,11.65,3.19,11.54,9.52,11.54,9.69-3.98,9.69-11.54Z"/>
    <path class="cls-4" d="m510.5,194.01l-.06-29.51-5.6-.22c-.56-2.91-.56-5.71,0-8.57,5.77-.56,11.42-.56,17.19,0l14.45,22.9h.34l-.62-9.86v-13.05c3.14-.39,6.72-.39,10.02,0l.9.9-.45,7.11v31.19c-3.81.56-7.67.56-11.54,0l-14.39-23.69h-.34l.45,10.08v13.61c-3.19.39-6.27.5-9.46,0l-.9-.9Z"/>
    <path class="cls-4" d="m312.67,240.51l14.28-38.53h13.33l1.34,1.06,13.83,37.52-.34.84c-3.7.5-7.56.5-11.31,0l-2.58-7.9h-15.62l-2.8,7.9c-3.42.5-5.82.45-9.24,0l-.9-.9Zm25.59-15.68l-4.7-13.94h-.39l-4.59,13.94h9.69Z"/>
    <path class="cls-4" d="m366.54,240.51l-8.01-29.51-5.6-.28c-.56-2.86-.56-5.66,0-8.51,3.81-.56,11.37-.56,15.18,0l4.42,17.75c.84,3.58,1.51,7.17,2.13,10.75h.5c.62-3.58,1.18-7.22,2.02-10.86l4.03-17.36c4.03-.56,8.12-.56,12.15,0l4.37,17.42c.9,3.58,1.57,7.28,2.3,10.86h.45c.67-3.58,1.18-7.17,2.07-10.81l4.14-17.75c3.7-.56,6.21-.56,9.97,0l.9.9-10.25,38.3c-4.98.56-10.08.56-15.06,0l-2.86-12.26c-.84-3.75-1.57-8.01-2.35-11.76h-.39c-.73,3.58-1.4,8.12-2.24,11.76l-2.97,12.26c-4.48.5-9.52.39-14,0l-.9-.9Z"/>
    <path class="cls-4" d="m416.66,240.51l14.28-38.53h13.33l1.34,1.06,13.83,37.52-.34.84c-3.7.5-7.56.5-11.31,0l-2.58-7.9h-15.62l-2.8,7.9c-3.42.5-5.82.45-9.24,0l-.9-.9Zm25.59-15.68l-4.7-13.94h-.39l-4.59,13.94h9.69Z"/>
    <path class="cls-4" d="m481.81,227.8h-4.42v13.61c-3.14.39-7.06.62-10.3,0l-.84-.9v-29.51l-5.6-.22c-.56-2.91-.62-5.71,0-8.57h25.76c9.35,0,14.78,5.43,14.78,13.16,0,5.54-3.14,9.97-9.18,11.93,1.74,3.64,4.26,5.82,6.83,5.82,2.02,0,2.97-.28,4.48-.73.56,2.97.62,5.88.06,8.85-1.74.28-3.08.45-5.15.45-10.64,0-14.5-7.67-16.41-13.89Zm3.02-8.74c3.53,0,5.04-1.57,5.04-3.98,0-3.02-1.96-4.26-5.04-4.26h-7.45v8.23h7.45Z"/>
    <path class="cls-4" d="m512.95,240.57v-29.62l-5.6-.17c-.56-2.91-.56-5.71,0-8.57h23.46c5.54,0,8.23,1.62,9.74,2.46,6.5,3.75,9.07,10.19,9.13,16.97,0,6.66-2.8,13.78-9.13,17.3-1.68,1.01-4.87,2.46-9.74,2.46h-17.02l-.84-.84Zm15.12-7.78c3.14,0,5.82-.84,7.5-2.74,1.51-1.79,2.3-4.42,2.3-8.46,0-4.37-1.01-6.94-2.91-8.62-1.74-1.51-4.2-2.13-6.89-2.13h-3.98v21.95h3.98Z"/>
  </g>
  <path class="cls-6" d="m275.95,102.63c-9.09-29.87-27.26-55.63-51.1-78.04l1.84-2.29c24.52,23.18,41.8,52.21,49.27,80.34Z"/>
  <path class="cls-5" d="m62.48,86.7l3.23-1.55c14.29,51.16,38.22,114.17,86.06,146.68-10.96-6.33-21.19-15.33-31-26.56-24.27-27.78-44.38-68.69-58.3-118.57Z"/>
  <path class="cls-1" d="m254.23,134.85c-17.03-34.72-57.71-71.5-105.94-96.03l1.6-2.52c48.16,25.02,87.63,62.14,104.34,98.55Z"/>
  <path class="cls-3" d="m22.92,158.83c7.97,16.67,33.36,64.01,74.54,87.86-44.18-24.23-70.54-73.01-77.19-86.45l2.64-1.41Z"/>
  <path class="cls-2" d="m219.38,171.29c-26.1-34.29-84.88-70.42-150.05-89.94l1.16-3.06c66.22,20.67,124.56,58.03,148.88,93Z"/>
  <path class="cls-8" d="m273.28,159.94c-2.37,12.79-7.24,25.19-14.48,36.96,5.86-14.57,6.2-30.57,1-47.7-12.23-40.29-55.41-84.43-109.99-112.78L172.94,0c24.26,13.05,46.15,30.31,63.34,49.94,18.07,20.64,30.41,43.41,35.7,65.85,3.53,14.98,3.97,29.83,1.31,44.14Z"/>
  <path class="cls-7" d="m279.8,148.68c5.18-40.67-15-90.17-53.2-126.28l12.64-15.78c17.96,18.13,31.51,43.48,38.75,70.61,6.64,24.88,7.23,49.34,1.81,71.46Z"/>
  <path class="cls-11" d="m141.61,260.74c-1.19.03-2.38.05-3.56.05-26.36,0-53.27-8.36-77.82-24.18C35.21,220.49,14.12,197.96,0,171.04l20.38-10.85c8.64,17.48,50.98,94.28,121.23,100.55Z"/>
  <path class="cls-10" d="m210.37,242.05c-18.12,9.76-36.38,14.7-54.34,14.7-29.07,0-57.16-13.25-81.24-38.32-24.43-25.44-44.86-63.23-59.08-109.32l47.13-22.59c13.92,49.88,34.09,90.9,58.36,118.68,22.43,25.68,47.27,39.25,71.83,39.25,5.89,0,11.7-.81,17.34-2.41Z"/>
  <path class="cls-9" d="m223.66,233.76c8.71-9.47,11.79-20.88,9.14-34-8.73-43.23-78.48-95.3-162.38-121.26l19.43-50.79c43.17,13.92,83.96,34.87,114.26,60.86,30.4,26.07,48.91,54.75,52.11,80.75,3.11,25.22-8.13,47.39-32.55,64.44Z"/>
</svg>