<svg width="54" height="40" viewBox="0 0 54 40" fill="none" xmlns="http://www.w3.org/2000/svg">
<path d="M1.4511 33.5418C1.90851 33.5418 2.2634 33.4156 2.52365 33.1553C2.76813 32.903 2.9022 32.5796 2.91009 32.1774C3.09148 32.3667 3.29652 32.4692 3.53312 32.4692C3.84069 32.4692 4.04573 32.3352 4.14037 32.067C4.32176 32.3352 4.55835 32.4692 4.85015 32.4692C5.06308 32.4692 5.2287 32.3982 5.347 32.2642C5.46529 32.3982 5.63879 32.4692 5.85961 32.4692H11.5694C11.9795 32.4692 12.2319 32.2169 12.2319 31.791V30.3872L11.8375 30.4818L11.9243 31.0891V31.7042C11.9243 32.0591 11.7666 32.2326 11.4353 32.2326H11.041V32.2247H6.04889V32.2326H5.97791C5.65457 32.2326 5.49684 32.0591 5.49684 31.72V30.3872L5.10252 30.4818L5.18927 31.097V31.6964C5.18927 32.0434 5.03154 32.2169 4.72397 32.2169C4.53469 32.2169 4.35331 32.1222 4.17192 31.9251V30.6001L3.87223 30.6711V31.6964C3.87223 32.0434 3.7145 32.2169 3.39905 32.2169C3.24132 32.2169 3.0757 32.138 2.91009 31.9724V30.5923L2.60252 30.6632V32.0276C2.59463 32.4377 2.49211 32.7689 2.27917 33.0213C2.07413 33.2736 1.82176 33.3998 1.52207 33.3998C1.1593 33.3998 0.875387 33.2658 0.678226 33.0055C0.488951 32.7453 0.386428 32.4061 0.386428 31.9724V31.1364H0.0788574V31.9882C0.0867439 33.0292 0.544157 33.5418 1.4511 33.5418Z" fill="black"/>
<path d="M11.7034 29.7247C11.8533 29.7247 11.9321 29.6537 11.9321 29.5196C11.9321 29.4014 11.8296 29.2988 11.7034 29.2988C11.5536 29.2988 11.4747 29.3698 11.4747 29.5118C11.4826 29.6537 11.5536 29.7247 11.7034 29.7247Z" fill="black"/>
<path d="M14.4795 31.4204C14.4716 31.0892 14.3849 30.8289 14.2114 30.6239C14.0379 30.4188 13.8092 30.3163 13.5332 30.3163L13.5016 30.6002C13.5647 30.5687 13.6436 30.545 13.7145 30.545C13.9827 30.545 14.1719 30.8526 14.1719 31.3258V32.1223L14.1641 32.2169H12.7997L12.7445 32.4535H14.5426L14.4874 32.1223" fill="black"/>
<path d="M15.4969 29.7247C15.6467 29.7247 15.7256 29.6537 15.7256 29.5196C15.7256 29.4014 15.6231 29.2988 15.4969 29.2988C15.3471 29.2988 15.2682 29.3698 15.2682 29.5118C15.2682 29.6537 15.3471 29.7247 15.4969 29.7247Z" fill="black"/>
<path d="M22.6893 33.3368C22.6893 33.2185 22.5868 33.116 22.4606 33.116C22.3108 33.116 22.2319 33.1869 22.2319 33.3368C22.2319 33.4787 22.3108 33.5497 22.4606 33.5497C22.6105 33.5497 22.6893 33.4787 22.6893 33.3368Z" fill="black"/>
<path d="M22.6578 31.0812V31.6963C22.6578 32.0512 22.5 32.2247 22.1767 32.2247H21.7903V32.2168H16.2619V32.2247H16.1357C15.8123 32.2247 15.6546 32.0512 15.6546 31.6963V30.3793L15.2603 30.4739L15.3392 31.0891V32.4376C15.3392 32.619 15.2918 32.7846 15.1972 32.9502C15.0631 33.1632 14.866 33.313 14.6057 33.4077L14.6846 33.5417C15.2997 33.384 15.6152 32.9976 15.6546 32.3824C15.7492 32.4376 15.8675 32.4613 16.0016 32.4613H22.3029C22.713 32.4613 22.9653 32.2089 22.9653 31.7831V30.3793L22.571 30.4739" fill="black"/>
<path d="M22.011 33.3368C22.011 33.2185 21.9085 33.116 21.7823 33.116C21.6325 33.116 21.5536 33.1869 21.5536 33.3368C21.5536 33.4787 21.6325 33.5497 21.7823 33.5497C21.9321 33.5497 22.011 33.4787 22.011 33.3368Z" fill="black"/>
<path d="M24.0931 32.272V30.3793L23.6988 30.4739L23.7856 31.0891V32.4376C23.7856 32.619 23.7382 32.7846 23.6436 32.9502C23.5095 33.1632 23.3124 33.313 23.0521 33.4077L23.1389 33.5417C23.7698 33.3682 24.0931 32.9503 24.0931 32.272Z" fill="black"/>
<path d="M26.2382 29.5906C26.388 29.5906 26.4669 29.5196 26.4669 29.3776C26.4669 29.2436 26.3644 29.1489 26.2382 29.1489C26.0805 29.1489 26.0016 29.2199 26.0016 29.3619C26.0016 29.5196 26.0805 29.5906 26.2382 29.5906Z" fill="black"/>
<path d="M26.9165 29.5906C27.0663 29.5906 27.1373 29.5196 27.1373 29.3776C27.1373 29.2436 27.0347 29.1489 26.9165 29.1489C26.7666 29.1489 26.6877 29.2199 26.6877 29.3619C26.6877 29.5196 26.7666 29.5906 26.9165 29.5906Z" fill="black"/>
<path d="M28.4542 32.4613H31.6561C32.0662 32.4613 32.3186 32.2089 32.3186 31.783V30.3792L31.9243 30.4739L32.011 31.0811V31.6963C32.011 32.0512 31.8533 32.2247 31.5299 32.2247H31.1435V32.2168H27.7602V32.2247H27.6813C27.358 32.2247 27.2003 32.0512 27.2003 31.6963V29.9928C27.0899 30.0165 26.9558 30.048 26.7902 30.0874L26.8138 30.3556H26.5378C26.2066 30.3556 25.9384 30.4502 25.7334 30.6395C25.5362 30.8288 25.4337 31.0811 25.4337 31.3966C25.4337 31.996 25.7413 32.3508 26.2145 32.3508C26.5063 32.343 26.7429 32.2799 26.9085 32.1616C26.9479 32.2325 27.011 32.2956 27.1056 32.3508C27.2318 32.4218 27.3817 32.4613 27.5394 32.4613H28.4542ZM26.3328 32.0985C25.9463 32.0985 25.7571 31.8303 25.7492 31.3098C25.7492 31.0811 25.8202 30.8997 25.97 30.742C26.1198 30.5922 26.2933 30.5133 26.4984 30.5133C26.593 30.5054 26.7034 30.5054 26.8454 30.5054L26.869 32.0038C26.6719 32.0669 26.4905 32.0985 26.3328 32.0985Z" fill="black"/>
<path d="M31.1199 33.116C30.9701 33.116 30.8912 33.1869 30.8912 33.3368C30.8912 33.4787 30.9701 33.5497 31.1199 33.5497C31.2777 33.5497 31.3486 33.4709 31.3486 33.3368C31.3565 33.2106 31.254 33.116 31.1199 33.116Z" fill="black"/>
<path d="M31.806 33.5497C31.9558 33.5497 32.0347 33.4787 32.0347 33.3368C32.0347 33.2185 31.9322 33.116 31.806 33.116C31.6561 33.116 31.5773 33.1869 31.5773 33.3368C31.5773 33.4787 31.6561 33.5497 31.806 33.5497Z" fill="black"/>
<path d="M39.4244 31.1364C39.03 30.5607 38.6515 30.2689 38.2966 30.2689C37.9023 30.2689 37.5868 30.6159 37.5474 31.1916L37.8392 31.1522C37.7998 31.0497 37.784 30.9472 37.784 30.8683C37.784 30.6159 37.9338 30.474 38.1231 30.474C38.3912 30.474 38.683 30.7106 39.0143 31.1759C39.2824 31.5544 39.4638 31.9093 39.5584 32.2326L37.4449 32.2405V32.2326H35.1341V32.2405H34.5663V31.4361C34.5584 31.1049 34.4717 30.8446 34.2982 30.6396C34.1247 30.4345 33.896 30.332 33.6199 30.332L33.5884 30.6159C33.6515 30.5844 33.7304 30.5607 33.8013 30.5607C34.0695 30.5607 34.2587 30.8683 34.2587 31.3415V32.138L34.2509 32.2326H32.8865L32.8313 32.4692H40.0237C39.9764 32.0907 39.7871 31.649 39.4244 31.1364Z" fill="black"/>
<path d="M38.407 33.3289C38.407 33.4709 38.4858 33.5418 38.6357 33.5418C38.7855 33.5418 38.8565 33.4709 38.8565 33.3368C38.8565 33.2106 38.754 33.116 38.6357 33.116C38.4858 33.116 38.407 33.1869 38.407 33.3289Z" fill="black"/>
<path d="M52.7681 31.7831V29.291L52.3817 29.3857L52.4684 29.9929V31.6964C52.4684 32.0513 52.3107 32.2248 51.9795 32.2248H51.4274V32.2169H50.7255V32.2248H50.5441C50.2208 32.2248 50.0631 32.0434 50.0631 31.6964V31.1601L50.1104 30.6869C49.9211 30.6238 49.7082 30.5923 49.4795 30.5923C48.7618 30.5923 48.3123 31.0418 48.2886 31.791C48.2807 32.0828 48.123 32.2327 47.8233 32.2327H47.6892V32.2248H41.6246V32.2327H41.4432C41.1277 32.2327 40.97 32.0513 40.97 31.7043V29.3068L40.5757 29.3935L40.6624 29.9771V31.791C40.6624 32.2405 40.8833 32.4693 41.3249 32.4693H47.9653C48.1388 32.4693 48.2728 32.4219 48.3911 32.3273C48.5252 32.627 48.746 32.7689 49.0378 32.7689C49.3691 32.7689 49.7161 32.556 49.9132 32.2484C50.071 32.3904 50.2366 32.4614 50.4337 32.4614H52.1135C52.5158 32.4614 52.7681 32.209 52.7681 31.7831ZM49.7555 32.209C49.582 32.4062 49.3848 32.5166 49.1482 32.5166C48.817 32.5166 48.6041 32.1853 48.6041 31.6964C48.6041 31.4204 48.6593 31.2074 48.7776 31.0497C48.9038 30.8604 49.1009 30.7658 49.3533 30.7658C49.4479 30.7658 49.5662 30.7816 49.6924 30.821L49.7476 31.1916" fill="black"/>
<path d="M53.3991 32.4614H53.7067V29.8746L53.754 29.291L53.3281 29.3304L53.3991 29.8746" fill="black"/>
<path d="M2.83912 38.3052C2.77603 38.179 2.74448 38.108 2.74448 38.0922L1.5694 35.1821H1.50631L0.315457 38.1947C0.260252 38.3288 0.212933 38.4156 0.165614 38.4471C0.118296 38.4787 0.0630915 38.4944 0 38.4944V38.526H0.488959V38.4944C0.417981 38.4944 0.378548 38.4708 0.378548 38.4235C0.378548 38.3998 0.394322 38.3446 0.433754 38.2578L0.930598 37.0118H1.90063L2.37382 38.1869C2.37382 38.1869 2.37382 38.1947 2.3817 38.2105C2.38959 38.2263 2.38959 38.2342 2.39748 38.2421C2.42902 38.3288 2.45268 38.384 2.45268 38.4235C2.45268 38.4787 2.41325 38.5102 2.35016 38.5102V38.5418H3.12303V38.5102C2.99684 38.4944 2.90221 38.4313 2.83912 38.3052ZM0.970031 36.9171L1.41956 35.7894L1.86909 36.9171" fill="black"/>
<path d="M5.36281 38.2737C5.27606 38.3683 5.1341 38.4156 4.93694 38.4156H4.52684C4.29814 38.4156 4.13252 38.3762 4.03789 38.2894C3.94325 38.2106 3.89593 38.0686 3.89593 37.8714V35.5528C3.89593 35.4503 3.90382 35.3872 3.9117 35.3636C3.91959 35.332 3.94325 35.3084 3.97479 35.2926C4.00634 35.2689 4.06154 35.261 4.1483 35.261V35.2295H3.26501V35.261C3.38331 35.261 3.45429 35.2847 3.47795 35.332C3.50161 35.3714 3.51738 35.4424 3.51738 35.5371V38.2342C3.51738 38.3289 3.50161 38.392 3.47006 38.4314C3.43852 38.4708 3.37543 38.4866 3.2729 38.4866V38.5181H5.54419V37.7216H5.51265C5.49688 38.0055 5.44956 38.179 5.36281 38.2737Z" fill="black"/>
<path d="M9.58991 38.1948L9.24291 35.6948C9.23502 35.6317 9.22714 35.5765 9.22714 35.5371C9.22714 35.3636 9.31388 35.2689 9.48739 35.261V35.2295H8.96688L7.79969 37.9266L6.64038 35.2295H6.02524V35.261C6.08045 35.261 6.14354 35.2768 6.20663 35.3084C6.26972 35.3399 6.33281 35.4267 6.38802 35.5765L6.00947 38.2421C6.00158 38.2894 5.9937 38.3367 5.97792 38.3762C5.97004 38.4156 5.94638 38.4472 5.9306 38.4629C5.90695 38.4787 5.85963 38.4945 5.78076 38.4945V38.526H6.28549V38.4945C6.18297 38.4945 6.13565 38.4472 6.13565 38.3683C6.13565 38.321 6.13565 38.2815 6.14354 38.2421L6.48266 35.8052L7.67351 38.5339H7.69717L8.88013 35.8052L9.21925 38.2263C9.22713 38.2894 9.23502 38.3367 9.23502 38.3604C9.23502 38.455 9.1877 38.5024 9.08518 38.5024V38.5339H9.8265V38.5024C9.74764 38.4945 9.69243 38.4708 9.66089 38.4393C9.63723 38.3998 9.60568 38.321 9.58991 38.1948Z" fill="black"/>
<path d="M12.2713 38.4944V38.526H13.0442V38.4944C12.918 38.4944 12.8313 38.4313 12.7682 38.3052C12.7051 38.179 12.6736 38.108 12.6736 38.0922L11.4985 35.1821H11.4354L10.2445 38.1947C10.1893 38.3288 10.142 38.4156 10.0947 38.4471C10.0474 38.4787 9.99217 38.4944 9.92908 38.4944V38.526H10.418V38.4944C10.3471 38.4944 10.3076 38.4708 10.3076 38.4235C10.3076 38.3998 10.3234 38.3446 10.3628 38.2578L10.8597 37.0118H11.8297L12.3029 38.1869C12.3029 38.1869 12.3029 38.1947 12.3108 38.2105C12.3108 38.2263 12.3187 38.2342 12.3266 38.2421C12.3581 38.3288 12.3739 38.384 12.3739 38.4235C12.3739 38.4708 12.3423 38.4944 12.2713 38.4944ZM10.8912 36.9171L11.3407 35.7894L11.7903 36.9171" fill="black"/>
<path d="M13.2965 35.261C13.399 35.261 13.4621 35.2768 13.5016 35.3162C13.5331 35.3477 13.5568 35.4345 13.5568 35.5686V38.6048C13.5568 38.9518 13.5016 39.1884 13.4069 39.3304C13.3044 39.4723 13.1545 39.5433 12.9653 39.5433C12.8864 39.5433 12.8233 39.5354 12.7839 39.5197L12.776 39.5591C12.918 39.6064 13.052 39.6301 13.1782 39.6301C13.3123 39.6301 13.4385 39.5985 13.541 39.5433C13.6435 39.4802 13.7303 39.4014 13.7934 39.3067C13.8564 39.2042 13.8959 39.0938 13.9116 38.9597C13.9274 38.8257 13.9432 38.6285 13.9432 38.3604V35.5528C13.9432 35.4503 13.959 35.3714 13.9826 35.3241C14.0063 35.2768 14.0773 35.2531 14.1956 35.2531V35.2216H13.3044" fill="black"/>
<path d="M17.5947 35.608C17.429 35.4819 17.2319 35.3793 17.0111 35.3241C16.7902 35.261 16.4827 35.2295 16.0962 35.2295H14.582V35.261C14.6767 35.261 14.7398 35.2768 14.7713 35.3162C14.8029 35.3557 14.8186 35.4582 14.8186 35.6396V38.0449C14.8186 38.2184 14.8029 38.3367 14.7792 38.3998C14.7555 38.4629 14.7003 38.4945 14.6215 38.4945H14.582V38.526H16.1357C16.5379 38.526 16.8376 38.4945 17.0268 38.4314C17.2161 38.3683 17.3975 38.25 17.571 38.0844C17.7445 37.9188 17.8786 37.7137 17.9811 37.485C18.0836 37.2484 18.1309 37.0197 18.1309 36.7752C18.1309 36.5229 18.0836 36.302 17.989 36.097C17.8864 35.8998 17.7603 35.7342 17.5947 35.608ZM17.3896 37.9661C17.1372 38.2815 16.7035 38.4393 16.0883 38.4393C15.8675 38.4393 15.6861 38.4235 15.5599 38.3841C15.4259 38.3525 15.3312 38.2894 15.276 38.2184C15.2208 38.1396 15.1972 38.0213 15.1972 37.8557V35.2926H15.7019C16.388 35.2926 16.9085 35.4503 17.2476 35.7737C17.5946 36.097 17.7603 36.4755 17.7603 36.9172C17.7682 37.3036 17.642 37.6506 17.3896 37.9661Z" fill="black"/>
<path d="M18.5095 35.261C18.612 35.2531 18.683 35.2768 18.7146 35.3241C18.7461 35.3714 18.7619 35.4739 18.7619 35.6317V38.1395C18.7619 38.2894 18.7461 38.384 18.7225 38.4313C18.6988 38.4708 18.6278 38.4944 18.5174 38.4944V38.526H19.4007V38.4944C19.3139 38.4944 19.2587 38.4865 19.2272 38.4629C19.1956 38.4392 19.172 38.4156 19.1641 38.384C19.1562 38.3525 19.1483 38.2736 19.1483 38.1317V35.6001C19.1483 35.4739 19.1562 35.3872 19.1641 35.3556C19.172 35.3241 19.2035 35.2925 19.2587 35.2768C19.3139 35.261 19.3613 35.2531 19.4007 35.2531V35.2216H18.5174" fill="black"/>
<path d="M22.4763 38.3052C22.4132 38.179 22.3817 38.108 22.3817 38.0922L21.2066 35.1821H21.1514L19.9527 38.1947C19.8975 38.3288 19.8501 38.4156 19.8028 38.4471C19.7555 38.4787 19.7003 38.4944 19.6372 38.4944V38.526H20.1262V38.4944C20.0552 38.4944 20.0158 38.4708 20.0158 38.4235C20.0158 38.3998 20.0315 38.3446 20.0631 38.2578L20.5599 37.0118H21.53L22.0031 38.1869C22.0031 38.1869 22.0031 38.1947 22.011 38.2105C22.0189 38.2263 22.0189 38.2342 22.0268 38.2421C22.0583 38.3288 22.082 38.384 22.082 38.4235C22.082 38.4787 22.0426 38.5102 21.9795 38.5102V38.5418H22.7523V38.5102C22.6262 38.4944 22.5394 38.4313 22.4763 38.3052ZM20.6072 36.9171L21.0568 35.7894L21.4984 36.9171" fill="black"/>
<path d="M25.2208 35.261C25.3233 35.261 25.3943 35.2847 25.418 35.332C25.4416 35.3793 25.4495 35.474 25.4495 35.608V36.791H23.6356V35.4976C23.6356 35.403 23.6514 35.3478 23.683 35.3162C23.7145 35.2847 23.7776 35.2689 23.8722 35.261V35.2295H23.0205V35.261C23.123 35.2689 23.194 35.2847 23.2177 35.332C23.2413 35.3714 23.2571 35.4661 23.2571 35.6159V38.2737C23.2571 38.4314 23.1782 38.5102 23.0205 38.5024V38.5339H23.8722V38.5024C23.7934 38.5024 23.7382 38.4945 23.7145 38.4708C23.683 38.4472 23.6593 38.4235 23.6514 38.3841C23.6435 38.3525 23.6356 38.2737 23.6356 38.1554V36.8856H25.4495V38.1396C25.4495 38.3052 25.4338 38.3998 25.4022 38.4393C25.3707 38.4787 25.3076 38.4945 25.2208 38.4945V38.526H26.0647V38.4945C25.9937 38.4945 25.9385 38.4866 25.9148 38.4629C25.8833 38.4393 25.8675 38.4156 25.8517 38.3841C25.8439 38.3525 25.836 38.2737 25.836 38.1396V35.608C25.836 35.474 25.8439 35.3872 25.8517 35.3557C25.8596 35.3241 25.8833 35.3005 25.9148 35.2847C25.9464 35.2689 25.9937 35.261 26.0647 35.261V35.2295H25.2208" fill="black"/>
<path d="M30.9385 38.4235C30.8281 38.4235 30.7098 38.3919 30.5915 38.321C30.4732 38.2579 30.2997 38.0686 30.0868 37.7689C29.866 37.4692 29.7319 37.2721 29.6846 37.1774L29.448 36.8225C29.6294 36.72 29.7714 36.586 29.8739 36.4361C29.9764 36.2863 30.0237 36.1285 30.0237 35.955C30.0237 35.8052 29.9922 35.6869 29.937 35.5844C29.8818 35.4819 29.795 35.403 29.6846 35.3478C29.5742 35.2926 29.4638 35.2531 29.3613 35.2453C29.2587 35.2374 29.0852 35.2295 28.8486 35.2295H27.9102V35.261C28.0206 35.261 28.0915 35.2926 28.1152 35.3478C28.1389 35.403 28.1467 35.474 28.1467 35.5607V38.1869C28.1467 38.3131 28.131 38.392 28.1073 38.4314C28.0837 38.4708 28.0127 38.4945 27.9102 38.5024V38.5339H28.7619V38.5024C28.6594 38.5024 28.5963 38.4787 28.5726 38.4393C28.5411 38.3919 28.5332 38.321 28.5332 38.2184V36.9566H28.8013L29.0931 36.9487L29.4244 37.4614V37.4692C29.7635 37.974 30.0079 38.2894 30.142 38.3998C30.284 38.5102 30.4417 38.5655 30.6389 38.5655C30.9228 38.5655 31.1594 38.4945 31.3329 38.3446L31.3171 38.2973C31.1751 38.3841 31.049 38.4235 30.9385 38.4235ZM28.8723 36.8699H28.5253V35.3241H28.7934C29.1247 35.3241 29.3455 35.4109 29.4796 35.6002C29.6136 35.7815 29.6767 35.9708 29.6767 36.1759C29.6767 36.3888 29.6136 36.5544 29.4796 36.6806C29.3455 36.7989 29.1404 36.8699 28.8723 36.8699Z" fill="black"/>
<path d="M33.7539 38.3288C33.7145 38.3683 33.6751 38.3919 33.6199 38.4077C33.5647 38.4156 33.4464 38.4235 33.265 38.4235H32.6814C32.5552 38.4235 32.4605 38.4156 32.3975 38.3998C32.3344 38.384 32.287 38.3367 32.2634 38.2736C32.2318 38.2027 32.224 38.0922 32.224 37.9424V36.9251H33.2571C33.3359 36.9251 33.3833 36.9329 33.4069 36.9487C33.4385 36.9645 33.4542 36.996 33.4621 37.0355H33.4937V36.7279H33.47C33.47 36.7673 33.4542 36.791 33.4306 36.8068C33.4069 36.8225 33.3438 36.8383 33.2413 36.8383H32.2318V35.3557H33.3202C33.4385 35.3557 33.5173 35.3714 33.5489 35.403C33.5804 35.4345 33.6199 35.537 33.6593 35.7027H33.6908V35.2452H31.6167V35.2847C31.7271 35.2847 31.7981 35.3083 31.8217 35.3557C31.8454 35.403 31.8533 35.4897 31.8533 35.608V38.2736C31.8533 38.3762 31.8375 38.4392 31.7902 38.4629C31.7508 38.4866 31.6956 38.5023 31.6167 38.5102V38.5418H33.8722V38.0922H33.8407C33.817 38.2027 33.7934 38.2894 33.7539 38.3288Z" fill="black"/>
<path d="M35.56 36.7752C35.4338 36.72 35.2051 36.6333 34.866 36.515C34.6688 36.4361 34.5426 36.3494 34.4795 36.2626C34.4164 36.1759 34.3849 36.0655 34.3849 35.9472C34.3849 35.7658 34.448 35.608 34.582 35.4819C34.7161 35.3557 34.8896 35.2847 35.1183 35.2847C35.2524 35.2847 35.3707 35.3084 35.4811 35.3557C35.5915 35.403 35.6861 35.4661 35.765 35.5528C35.8439 35.6396 35.8912 35.6869 35.8912 35.6869H35.9149L35.7571 35.2768C35.7492 35.2768 35.7492 35.2768 35.7414 35.2768C35.7256 35.2689 35.6546 35.2532 35.5284 35.2295C35.4022 35.2058 35.2839 35.1901 35.1735 35.1901C34.8896 35.1901 34.6609 35.2768 34.4795 35.4503C34.306 35.6238 34.2193 35.8367 34.2193 36.0891C34.2193 36.2311 34.2508 36.3651 34.3218 36.4992C34.3928 36.6333 34.4795 36.7358 34.582 36.7989C34.6846 36.8699 34.8581 36.9408 35.1104 37.0355C35.3628 37.1222 35.5363 37.1932 35.6309 37.2563C35.7256 37.3194 35.7887 37.3904 35.8439 37.4692C35.8912 37.5481 35.9227 37.6427 35.9227 37.761C35.9227 37.9503 35.8518 38.108 35.7019 38.2421C35.5521 38.3762 35.347 38.4393 35.0631 38.4393C34.7556 38.4393 34.5268 38.3762 34.377 38.25C34.2272 38.1238 34.1562 37.903 34.1562 37.5875H34.1246V38.5497H35.0079C35.0552 38.5497 35.1499 38.5418 35.2918 38.526C35.4338 38.5103 35.5442 38.4866 35.6073 38.455C35.6783 38.4235 35.7414 38.3762 35.8044 38.3131C35.8675 38.25 35.9227 38.179 35.9701 38.108C36.0174 38.0292 36.0489 37.9582 36.0726 37.8715C36.0962 37.7926 36.1041 37.7058 36.1041 37.6112C36.1041 37.3983 36.0489 37.2248 35.9306 37.0828C35.8044 36.933 35.6861 36.8304 35.56 36.7752Z" fill="black"/>
<path d="M36.4275 35.261C36.53 35.2531 36.601 35.2768 36.6325 35.3241C36.6641 35.3714 36.6799 35.4739 36.6799 35.6317V38.1395C36.6799 38.2894 36.6641 38.384 36.6404 38.4313C36.6168 38.4708 36.5458 38.4944 36.4354 38.4944V38.526H37.3187V38.4944C37.2319 38.4944 37.1767 38.4865 37.1452 38.4629C37.1136 38.4392 37.0899 38.4156 37.0821 38.384C37.0742 38.3525 37.0663 38.2736 37.0663 38.1317V35.6001C37.0663 35.4739 37.0742 35.3872 37.0821 35.3556C37.0899 35.3241 37.1215 35.2925 37.1767 35.2768C37.2319 35.261 37.2792 35.2531 37.3187 35.2531V35.2216H36.4354" fill="black"/>
<path d="M40.7177 35.608C40.5521 35.4819 40.3549 35.3793 40.1341 35.3241C39.9133 35.261 39.6057 35.2295 39.2193 35.2295H37.7051V35.261C37.7997 35.261 37.8628 35.2768 37.8943 35.3162C37.9259 35.3557 37.9417 35.4582 37.9417 35.6396V38.0449C37.9417 38.2184 37.9259 38.3367 37.9022 38.3998C37.8786 38.4629 37.8234 38.4945 37.7445 38.4945H37.7051V38.526H39.2587C39.6609 38.526 39.9606 38.4945 40.1499 38.4314C40.3391 38.3683 40.5205 38.25 40.694 38.0844C40.8675 37.9188 41.0016 37.7137 41.1041 37.485C41.2067 37.2484 41.254 37.0197 41.254 36.7752C41.254 36.5229 41.2067 36.302 41.112 36.097C41.0174 35.8998 40.8833 35.7342 40.7177 35.608ZM40.5205 37.9661C40.2682 38.2815 39.8344 38.4393 39.2193 38.4393C38.9985 38.4393 38.8171 38.4235 38.6909 38.3841C38.5568 38.3525 38.4622 38.2894 38.407 38.2184C38.3518 38.1396 38.3281 38.0213 38.3281 37.8557V35.2926H38.8328C39.5268 35.2926 40.0395 35.4503 40.3865 35.7737C40.7335 36.097 40.8991 36.4755 40.8991 36.9172C40.8991 37.3036 40.7729 37.6506 40.5205 37.9661Z" fill="black"/>
<path d="M43.8012 38.3288C43.7618 38.3683 43.7224 38.3919 43.6672 38.4077C43.612 38.4156 43.4937 38.4235 43.3123 38.4235H42.7287C42.6025 38.4235 42.5079 38.4156 42.4448 38.3998C42.3817 38.384 42.3344 38.3367 42.3107 38.2736C42.2792 38.2027 42.2713 38.0922 42.2713 37.9424V36.9251H43.3044C43.3833 36.9251 43.4306 36.9329 43.4542 36.9487C43.4858 36.9645 43.5016 36.996 43.5094 37.0355H43.541V36.7279H43.5094C43.5094 36.7673 43.4937 36.791 43.47 36.8068C43.4463 36.8225 43.3833 36.8383 43.2807 36.8383H42.2713V35.3557H43.3596C43.4779 35.3557 43.5568 35.3714 43.5883 35.403C43.6199 35.4345 43.6593 35.537 43.6987 35.7027H43.7303V35.2452H41.6561V35.2847C41.7665 35.2847 41.8375 35.3083 41.8612 35.3557C41.8848 35.403 41.8927 35.4897 41.8927 35.608V38.2736C41.8927 38.3762 41.8769 38.4392 41.8375 38.4629C41.7981 38.4866 41.7429 38.5023 41.664 38.5102V38.5418H43.9195V38.0922H43.888C43.8643 38.2027 43.8407 38.2894 43.8012 38.3288Z" fill="black"/>
<path d="M46.9322 35.261C47.0031 35.261 47.0583 35.2768 47.1057 35.3004C47.153 35.332 47.1766 35.4029 47.1766 35.5291V37.8556L44.7003 35.2216H44.0773V35.2531C44.2744 35.2452 44.4006 35.3004 44.4558 35.4266C44.511 35.5528 44.5347 35.7105 44.5347 35.9077V38.1395C44.5347 38.2894 44.5189 38.384 44.4953 38.4313C44.4637 38.4708 44.4006 38.4944 44.2823 38.4944V38.526H44.9132V38.4944C44.8265 38.4787 44.7713 38.4708 44.7476 38.455C44.724 38.4392 44.7082 38.4156 44.6924 38.3761C44.6845 38.3367 44.6766 38.2815 44.6766 38.2026V35.7578L47.3107 38.5654V35.5607C47.3107 35.4345 47.3265 35.3556 47.3659 35.3162C47.4053 35.2768 47.4684 35.2531 47.571 35.2531V35.2216H46.9322" fill="black"/>
<path d="M50.7334 38.3762C50.4968 38.455 50.2523 38.4945 50 38.4945C49.6214 38.4945 49.2981 38.3998 49.0378 38.2027C48.7697 38.0055 48.5804 37.7532 48.4542 37.4535C48.3281 37.1459 48.2729 36.8778 48.2729 36.6412C48.2729 36.2626 48.4069 35.9393 48.6908 35.6711C48.9669 35.403 49.3296 35.2689 49.7792 35.2689C50.2129 35.2689 50.5915 35.4267 50.9069 35.75H50.9385L50.8123 35.403C50.8123 35.403 50.8044 35.403 50.8044 35.3951L50.6546 35.3399C50.5678 35.3005 50.4495 35.2689 50.3154 35.2374C50.1814 35.2058 50.0236 35.1901 49.8344 35.1901C49.4637 35.1901 49.1325 35.2689 48.8486 35.4345C48.5568 35.5923 48.3359 35.8131 48.1861 36.0891C48.0363 36.3651 47.9574 36.6569 47.9574 36.9566C47.9574 37.4061 48.1072 37.7847 48.4069 38.108C48.7066 38.4314 49.2035 38.5891 49.8896 38.5891C50.0788 38.5891 50.2287 38.5812 50.3391 38.5655C50.4495 38.5497 50.694 38.5024 51.0647 38.4235L51.2934 38.0686L51.2618 38.0607C51.1514 38.1869 50.9779 38.2973 50.7334 38.3762Z" fill="black"/>
<path d="M53.8092 38.0765C53.7934 38.2027 53.7619 38.2894 53.7224 38.3288C53.683 38.3683 53.6436 38.3919 53.5884 38.4077C53.541 38.4235 53.4227 38.4235 53.2335 38.4235H52.6499C52.5237 38.4235 52.4291 38.4156 52.366 38.3998C52.3029 38.384 52.2556 38.3367 52.2319 38.2736C52.2003 38.2027 52.1925 38.0922 52.1925 37.9424V36.9251H53.2256C53.3044 36.9251 53.3518 36.9329 53.3833 36.9487C53.407 36.9645 53.4306 36.996 53.4385 37.0355H53.4701V36.7279H53.4385C53.4385 36.7673 53.4227 36.791 53.3991 36.8068C53.3754 36.8225 53.3123 36.8383 53.2098 36.8383H52.2003V35.3557H53.2887C53.407 35.3557 53.4858 35.3714 53.5174 35.403C53.5489 35.4345 53.5884 35.5292 53.6278 35.7027H53.6593V35.2452H51.5852V35.2847C51.6956 35.2847 51.7666 35.3083 51.7903 35.3557C51.8139 35.403 51.8218 35.4897 51.8218 35.608V38.2736C51.8218 38.3762 51.806 38.4392 51.7666 38.4629C51.7272 38.4866 51.672 38.5023 51.5931 38.5102V38.5418H53.8486V38.0922" fill="black"/>
<path d="M17.0505 19.0307L17.3107 19.1253L14.6451 26.4597H18.7382L22.2318 16.8067L19.9842 10.608L20.2445 10.5134L26.0252 26.4597H29.7082L29.7397 26.373L20.1814 0.000732422H13.5568V26.4597H14.3533" fill="black"/>
<path d="M30.071 26.4597H34.9921L32.5 19.5828L30.0394 26.373L30.071 26.4597Z" fill="black"/>
<path d="M35.2919 26.4597H38.9275L34.4638 14.1569L32.6499 19.1726L35.2919 26.4597Z" fill="black"/>
<path d="M25.7335 26.4597L22.3818 17.2168L19.03 26.4597" fill="black"/>
<path d="M20.4731 0.000732422L27.981 20.7105L30.0394 15.0402L30.2996 15.1348L28.1309 21.1048H28.123L29.8895 25.9708L34.2981 13.8099L34.3454 13.8257L31.1041 4.89821L31.3643 4.80357L39.2192 26.4597H40.0157V0.000732422" fill="black"/>
</svg>
