<svg width="57" height="26" viewBox="0 0 57 26" fill="none" xmlns="http://www.w3.org/2000/svg">
<path d="M21.7115 15.1739V21.7196H1.62473V1.63286H21.7115V4.91361L23.344 4.2827V0.000366211H0.00012207V23.3442H23.344V15.7969L21.7115 15.1739Z" fill="#20113E"/>
<path d="M32.4211 25.1582H33.4622V25.9231H32.2082C30.8123 25.9231 30.1025 25.2134 30.1025 23.8175C30.1025 22.4216 30.8123 21.7118 32.2082 21.7118H33.4622V22.4768H32.4211C31.4827 22.4768 31.0883 22.879 31.0883 23.8096C31.0883 24.7638 31.4905 25.1582 32.4211 25.1582ZM35.3312 24.1566H37.7603V23.4153H35.3312V22.4768H37.7997V21.7197H34.3533V23.8253C34.3533 25.2212 35.0631 25.931 36.459 25.931H37.8076V25.1739H36.5458C35.7413 25.166 35.3628 24.8506 35.3312 24.1566ZM40.9385 21.7197H38.8328V25.9231H39.7871V22.4925H40.7808C41.4432 22.4925 41.7193 22.7607 41.7193 23.431V25.9231H42.6735V23.4547C42.6735 22.2559 42.1372 21.7197 40.9385 21.7197ZM47.8549 23.8253C47.8549 25.2528 47.0978 26.002 45.6625 26.002C44.2271 26.002 43.47 25.2449 43.47 23.8253C43.47 22.3979 44.2271 21.6487 45.6625 21.6487C47.0978 21.6487 47.8549 22.3979 47.8549 23.8253ZM45.6704 22.4216C44.8502 22.4216 44.4559 22.879 44.4559 23.8253C44.4559 24.7717 44.8502 25.2291 45.6704 25.2291C46.4905 25.2291 46.8849 24.7717 46.8849 23.8253C46.8849 22.879 46.4827 22.4216 45.6704 22.4216ZM52.7918 21.7197H48.6751V25.9231H49.6294V22.4925H51.0883V25.9231H52.0426V22.4925H52.6656C53.3123 22.4925 53.5726 22.7528 53.5726 23.3995V25.9231H54.5347V23.4547C54.5347 22.2559 53.9984 21.7197 52.7918 21.7197ZM55.5284 21.7197V25.9231H56.4827V25.7023V21.7118H55.5284V21.7197ZM56.0095 20.1897C55.7098 20.1897 55.4574 20.4421 55.4574 20.7496C55.4574 21.0335 55.7098 21.2938 56.0095 21.2938C56.3092 21.2938 56.5536 21.0335 56.5536 20.7496C56.5536 20.4421 56.317 20.1897 56.0095 20.1897Z" fill="#20113E"/>
<path d="M54.5189 5.71016V10.9389C54.5189 12.2717 53.9748 12.7764 52.642 12.7764H51.9322V5.71016H49.9685V12.7764H47.3738V5.71016H45.4101V12.7764H40.8675V5.71016H38.9038V12.7764H35.4732V5.71016H33.5095V12.7764H29.9921V5.71016H26.317C23.8407 5.71016 22.7366 6.81426 22.7366 9.2906V10.7969C22.7366 13.2733 23.8407 14.3774 26.317 14.3774H28.0126C27.9732 15.6471 27.4132 16.1676 26.0883 16.1676H24.9448V17.7685H26.4038C28.8091 17.7685 29.9369 16.7196 29.9921 14.3852H52.9101C55.3864 14.3852 56.4905 13.2811 56.4905 10.8048V5.71805H54.5189V5.71016ZM24.7003 10.8521V9.2354C24.7003 7.86316 25.1498 7.31111 26.5221 7.31111H28.0205V12.7843H26.5221C25.1498 12.7764 24.7003 12.2244 24.7003 10.8521ZM20.3628 8.76222C20.3628 6.80638 19.4637 5.71016 17.4054 5.71016H15.8123C13.7539 5.71016 12.8549 6.81427 12.8549 8.76222V12.7764H8.76972V14.3774H10.623C10.5836 15.6392 10.0158 16.1045 8.69874 16.1676C8.28076 16.1912 7.93375 16.1912 7.51577 16.1676C6.14353 16.1045 5.5836 15.6076 5.5836 14.2433V9.21174H3.61987V14.196C3.61987 16.6723 4.72397 17.7133 7.20032 17.7764C7.82334 17.7922 8.39117 17.7922 9.0142 17.7764C11.4196 17.7212 12.5315 16.7275 12.5868 14.3931H20.3628V8.76222ZM18.3912 12.7764H14.8186V8.73067C14.8186 7.7212 15.2681 7.27168 16.3407 7.27168H16.877C17.9495 7.27168 18.3991 7.7212 18.3991 8.73067V12.7764H18.3912ZM39.511 16.3647C39.511 16.9483 39.0142 17.4767 38.3991 17.4767C37.7839 17.4767 37.2713 16.9483 37.2713 16.3647C37.2713 15.7259 37.7839 15.2133 38.3991 15.2133C39.0142 15.2212 39.511 15.7259 39.511 16.3647ZM42.5 16.3647C42.5 16.9483 42.0032 17.4767 41.388 17.4767C40.7729 17.4767 40.2603 16.9483 40.2603 16.3647C40.2603 15.7259 40.7729 15.2133 41.388 15.2133C42.0032 15.2212 42.5 15.7259 42.5 16.3647ZM35.5678 3.7149C35.5678 4.29849 35.071 4.82688 34.4558 4.82688C33.8407 4.82688 33.3281 4.29849 33.3281 3.7149C33.3281 3.0761 33.8407 2.56348 34.4558 2.56348C35.071 2.56348 35.5678 3.0761 35.5678 3.7149ZM7.80757 19.7559C7.80757 20.3395 7.31072 20.8679 6.69558 20.8679C6.08044 20.8679 5.56782 20.3395 5.56782 19.7559C5.56782 19.1171 6.08044 18.6045 6.69558 18.6045C7.31072 18.6045 7.80757 19.1171 7.80757 19.7559ZM10.7886 19.7559C10.7886 20.3395 10.2918 20.8679 9.67666 20.8679C9.06152 20.8679 8.5489 20.3395 8.5489 19.7559C8.5489 19.1171 9.06152 18.6045 9.67666 18.6045C10.2997 18.6045 10.7886 19.1171 10.7886 19.7559Z" fill="#20113E"/>
</svg>
