<svg width="24" height="21" viewBox="0 0 24 21" fill="none" xmlns="http://www.w3.org/2000/svg">
<mask id="mask0_79_442" style="mask-type:luminance" maskUnits="userSpaceOnUse" x="0" y="0" width="24" height="21">
<path d="M23.6593 0.000732422H0V20.7026H23.6593V0.000732422Z" fill="white"/>
</mask>
<g mask="url(#mask0_79_442)">
<path d="M7.41761 6.92542C7.4172 6.86489 7.40234 6.80532 7.3743 6.75166L8.23144 5.89576C8.30738 5.94234 8.39439 5.96784 8.4835 5.96966C8.57261 5.97148 8.66059 5.94953 8.73837 5.90609C8.81615 5.86265 8.88093 5.79928 8.92601 5.72252C8.9711 5.64575 8.99486 5.55837 8.99486 5.46938C8.99486 5.38038 8.9711 5.293 8.92601 5.21624C8.88093 5.13948 8.81615 5.07611 8.73837 5.03266C8.66059 4.98922 8.57261 4.96728 8.4835 4.96909C8.39439 4.97091 8.30738 4.99642 8.23144 5.04299L7.37419 4.18715C7.41694 4.10446 7.42866 4.00924 7.40726 3.91868C7.38586 3.82811 7.33275 3.74817 7.2575 3.69328C7.18226 3.63839 7.08984 3.61216 6.99692 3.61932C6.90401 3.6265 6.81673 3.6666 6.75082 3.73237C6.68492 3.79816 6.64473 3.8853 6.63752 3.97808C6.63032 4.07085 6.65656 4.16314 6.71151 4.23828C6.76646 4.31343 6.8465 4.36649 6.93721 4.38789C7.02789 4.40928 7.12326 4.3976 7.20609 4.35496L8.06333 5.21075C8.01493 5.28832 7.98928 5.37788 7.98928 5.46927C7.98928 5.56067 8.01493 5.65023 8.06333 5.72779L7.20639 6.58385C7.15265 6.5558 7.09297 6.54096 7.03233 6.54056C6.95609 6.54056 6.88155 6.56314 6.81816 6.60543C6.75476 6.64772 6.70535 6.70783 6.67617 6.77817C6.647 6.8485 6.63936 6.92589 6.65424 7.00057C6.66911 7.07523 6.70582 7.14382 6.75974 7.19764C6.81366 7.25148 6.88233 7.28814 6.95712 7.30299C7.0319 7.31785 7.1094 7.31021 7.17985 7.28108C7.25029 7.25195 7.31049 7.20261 7.35285 7.13931C7.39521 7.07603 7.41782 7.0016 7.41782 6.92547" fill="#468077"/>
<path d="M6.35242 5.46948L6.91538 6.03198V4.9071L6.35242 5.46948Z" fill="#468077"/>
<path d="M16.2411 6.92542C16.2415 6.86489 16.2564 6.80532 16.2843 6.75166L15.4273 5.89576C15.3513 5.94234 15.2643 5.96784 15.1752 5.96966C15.086 5.97148 14.9981 5.94953 14.9203 5.90609C14.8425 5.86265 14.7778 5.79928 14.7326 5.72252C14.6876 5.64575 14.6638 5.55837 14.6638 5.46938C14.6638 5.38038 14.6876 5.293 14.7326 5.21624C14.7778 5.13948 14.8425 5.07611 14.9203 5.03266C14.9981 4.98922 15.086 4.96728 15.1752 4.96909C15.2643 4.97091 15.3513 4.99642 15.4273 5.04299L16.2845 4.18715C16.2418 4.10446 16.23 4.00924 16.2515 3.91868C16.2729 3.82811 16.326 3.74817 16.4012 3.69328C16.4765 3.63839 16.5688 3.61216 16.6618 3.61932C16.7547 3.6265 16.8419 3.6666 16.9079 3.73237C16.9738 3.79816 17.0139 3.8853 17.0212 3.97808C17.0284 4.07085 17.0022 4.16314 16.9471 4.23828C16.8922 4.31343 16.8122 4.36649 16.7215 4.38789C16.6308 4.40928 16.5354 4.3976 16.4526 4.35496L15.5953 5.2108C15.6436 5.28837 15.6693 5.37794 15.6693 5.46933C15.6693 5.56071 15.6436 5.65028 15.5953 5.72785L16.4525 6.5837C16.5061 6.55565 16.5659 6.54081 16.6265 6.5404C16.7028 6.5404 16.7773 6.56298 16.8407 6.60527C16.9041 6.64757 16.9535 6.70768 16.9826 6.77801C17.0119 6.84835 17.0195 6.92575 17.0046 7.00041C16.9898 7.07507 16.9531 7.14366 16.8991 7.19749C16.8452 7.25132 16.7765 7.28798 16.7017 7.30283C16.6269 7.31769 16.5495 7.31007 16.479 7.28093C16.4086 7.2518 16.3484 7.20246 16.306 7.13917C16.2636 7.07587 16.241 7.00144 16.241 6.92531" fill="#468077"/>
<path d="M17.3065 5.46948L16.7437 6.03198V4.9071L17.3065 5.46948Z" fill="#468077"/>
<path d="M9.74087 9.61383C9.6977 9.57132 9.64502 9.53969 9.58719 9.52155V8.31117C9.67389 8.29052 9.7535 8.24714 9.81783 8.18552C9.88215 8.12389 9.92884 8.04625 9.9531 7.96061C9.97737 7.87496 9.97831 7.78441 9.95585 7.69828C9.93338 7.61214 9.88831 7.53356 9.82529 7.47061C9.76227 7.40766 9.68357 7.36263 9.59732 7.34017C9.51107 7.31771 9.42038 7.31862 9.33459 7.34282C9.24881 7.36701 9.17104 7.41361 9.1093 7.47781C9.04757 7.54201 9.00409 7.62149 8.98337 7.70806H7.77107C7.75295 7.65029 7.72129 7.59769 7.6787 7.55461C7.62479 7.50079 7.5561 7.46413 7.48132 7.44928C7.40654 7.43443 7.32903 7.44205 7.2586 7.47119C7.18815 7.50032 7.12795 7.54965 7.08559 7.61295C7.04323 7.67625 7.02063 7.75067 7.02063 7.8268C7.02063 7.90292 7.04323 7.97734 7.08559 8.04064C7.12795 8.10394 7.18815 8.15327 7.2586 8.18242C7.32903 8.21155 7.40654 8.21917 7.48132 8.20432C7.5561 8.18947 7.62479 8.15281 7.6787 8.09898C7.72132 8.05585 7.75302 8.0032 7.77118 7.94538H8.98337C9.00406 8.0344 9.04934 8.11585 9.11406 8.18047C9.17878 8.2451 9.26035 8.2903 9.3495 8.31097V9.52139C9.29163 9.53951 9.23891 9.57114 9.19573 9.61367C9.14182 9.66751 9.10511 9.73609 9.09023 9.81076C9.07536 9.88542 9.083 9.96281 9.11217 10.0332C9.14135 10.1035 9.19076 10.1636 9.25415 10.2059C9.31754 10.2482 9.39208 10.2708 9.46832 10.2708C9.54457 10.2708 9.61909 10.2482 9.68249 10.2059C9.74588 10.1636 9.79529 10.1035 9.82447 10.0332C9.85365 9.96281 9.86129 9.88542 9.84641 9.81076C9.83153 9.73609 9.79483 9.66751 9.74091 9.61367" fill="#468077"/>
<path d="M7.95664 9.33655L8.75305 9.3368L7.95642 8.54138L7.95664 9.33655Z" fill="#468077"/>
<path d="M15.98 3.38447C15.9374 3.34137 15.9057 3.28878 15.8876 3.23103H14.6754C14.6547 3.3176 14.6114 3.3971 14.5496 3.46133C14.4879 3.52555 14.4102 3.57217 14.3244 3.5964C14.2386 3.62062 14.1479 3.62156 14.0617 3.59913C13.9754 3.5767 13.8967 3.5317 13.8336 3.46878C13.7706 3.40584 13.7255 3.32727 13.703 3.24115C13.6805 3.15503 13.6814 3.06447 13.7056 2.97881C13.7299 2.89316 13.7765 2.81551 13.8409 2.75387C13.9051 2.69222 13.9848 2.64881 14.0714 2.62812V1.41765C14.0135 1.39956 13.9609 1.36794 13.9178 1.32541C13.8639 1.27159 13.8271 1.203 13.8123 1.12833C13.7974 1.05367 13.805 0.976277 13.8342 0.905944C13.8634 0.835612 13.9128 0.775498 13.9762 0.733203C14.0396 0.690909 14.1141 0.668335 14.1904 0.668335C14.2666 0.668335 14.3411 0.690909 14.4045 0.733203C14.468 0.775498 14.5173 0.835612 14.5465 0.905944C14.5757 0.976277 14.5833 1.05367 14.5685 1.12833C14.5536 1.203 14.5169 1.27159 14.4629 1.32541C14.4197 1.368 14.3671 1.39965 14.3092 1.41775V2.62812C14.3982 2.64878 14.4799 2.69399 14.5446 2.75861C14.6093 2.82324 14.6546 2.90468 14.6753 2.99371H15.8875C15.9057 2.93592 15.9373 2.88328 15.98 2.84017C16.0339 2.78633 16.1026 2.74967 16.1773 2.73483C16.252 2.71997 16.3296 2.72759 16.4 2.75674C16.4704 2.78587 16.5307 2.8352 16.573 2.8985C16.6153 2.9618 16.638 3.03622 16.638 3.11235C16.638 3.18848 16.6153 3.26289 16.573 3.32619C16.5307 3.38949 16.4704 3.43882 16.4 3.46796C16.3296 3.49709 16.252 3.50471 16.1773 3.48987C16.1026 3.47501 16.0339 3.4383 15.98 3.38447Z" fill="#468077"/>
<path d="M15.7023 1.6025L15.7027 2.39771L14.906 1.60229L15.7023 1.6025Z" fill="#468077"/>
<path d="M7.67896 3.38447C7.72153 3.34137 7.75322 3.28878 7.77138 3.23103H8.98357C9.00428 3.3176 9.04772 3.3971 9.10943 3.46133C9.17114 3.52555 9.2489 3.57217 9.33467 3.5964C9.42045 3.62062 9.51115 3.62156 9.5974 3.59913C9.68366 3.5767 9.76238 3.5317 9.82541 3.46878C9.88846 3.40584 9.93355 3.32727 9.95605 3.24115C9.97855 3.15503 9.97763 3.06447 9.9534 2.97881C9.92917 2.89316 9.8825 2.81551 9.8182 2.75387C9.7539 2.69222 9.6743 2.64881 9.58761 2.62812V1.41765C9.64546 1.39956 9.69814 1.36794 9.74128 1.32541C9.79519 1.27159 9.83191 1.203 9.84677 1.12833C9.86165 1.05367 9.85402 0.976277 9.82483 0.905944C9.79566 0.835612 9.74625 0.775498 9.68286 0.733203C9.61947 0.690909 9.54493 0.668335 9.46869 0.668335C9.39244 0.668335 9.31792 0.690909 9.25452 0.733203C9.19113 0.775498 9.14171 0.835612 9.11254 0.905944C9.08336 0.976277 9.07573 1.05367 9.0906 1.12833C9.10547 1.203 9.14218 1.27159 9.1961 1.32541C9.23927 1.368 9.29202 1.39965 9.34992 1.41775V2.62812C9.26076 2.64876 9.17917 2.69396 9.11445 2.75859C9.04973 2.82322 9.00446 2.90467 8.98379 2.99371H7.77112C7.75298 2.93592 7.7213 2.88328 7.6787 2.84017C7.62479 2.78633 7.5561 2.74967 7.48132 2.73483C7.40654 2.71997 7.32903 2.72759 7.2586 2.75674C7.18815 2.78587 7.12795 2.8352 7.08559 2.8985C7.04323 2.9618 7.02063 3.03622 7.02063 3.11235C7.02063 3.18848 7.04323 3.26289 7.08559 3.32619C7.12795 3.38949 7.18815 3.43882 7.2586 3.46796C7.32903 3.49709 7.40654 3.50471 7.48132 3.48987C7.5561 3.47501 7.62479 3.43835 7.6787 3.38453" fill="#468077"/>
<path d="M7.95668 1.6025L7.95642 2.39771L8.75305 1.60229L7.95668 1.6025Z" fill="#468077"/>
<path d="M13.9179 9.61383C13.9611 9.57132 14.0138 9.53969 14.0717 9.52155V8.31117C13.9849 8.29052 13.9053 8.24714 13.841 8.18552C13.7766 8.12389 13.73 8.04625 13.7057 7.96061C13.6814 7.87496 13.6805 7.78441 13.7029 7.69828C13.7254 7.61214 13.7705 7.53356 13.8335 7.47061C13.8965 7.40766 13.9752 7.36263 14.0614 7.34017C14.1478 7.31771 14.2384 7.31862 14.3242 7.34282C14.4099 7.36701 14.4877 7.41361 14.5495 7.47781C14.6113 7.54201 14.6547 7.62149 14.6754 7.70806H15.8877C15.9058 7.65029 15.9375 7.59769 15.9801 7.55461C16.034 7.50079 16.1027 7.46413 16.1774 7.44928C16.2523 7.43443 16.3297 7.44205 16.4003 7.47119C16.4707 7.50032 16.5308 7.54965 16.5733 7.61295C16.6156 7.67625 16.6382 7.75067 16.6382 7.8268C16.6382 7.90292 16.6156 7.97734 16.5733 8.04064C16.5308 8.10394 16.4707 8.15327 16.4003 8.18242C16.3297 8.21155 16.2523 8.21917 16.1774 8.20432C16.1027 8.18947 16.034 8.15281 15.9801 8.09898C15.9374 8.05585 15.9058 8.0032 15.8876 7.94538H14.6754C14.6547 8.0344 14.6095 8.11585 14.5447 8.18047C14.48 8.2451 14.3985 8.2903 14.3093 8.31097V9.52139C14.3672 9.53951 14.4198 9.57114 14.4631 9.61367C14.517 9.66751 14.5537 9.73609 14.5686 9.81076C14.5834 9.88542 14.5758 9.96281 14.5467 10.0332C14.5174 10.1035 14.4681 10.1636 14.4046 10.2059C14.3412 10.2482 14.2667 10.2708 14.1905 10.2708C14.1142 10.2708 14.0397 10.2482 13.9763 10.2059C13.9129 10.1636 13.8635 10.1035 13.8343 10.0332C13.8052 9.96281 13.7975 9.88542 13.8124 9.81076C13.8272 9.73609 13.864 9.66751 13.9179 9.61367" fill="#468077"/>
<path d="M15.7024 9.33655L14.906 9.3368L15.7027 8.54138L15.7024 9.33655Z" fill="#468077"/>
<path d="M13.288 9.87457C13.2273 9.87498 13.1676 9.8898 13.1139 9.91781L12.2567 9.06197C12.3034 8.98613 12.3289 8.89926 12.3307 8.81028C12.3325 8.72131 12.3105 8.63347 12.2671 8.5558C12.2235 8.47814 12.1601 8.41346 12.0832 8.36844C12.0063 8.32342 11.9188 8.29968 11.8296 8.29968C11.7406 8.29968 11.6531 8.32342 11.5762 8.36844C11.4993 8.41346 11.4358 8.47814 11.3923 8.5558C11.3488 8.63347 11.3268 8.72131 11.3286 8.81028C11.3305 8.89926 11.356 8.98613 11.4026 9.06197L10.5457 9.91807C10.4629 9.87541 10.3675 9.86369 10.2768 9.88506C10.1861 9.90642 10.106 9.95946 10.0511 10.0346C9.99608 10.1097 9.96981 10.202 9.97699 10.2948C9.98418 10.3875 10.0243 10.4747 10.0902 10.5405C10.1561 10.6063 10.2434 10.6464 10.3363 10.6536C10.4292 10.6608 10.5216 10.6346 10.5969 10.5798C10.6721 10.5249 10.7253 10.445 10.7467 10.3544C10.7681 10.2639 10.7564 10.1686 10.7137 10.0859L11.5709 9.22972C11.6485 9.27804 11.7383 9.30365 11.8297 9.30365C11.9213 9.30365 12.011 9.27804 12.0887 9.22972L12.9458 10.0856C12.9177 10.1393 12.9029 10.1989 12.9025 10.2594C12.9025 10.3356 12.9251 10.41 12.9674 10.4733C13.0098 10.5366 13.07 10.5859 13.1404 10.615C13.2108 10.6442 13.2884 10.6518 13.3631 10.637C13.438 10.6221 13.5067 10.5854 13.5606 10.5316C13.6145 10.4778 13.6511 10.4092 13.666 10.3345C13.6809 10.2599 13.6733 10.1825 13.6441 10.1121C13.615 10.0418 13.5655 9.98169 13.5021 9.93939C13.4388 9.8971 13.3642 9.87457 13.288 9.87457Z" fill="#468077"/>
<path d="M11.8294 10.9381L12.3926 10.376H11.2661L11.8294 10.9381Z" fill="#468077"/>
<path d="M13.288 1.0644C13.2273 1.06398 13.1676 1.04916 13.1139 1.02116L12.2567 1.877C12.3034 1.95283 12.3289 2.03971 12.3307 2.12868C12.3325 2.21765 12.3105 2.3055 12.2671 2.38316C12.2235 2.46084 12.1601 2.52552 12.0832 2.57053C12.0063 2.61555 11.9188 2.63928 11.8296 2.63928C11.7406 2.63928 11.6531 2.61555 11.5762 2.57053C11.4993 2.52552 11.4358 2.46084 11.3923 2.38316C11.3488 2.3055 11.3268 2.21765 11.3286 2.12868C11.3305 2.03971 11.356 1.95283 11.4026 1.877L10.5457 1.02116C10.4629 1.06383 10.3675 1.07554 10.2768 1.05417C10.1861 1.03281 10.106 0.979769 10.0511 0.904637C9.99608 0.829505 9.96981 0.737226 9.97699 0.644453C9.98418 0.551681 10.0243 0.464528 10.0902 0.398722C10.1561 0.332916 10.2434 0.292792 10.3363 0.285593C10.4292 0.278395 10.5216 0.304597 10.5969 0.359467C10.6721 0.414337 10.7253 0.494263 10.7467 0.584819C10.7681 0.675376 10.7564 0.770596 10.7137 0.853296L11.5709 1.70925C11.6485 1.66093 11.7383 1.63531 11.8297 1.63531C11.9213 1.63531 12.011 1.66093 12.0887 1.70925L12.9458 0.85335C12.9177 0.79968 12.9029 0.740094 12.9025 0.679537C12.9025 0.603408 12.9251 0.52899 12.9674 0.46569C13.0098 0.402391 13.07 0.353055 13.1404 0.323922C13.2108 0.294789 13.2884 0.287166 13.3631 0.302018C13.438 0.31687 13.5067 0.353531 13.5606 0.407362C13.6145 0.461193 13.6511 0.529778 13.666 0.604445C13.6809 0.67911 13.6733 0.756504 13.6441 0.826837C13.615 0.897171 13.5655 0.957287 13.5021 0.999582C13.4388 1.04188 13.3642 1.0644 13.288 1.0644Z" fill="#468077"/>
<path d="M11.8294 0.000732422L12.3926 0.562854H11.2661L11.8294 0.000732422Z" fill="#468077"/>
<path d="M11.687 5.09238L11.8298 5.4574L11.9722 5.09254C12.0047 5.00967 12.0327 4.92507 12.0559 4.83912C12.1893 4.34845 12.1599 3.82776 11.9718 3.35525L11.8296 2.99634L11.687 3.35525C11.5773 3.63067 11.5209 3.92442 11.5208 4.22086C11.5209 4.51919 11.5773 4.81484 11.6868 5.09238" fill="#468077"/>
<path d="M11.4703 5.29996L11.8297 5.45727L11.6721 5.09873C11.6364 5.01712 11.5962 4.93752 11.5517 4.86031C11.2987 4.41904 10.9092 4.0716 10.4416 3.87019L10.0869 3.7168L10.2403 4.07122C10.3577 4.34349 10.5258 4.59102 10.7357 4.80067C10.947 5.01153 11.1962 5.18082 11.4703 5.2997" fill="#468077"/>
<path d="M11.464 5.59984L11.8296 5.45731L11.4641 5.31509C11.3812 5.28259 11.2965 5.25469 11.2104 5.23153C10.719 5.09819 10.1975 5.1276 9.72431 5.31535L9.36487 5.45731L9.72431 5.59962C10.0002 5.70928 10.2943 5.76562 10.5912 5.76566C10.89 5.76553 11.1861 5.70928 11.464 5.59984Z" fill="#468077"/>
<path d="M11.6722 5.81606L11.8297 5.45715L11.4706 5.61462C11.389 5.65026 11.3092 5.69036 11.2319 5.73474C10.79 5.98748 10.4422 6.37649 10.2405 6.84336L10.0869 7.19752L10.4419 7.04439C10.7145 6.92717 10.9625 6.75932 11.1724 6.54974C11.3836 6.33869 11.5531 6.08985 11.6722 5.81621" fill="#468077"/>
<path d="M11.9724 5.82217L11.8297 5.45715L11.6873 5.82201C11.6546 5.90488 11.6268 5.98948 11.6036 6.07541C11.47 6.5661 11.4996 7.08679 11.6876 7.5593L11.8298 7.9182L11.9723 7.5593C12.0822 7.28388 12.1386 6.99013 12.1386 6.69369C12.1385 6.39536 12.0821 6.0997 11.9724 5.82217Z" fill="#468077"/>
<path d="M12.1889 5.61446L11.8295 5.45715L11.9872 5.81569C12.0228 5.89731 12.063 5.9769 12.1075 6.05411C12.3605 6.49532 12.7501 6.84265 13.2177 7.04398L13.5725 7.19736L13.4191 6.84296C13.3017 6.57067 13.1336 6.32314 12.9237 6.1135C12.7122 5.90261 12.463 5.73333 12.1889 5.61446Z" fill="#468077"/>
<path d="M12.195 5.31454L11.8295 5.45707L12.1949 5.59929C12.2779 5.63178 12.3626 5.65968 12.4487 5.68284C12.9401 5.81615 13.4616 5.78668 13.9348 5.59887L14.2942 5.45691L13.9348 5.31459C13.6589 5.20493 13.3648 5.14859 13.0679 5.14856C12.7691 5.14868 12.473 5.20494 12.195 5.31438" fill="#468077"/>
<path d="M11.987 5.0985L11.8295 5.45741L12.1886 5.29994C12.2703 5.26429 12.35 5.2242 12.4273 5.17981C12.8692 4.92711 13.217 4.5381 13.4187 4.07119L13.5723 3.71704L13.2174 3.87016C12.9446 3.98738 12.6968 4.15524 12.4868 4.36481C12.2756 4.57587 12.1061 4.8247 11.987 5.09834" fill="#468077"/>
<path d="M6.35227 19.4279H6.35179C6.24851 19.3563 6.14093 19.2909 6.02964 19.2324C5.91048 19.169 5.80897 19.111 5.71936 19.0544C5.63619 19.0039 5.55913 18.9441 5.48968 18.8759C5.46612 18.8544 5.44717 18.8284 5.43398 18.7994C5.42079 18.7703 5.41363 18.7389 5.41295 18.707C5.40913 18.6672 5.41392 18.6271 5.42699 18.5893C5.44006 18.5515 5.4611 18.5171 5.48869 18.4881C5.59927 18.3915 5.7794 18.3948 5.98198 18.4962C6.09305 18.5539 6.19255 18.6315 6.27553 18.7251L6.33798 18.7955L6.53152 18.4444L6.47812 18.4111C6.38297 18.3517 6.2791 18.3077 6.17029 18.2805C5.97047 18.2274 5.76061 18.2242 5.55931 18.2714C5.47131 18.2921 5.38751 18.3277 5.31148 18.3766C5.23985 18.423 5.17933 18.4845 5.13416 18.5569C5.083 18.6457 5.05977 18.7478 5.06752 18.85C5.07527 18.9522 5.11361 19.0497 5.17758 19.1298C5.25032 19.2166 5.33482 19.2928 5.42865 19.3564C5.53001 19.425 5.63537 19.4876 5.74415 19.5438C5.84822 19.598 5.94926 19.6577 6.0468 19.7228C6.13093 19.7782 6.20628 19.8458 6.27031 19.9236C6.32511 19.991 6.35386 20.0757 6.35133 20.1625C6.35292 20.2139 6.34252 20.265 6.32093 20.3117C6.29934 20.3585 6.26717 20.3997 6.22693 20.4318C6.18555 20.4646 6.13833 20.4893 6.08776 20.5046C5.92429 20.5559 5.7351 20.5317 5.54304 20.4323C5.40922 20.3593 5.29773 20.2513 5.22042 20.1201L5.16319 20.0298L4.93921 20.3981L4.92395 20.4223L4.97782 20.457C5.10355 20.5372 5.24057 20.5981 5.38435 20.6378C5.53118 20.6794 5.68302 20.7007 5.83564 20.7011C5.94563 20.7014 6.05525 20.6885 6.16213 20.6626C6.26316 20.6384 6.35871 20.5953 6.44374 20.5357C6.5262 20.4767 6.59416 20.3997 6.64251 20.3106C6.69427 20.2096 6.71997 20.0972 6.71731 19.9837C6.71817 19.8678 6.67913 19.7551 6.60673 19.6644C6.53364 19.5739 6.44794 19.4942 6.35227 19.4279Z" fill="#468077"/>
<path d="M8.9257 18.6197C8.92887 18.5496 8.93799 18.4799 8.95296 18.4113C8.95701 18.3907 8.96492 18.371 8.97629 18.3533L9.07744 18.2384L8.35305 18.2394L8.44679 18.3514L8.44726 18.3518C8.45931 18.3694 8.46774 18.3893 8.47205 18.4103C8.48634 18.477 8.49527 18.5449 8.49878 18.6132C8.50402 18.6934 8.50726 18.7849 8.50873 18.8855C8.50971 18.9825 8.51024 19.0722 8.51024 19.1519V19.3687H7.50376V19.1652C7.50376 19.0855 7.50423 18.9969 7.50576 18.8969C7.50675 18.7925 7.51015 18.7018 7.51512 18.6197C7.51832 18.5495 7.52746 18.4798 7.54242 18.4112C7.54649 18.3905 7.55457 18.3709 7.56622 18.3533L7.66639 18.2384L6.94053 18.2394L7.03667 18.3533L7.03819 18.3552C7.04947 18.3718 7.05737 18.3905 7.06147 18.4102C7.07579 18.477 7.08476 18.5449 7.0883 18.6132C7.09353 18.6934 7.09667 18.7849 7.09818 18.8854C7.09918 18.9825 7.0997 19.072 7.0997 19.1518V19.7894C7.0997 19.8691 7.09918 19.9582 7.09818 20.0557C7.09667 20.1563 7.09374 20.2478 7.0883 20.328C7.0849 20.3963 7.07592 20.4642 7.06147 20.5309C7.05747 20.5511 7.04939 20.5701 7.03772 20.5869H7.03819L6.93311 20.7022L7.66188 20.7012L7.56774 20.5899V20.5894C7.55521 20.5714 7.54659 20.551 7.54242 20.5295C7.52738 20.4611 7.51824 20.3915 7.51512 20.3215C7.50988 20.2394 7.50675 20.1488 7.50576 20.0443C7.50423 19.9448 7.50376 19.8563 7.50376 19.7766V19.584H8.51024V19.7894C8.51024 19.8691 8.50971 19.9582 8.50873 20.0557C8.50726 20.1563 8.50428 20.2478 8.49878 20.328C8.49542 20.3963 8.48648 20.4642 8.47205 20.5309C8.46797 20.5511 8.46005 20.5703 8.44872 20.5875L8.34563 20.7018L9.07268 20.7012L8.97796 20.5899C8.96581 20.5715 8.95739 20.5511 8.95316 20.5295C8.93811 20.4611 8.929 20.3915 8.92591 20.3215C8.92069 20.2413 8.91796 20.1483 8.91796 20.0454V18.896C8.91796 18.7925 8.92095 18.7018 8.92591 18.6197" fill="#468077"/>
<path d="M10.9535 18.3512C10.9644 18.3699 10.9721 18.39 10.9763 18.4112C10.9901 18.4799 10.9989 18.5495 11.0025 18.6196C11.0085 18.7012 11.0114 18.7919 11.013 18.8969C11.0139 18.9958 11.0144 19.0855 11.0144 19.1652V19.9582L9.78042 18.2513L9.771 18.2389L9.26887 18.2394L9.36061 18.3523L9.3626 18.3542C9.37366 18.3718 9.38155 18.3913 9.38587 18.4116C9.40034 18.4801 9.40929 18.5497 9.41266 18.6196C9.41789 18.7028 9.42107 18.7959 9.42107 18.8958V20.0454C9.42107 20.1468 9.41809 20.2375 9.41266 20.3215C9.40956 20.3915 9.40061 20.4611 9.38587 20.5295C9.38127 20.5504 9.37323 20.5703 9.36207 20.5885L9.2627 20.7023L9.74809 20.7013L9.66681 20.5904C9.65574 20.5718 9.64786 20.5513 9.64348 20.53C9.62935 20.4613 9.62061 20.3916 9.61733 20.3215C9.61137 20.24 9.60839 20.1492 9.60686 20.0443C9.60588 19.9458 9.60535 19.8563 9.60535 19.7766V18.7404L11.0254 20.7014H11.1989V19.1652C11.1989 19.0855 11.1993 18.9958 11.2003 18.8969C11.2018 18.7938 11.2048 18.7033 11.2103 18.6196C11.2134 18.5494 11.2225 18.4798 11.2375 18.4112C11.2421 18.3895 11.25 18.3686 11.2608 18.3493L11.3451 18.2384L10.8721 18.2394L10.9535 18.3512Z" fill="#468077"/>
<path d="M2.18451 20.5701C2.135 20.5478 2.08697 20.5223 2.04071 20.4939C1.96478 20.4447 1.89208 20.3908 1.82307 20.3325C1.74822 20.2698 1.67233 20.1993 1.599 20.1245C1.52806 20.0538 1.46117 19.9795 1.39966 19.9048C1.34843 19.8432 1.30154 19.7782 1.25937 19.7102C1.23523 19.6779 1.21923 19.6403 1.21276 19.6005C1.21375 19.5918 1.21649 19.5833 1.22084 19.5756C1.22517 19.568 1.23103 19.5613 1.23802 19.5559C1.2744 19.5266 1.31321 19.5004 1.35405 19.4777C1.40509 19.4489 1.46017 19.4168 1.51766 19.3821C1.5797 19.3453 1.63815 19.3026 1.69221 19.2548C1.74863 19.2046 1.79622 19.1451 1.83301 19.0791C1.87319 19.0035 1.89332 18.9187 1.89149 18.8331C1.89115 18.7545 1.87354 18.6769 1.83992 18.6058C1.80241 18.5293 1.74675 18.4628 1.67776 18.4126C1.59702 18.3535 1.50585 18.3102 1.40902 18.2848C1.28551 18.2521 1.15804 18.2366 1.03027 18.2389L0.00889191 18.2393L0.102625 18.3511L0.103096 18.3517C0.115206 18.3699 0.123794 18.3903 0.128412 18.4116C0.142852 18.4801 0.151807 18.5496 0.155192 18.6196C0.160109 18.7017 0.163091 18.7922 0.163091 18.8957L0.166594 19.7893C0.166594 19.8689 0.166072 19.9581 0.165078 20.0556C0.163613 20.1562 0.159848 20.2452 0.155192 20.3279C0.152151 20.3963 0.143191 20.4642 0.128412 20.5308C0.124397 20.551 0.116296 20.57 0.104612 20.5868H0.105083L0 20.7021L0.728779 20.7012L0.634628 20.5897L0.634157 20.5893C0.622135 20.5712 0.61357 20.5511 0.608893 20.5299C0.594533 20.4612 0.585579 20.3915 0.582113 20.3215C0.576883 20.2379 0.573691 20.1472 0.572175 20.0442C0.571181 19.9457 0.570711 19.8562 0.570711 19.7765V18.4068H1.03032C1.17678 18.4068 1.28364 18.4474 1.35604 18.5299C1.43477 18.6289 1.4743 18.7533 1.46707 18.8795C1.47112 18.9715 1.44821 19.0627 1.40117 19.1419C1.35497 19.2121 1.30036 19.2764 1.23855 19.3334L1.06401 19.4929C1.03215 19.5194 1.00647 19.5525 0.988748 19.5899C0.971025 19.6275 0.961688 19.6683 0.961383 19.7097C0.964533 19.7905 0.984108 19.8699 1.01892 19.9429C1.05841 20.0326 1.10605 20.1186 1.16125 20.1998C1.22293 20.2904 1.29069 20.3767 1.36403 20.4583C1.43805 20.5422 1.51969 20.6191 1.60794 20.688L1.62629 20.7019H2.48355L2.1854 20.5706L2.18451 20.5701Z" fill="#468077"/>
<path d="M4.34207 18.5469C4.2312 18.4433 4.09983 18.364 3.95643 18.3142C3.67327 18.2132 3.36386 18.2132 3.08072 18.3142C2.93702 18.364 2.80533 18.4433 2.69407 18.5469C2.57861 18.6558 2.48633 18.787 2.42276 18.9325C2.28551 19.2775 2.28551 19.6618 2.42276 20.0068C2.48611 20.1526 2.57868 20.284 2.69476 20.3929C2.80644 20.495 2.93735 20.5739 3.07987 20.6251C3.36322 20.7279 3.67375 20.7279 3.9571 20.6251C4.0997 20.5742 4.23066 20.4951 4.34229 20.3929C4.45828 20.2841 4.55063 20.1527 4.61359 20.0068C4.75218 19.662 4.75218 19.2772 4.61359 18.9325C4.55008 18.787 4.45779 18.6558 4.34229 18.5469M4.2793 19.8568C4.25708 19.9896 4.20811 20.1166 4.13536 20.23C4.07425 20.323 3.99126 20.3997 3.89365 20.4532C3.80924 20.4993 3.71528 20.5251 3.61916 20.5288C3.52304 20.5324 3.42739 20.5136 3.33974 20.4741C3.24933 20.4352 3.16728 20.3793 3.09803 20.3095C3.01569 20.2256 2.94815 20.1285 2.89827 20.0222C2.83571 19.889 2.79189 19.7476 2.76809 19.6023C2.73357 19.4312 2.73019 19.2553 2.75809 19.083C2.78036 18.9502 2.82935 18.8233 2.90209 18.7099C2.96314 18.6165 3.04612 18.5396 3.1438 18.4856C3.23492 18.4355 3.3372 18.4091 3.44121 18.4089C3.5293 18.4094 3.61639 18.4277 3.69719 18.4627C3.78716 18.5014 3.8684 18.5577 3.93608 18.6284C4.01794 18.7137 4.08584 18.8115 4.13725 18.9178C4.20093 19.0508 4.24509 19.1922 4.26837 19.3376C4.30267 19.5087 4.30636 19.6844 4.2793 19.8568Z" fill="#468077"/>
<path d="M13.5294 19.5975H13.7752C13.8174 19.5956 13.8596 19.601 13.8999 19.6138C13.9201 19.6206 13.938 19.633 13.9515 19.6496C13.9632 19.6659 13.9698 19.6853 13.9706 19.7053C13.9735 19.7383 13.9749 19.7764 13.9749 19.8193V20.056C13.9765 20.1218 13.9629 20.1871 13.9351 20.2467C13.9074 20.3063 13.8662 20.3588 13.8149 20.3999C13.7624 20.4423 13.7026 20.4748 13.6386 20.4958C13.5701 20.5192 13.4984 20.5311 13.426 20.5311C13.3077 20.5322 13.1914 20.5019 13.0886 20.4433C12.9829 20.3822 12.8897 20.3015 12.8144 20.2054C12.7335 20.1015 12.6689 19.986 12.6229 19.8628C12.5741 19.7357 12.5414 19.603 12.5258 19.4678C12.5104 19.3371 12.514 19.2049 12.5369 19.0752C12.5563 18.956 12.5993 18.8418 12.6635 18.7393C12.7251 18.6426 12.81 18.563 12.9104 18.5075C13.0298 18.4453 13.1634 18.415 13.2979 18.4197C13.4213 18.4213 13.5428 18.4503 13.6536 18.5046C13.7786 18.565 13.8904 18.6497 13.9823 18.7536L14.041 18.8171L14.2508 18.4899L14.1896 18.456C14.0661 18.3851 13.9337 18.3306 13.796 18.2941C13.503 18.2144 13.1931 18.2213 12.904 18.3141C12.753 18.3627 12.6133 18.4411 12.4931 18.5445C12.3709 18.6517 12.2732 18.7838 12.2064 18.9319C12.1325 19.1028 12.0962 19.2876 12.0999 19.4738C12.0971 19.649 12.1318 19.8228 12.2017 19.9837C12.2657 20.13 12.3585 20.2618 12.4744 20.3715C12.5888 20.4788 12.7235 20.5622 12.8705 20.617C13.0203 20.6734 13.1792 20.702 13.3392 20.701C13.5133 20.7003 13.6858 20.6683 13.8485 20.6065C14.0277 20.5372 14.1929 20.4358 14.3359 20.3074L14.3578 20.2879V20.2578C14.3578 20.1019 14.3588 19.9659 14.3611 19.8471C14.3627 19.7351 14.3732 19.6234 14.3925 19.5131L14.4049 19.4359H13.5294V19.5975Z" fill="#468077"/>
<path d="M23.5843 18.6347C23.5113 18.5092 23.4019 18.409 23.2704 18.3474C23.0944 18.2686 22.9026 18.2316 22.7098 18.239L21.7137 18.2395L21.8064 18.3524L21.8073 18.3538C21.8186 18.3717 21.8264 18.3913 21.8307 18.4119C21.8452 18.4803 21.8541 18.5498 21.8575 18.6197C21.8627 18.7028 21.8659 18.796 21.8659 18.896V20.0455C21.8659 20.1469 21.8629 20.2375 21.8575 20.3217C21.8544 20.3916 21.8454 20.4612 21.8307 20.5296C21.826 20.5503 21.8181 20.5702 21.8073 20.5885L21.708 20.7019H22.2833L22.4336 20.7014L22.3354 20.5885C22.3236 20.5712 22.3155 20.5516 22.3115 20.531C22.2973 20.4643 22.2884 20.3964 22.2848 20.3281C22.2796 20.2479 22.2764 20.1564 22.2749 20.0558L22.2745 20.0286C22.2734 19.942 22.273 19.8618 22.273 19.7895V18.407H22.7132C22.8213 18.4032 22.9284 18.4308 23.0211 18.4867C23.0996 18.5361 23.1621 18.607 23.201 18.6911C23.241 18.7802 23.2588 18.8774 23.2531 18.9748C23.2486 19.0845 23.2197 19.1919 23.1683 19.2891C23.1111 19.3989 23.0319 19.496 22.9358 19.5743C22.8304 19.6568 22.7207 19.7337 22.607 19.8044L22.3165 19.9876L22.6556 19.9311C22.827 19.9026 22.9898 19.8362 23.1321 19.7366C23.2725 19.6529 23.395 19.5424 23.4926 19.4113C23.5792 19.2968 23.6346 19.1617 23.6532 19.0193C23.6718 18.8871 23.6477 18.7523 23.5843 18.6347Z" fill="#468077"/>
<path d="M21.1825 18.3489L21.183 18.3494C21.1948 18.3671 21.2032 18.3869 21.2078 18.4076C21.2217 18.475 21.2305 18.5433 21.234 18.6119C21.2388 18.6948 21.2422 18.7837 21.2437 18.8835C21.2446 18.9806 21.245 19.0683 21.245 19.1465V19.8626C21.2466 19.954 21.2272 20.0445 21.1883 20.1275C21.1522 20.2017 21.1002 20.2673 21.0362 20.3195C20.9719 20.3725 20.8984 20.4131 20.8195 20.4394C20.6662 20.4944 20.4987 20.4962 20.3443 20.4446C20.2733 20.4207 20.2077 20.3829 20.1514 20.3335C20.0934 20.2795 20.0474 20.2139 20.0168 20.1409C19.9804 20.0526 19.9629 19.9578 19.9654 19.8623V19.1334C19.9654 19.0553 19.9659 18.9675 19.9668 18.8723C19.9682 18.7738 19.9712 18.6843 19.9765 18.6054C19.98 18.5387 19.9887 18.4724 20.0027 18.407C20.0067 18.3858 20.0146 18.3656 20.026 18.3474L20.1101 18.2382L19.4259 18.2392L19.5065 18.3488C19.517 18.3673 19.5244 18.3873 19.5285 18.408C19.5426 18.4751 19.5514 18.5432 19.5545 18.6117C19.5598 18.6936 19.5629 18.7824 19.5643 18.8832C19.5652 18.9803 19.5657 19.0679 19.5657 19.1462V19.8622C19.5635 19.9895 19.5912 20.1154 19.6465 20.2299C19.6973 20.3321 19.77 20.4218 19.8593 20.4929C19.9475 20.5631 20.0482 20.6161 20.156 20.6492C20.376 20.7184 20.6119 20.7184 20.8319 20.6492C20.9403 20.616 21.0417 20.563 21.1307 20.4929C21.2261 20.4187 21.3025 20.3225 21.3532 20.2128C21.4039 20.1029 21.4276 19.9826 21.4222 19.8618V19.1465C21.4222 19.0682 21.4227 18.9816 21.4242 18.8835C21.4251 18.7812 21.4285 18.6923 21.4334 18.6119C21.4368 18.5432 21.4458 18.475 21.4601 18.4076C21.4641 18.3865 21.4718 18.366 21.483 18.3475L21.5651 18.2384L21.0903 18.2394L21.1825 18.3489Z" fill="#468077"/>
<path d="M18.8602 18.5472C18.7492 18.4434 18.6176 18.3641 18.4741 18.3143C18.1911 18.2134 17.8818 18.2134 17.5988 18.3143C17.455 18.364 17.3233 18.4433 17.2122 18.5472C17.0967 18.6562 17.0045 18.7873 16.9409 18.9327C16.8029 19.2776 16.8029 19.6622 16.9409 20.0071C17.0044 20.1529 17.0968 20.2843 17.2128 20.3931C17.3248 20.4952 17.4557 20.574 17.5981 20.6254C17.8812 20.7282 18.1916 20.7282 18.4748 20.6254C18.6177 20.5744 18.7489 20.4953 18.8604 20.3927C18.9765 20.284 19.0687 20.1528 19.1317 20.0071C19.2697 19.6621 19.2697 19.2773 19.1317 18.9322C19.0681 18.7869 18.9759 18.656 18.8604 18.5472M18.7971 19.8576C18.7747 19.9902 18.7258 20.1171 18.6531 20.2304C18.592 20.3233 18.509 20.3999 18.4114 20.4535C18.3269 20.4994 18.2329 20.5251 18.1369 20.5287C18.0408 20.5322 17.9451 20.5137 17.8574 20.4744C17.7671 20.4354 17.6851 20.3795 17.6157 20.3097C17.5335 20.226 17.4662 20.1289 17.4165 20.0225C17.3535 19.8893 17.3098 19.7481 17.2863 19.6027C17.2522 19.4315 17.2487 19.2557 17.2759 19.0833C17.2982 18.9505 17.3472 18.8236 17.4199 18.7101C17.4813 18.617 17.5643 18.54 17.662 18.486C17.7532 18.436 17.8555 18.4099 17.9595 18.4097C18.0474 18.41 18.1343 18.4282 18.2151 18.4631C18.3051 18.5017 18.3865 18.5581 18.4544 18.6287C18.5365 18.7139 18.6043 18.8118 18.655 18.9186C18.7189 19.0514 18.7632 19.1927 18.7866 19.338C18.821 19.5091 18.8245 19.6849 18.7971 19.8574" fill="#468077"/>
<path d="M16.7902 20.5703C16.7405 20.5479 16.6924 20.5224 16.6459 20.4941C16.5703 20.445 16.4979 20.3911 16.4292 20.3327C16.3508 20.2673 16.2759 20.1979 16.2047 20.1248C16.1347 20.0551 16.0683 19.9817 16.0059 19.905C15.9544 19.8435 15.9072 19.7784 15.8647 19.7104C15.8403 19.6783 15.8245 19.6406 15.8186 19.6008C15.8195 19.592 15.8222 19.5835 15.8266 19.5759C15.831 19.5682 15.8368 19.5615 15.8439 19.5562C15.88 19.5268 15.9187 19.5006 15.9594 19.4779C16.0109 19.4491 16.0665 19.4171 16.124 19.3824C16.1858 19.3456 16.2439 19.303 16.2975 19.2551C16.3541 19.2049 16.4019 19.1454 16.4387 19.0794C16.4787 19.0036 16.4987 18.919 16.4968 18.8333C16.4974 18.7513 16.4784 18.6703 16.4412 18.5972C16.4041 18.5241 16.3498 18.4609 16.283 18.413C16.2024 18.3541 16.1114 18.3108 16.0148 18.2853C15.8914 18.2525 15.7641 18.2371 15.6365 18.2394L14.6177 18.2398L14.7089 18.3526L14.7108 18.3546C14.7219 18.3721 14.7297 18.3913 14.7342 18.4116C14.748 18.4803 14.757 18.55 14.761 18.6199C14.7662 18.7031 14.7694 18.7963 14.7694 18.8962C14.7694 18.8962 14.7718 19.9586 14.7709 20.0561C14.7694 20.1566 14.7665 20.2482 14.761 20.3284C14.7575 20.3966 14.7486 20.4646 14.7342 20.5313C14.7301 20.5515 14.7222 20.5707 14.7108 20.5878L14.6078 20.7027L15.3351 20.7017L15.2399 20.5904C15.2277 20.572 15.2193 20.5515 15.2151 20.53C15.2001 20.4616 15.191 20.392 15.1879 20.322C15.1829 20.2398 15.1795 20.1492 15.1784 20.0448C15.177 19.9453 15.1764 19.8568 15.1764 19.777V18.407H15.6367C15.7835 18.407 15.8902 18.4476 15.9625 18.5303C16.0412 18.6292 16.0808 18.7536 16.0735 18.8797C16.0775 18.9719 16.0542 19.0631 16.0066 19.1422C15.9606 19.2123 15.9061 19.2767 15.8444 19.3337L15.6694 19.4932C15.6379 19.5199 15.6125 19.5531 15.595 19.5905C15.5775 19.628 15.5681 19.6687 15.5678 19.71C15.571 19.791 15.5905 19.8705 15.6252 19.9436C15.6645 20.0335 15.7119 20.1194 15.7671 20.2005C15.8288 20.2909 15.8964 20.377 15.9693 20.4585C16.0439 20.5422 16.1257 20.6192 16.2138 20.6886L16.2326 20.702H17.0912L16.7902 20.5703Z" fill="#468077"/>
<path d="M15.5732 17.2806C15.3592 17.2811 15.1476 17.235 14.9534 17.1454L14.8906 17.1147L14.9156 17.0614C15.1795 17.0881 15.0589 17.0883 15.489 17.084C16.0725 17.0781 16.012 16.6182 16.012 16.6182H15.4537C15.4537 16.6182 14.6966 16.6238 14.6966 15.7221C14.6966 15.0905 15.168 14.7602 15.6341 14.7602C16.0897 14.7602 16.42 15.0752 16.42 15.5088V16.3885H16.5022C16.6614 16.3885 16.8318 16.2761 16.8318 15.9612V15.591C16.8318 15.1019 17.1832 14.7602 17.6864 14.7602C18.1065 14.7602 18.5551 14.9988 18.5551 15.6697V15.9612C18.5551 16.2806 18.6657 16.3885 18.9925 16.3885H20.8098C20.7061 16.2409 20.6362 16.0271 20.5638 15.8038C20.4279 15.3846 20.2862 14.9508 19.9205 14.9508C19.63 14.9508 19.3003 15.2799 19.1168 15.586L18.9774 15.8177L18.9959 15.131C19.3425 14.8429 19.6885 14.7602 19.9061 14.7602C20.6825 14.7602 20.8639 15.3479 21.0097 15.8196C21.1187 16.1721 21.196 16.3885 21.4052 16.3885H21.5758C21.735 16.3885 21.9054 16.2761 21.9054 15.9612V15.591C21.9054 15.1019 22.2569 14.7602 22.7601 14.7602C23.1786 14.7602 23.6288 15.0623 23.6288 15.7257C23.6288 16.435 23.2133 16.688 22.8241 16.688C22.6994 16.6888 22.5757 16.6648 22.4603 16.6173C22.3449 16.57 22.2401 16.5003 22.1518 16.4122C22.0938 16.4779 22.0223 16.5303 21.9421 16.5659C21.8619 16.6014 21.775 16.6193 21.6872 16.6182H18.8941C18.6085 16.6182 18.4056 16.5404 18.2896 16.387C18.2197 16.4766 18.1297 16.5487 18.027 16.5978C17.9243 16.6467 17.8116 16.6711 17.6978 16.6691C17.5825 16.67 17.4683 16.6478 17.3618 16.6038C17.2552 16.5598 17.1588 16.4947 17.078 16.4127C17.0199 16.4782 16.9485 16.5304 16.8684 16.5659C16.7883 16.6013 16.7015 16.6191 16.6139 16.6181H16.4087C16.4087 17.0863 16.0707 17.2805 15.5733 17.2805M22.76 14.9407C22.4547 14.9407 22.3198 15.16 22.3094 15.6744L22.303 16.0145C22.302 16.1143 22.2779 16.2127 22.2326 16.3018C22.3308 16.3711 22.5291 16.4721 22.7095 16.4721C22.7739 16.4732 22.8377 16.4593 22.8958 16.4317C22.9541 16.404 23.0049 16.3633 23.0447 16.3126C23.1503 16.18 23.2043 15.9745 23.2043 15.7022C23.2043 15.2027 22.9807 14.9408 22.76 14.9408M17.6864 14.9408C17.381 14.9408 17.2461 15.1602 17.2358 15.6745L17.2288 16.0146C17.2279 16.1145 17.204 16.2127 17.159 16.3019C17.2961 16.3946 17.4556 16.4485 17.621 16.4578C17.6869 16.4591 17.7522 16.4455 17.8119 16.4178C17.8717 16.3902 17.9245 16.3493 17.9662 16.2985C18.0753 16.1668 18.1308 15.9637 18.1308 15.696C18.1308 15.1772 17.9004 14.9411 17.6866 14.9411M15.5779 14.9411C15.3509 14.9411 15.1209 15.2014 15.1209 15.6994C15.1209 16.2074 15.3503 16.3886 15.5651 16.3886H16.0208L16.0153 15.591C16.0153 15.184 15.8516 14.9411 15.5779 14.9411ZM20.0317 17.2439C19.9861 17.2444 19.9415 17.2313 19.9034 17.2063C19.8653 17.1814 19.8355 17.1458 19.8177 17.1039C19.7999 17.0619 19.795 17.0158 19.8036 16.9712C19.8121 16.9265 19.8337 16.8853 19.8657 16.8529C19.8976 16.8205 19.9385 16.7983 19.9831 16.7891C20.0278 16.78 20.0741 16.7842 20.1163 16.8012C20.1585 16.8184 20.1946 16.8477 20.2201 16.8853C20.2457 16.923 20.2595 16.9673 20.2598 17.0128C20.2601 17.0737 20.2364 17.1321 20.1936 17.1755C20.1508 17.2188 20.0926 17.2434 20.0317 17.2439ZM12.2315 16.6182C11.873 16.6182 11.6514 16.3662 11.639 15.9435V15.0191C10.9394 15.0191 10.816 15.5109 10.816 15.7877C10.816 16.0297 10.9261 16.3129 11.349 16.3129H11.4199V16.4224H11.2368C10.6143 16.4224 10.485 16.0876 10.485 15.7976C10.485 15.3867 10.8118 14.8059 11.7092 14.803H12.0132V15.9615C12.0132 16.2762 12.1837 16.3887 12.3427 16.3887H13.0745C12.8911 16.2193 12.7898 15.9723 12.7898 15.6827C12.7898 15.0812 13.2509 14.7569 13.6848 14.7569C14.207 14.7569 14.4568 14.9768 14.4568 14.9768L14.3328 15.3337L14.2674 15.247C14.1523 15.0931 13.9208 14.9277 13.6848 14.9277C13.3774 14.9277 13.2009 15.1718 13.2009 15.5976C13.2009 15.9807 13.4235 16.3887 13.8355 16.3887H14.2306C14.485 16.3887 14.4883 16.3853 14.54 16.3678C14.5844 16.3479 14.6254 16.3215 14.6621 16.2894L14.6119 16.6185L12.2315 16.6182ZM11.7525 14.6429C11.6915 14.6429 11.6329 14.6187 11.5898 14.5756C11.5466 14.5326 11.5224 14.4741 11.5224 14.4132C11.5224 14.3522 11.5466 14.2937 11.5898 14.2506C11.6329 14.2075 11.6915 14.1834 11.7525 14.1834C11.8136 14.1834 11.8721 14.2075 11.9152 14.2506C11.9585 14.2937 11.9827 14.3522 11.9827 14.4132C11.9827 14.4741 11.9585 14.5326 11.9152 14.5756C11.8721 14.6187 11.8136 14.6429 11.7525 14.6429ZM11.0634 14.6429C11.0179 14.6433 10.9733 14.6301 10.9353 14.6051C10.8973 14.5801 10.8675 14.5444 10.8498 14.5026C10.8321 14.4607 10.8272 14.4146 10.8358 14.3699C10.8443 14.3254 10.8659 14.2843 10.8979 14.2519C10.9298 14.2195 10.9706 14.1973 11.0152 14.1881C11.0598 14.179 11.106 14.1831 11.1482 14.2001C11.1904 14.2172 11.2266 14.2464 11.2522 14.284C11.2777 14.3215 11.2916 14.3658 11.292 14.4112C11.2923 14.4722 11.2685 14.5309 11.2256 14.5742C11.1828 14.6177 11.1244 14.6424 11.0634 14.6429Z" fill="#468077"/>
<path d="M9.03713 14.8027C9.0517 14.8254 9.06631 14.848 9.08095 14.8706C9.10261 14.8993 9.12072 14.9305 9.13488 14.9636C9.14017 14.9801 9.14437 14.997 9.14744 15.0142C9.15554 15.0568 9.1614 15.0998 9.16501 15.1432C9.17087 15.2071 9.17395 15.2713 9.17547 15.3354V16.5735C9.17547 16.9496 9.08874 17.0957 8.86613 17.0957C8.79375 17.0957 8.5151 17.0477 8.5151 17.0477L8.45312 17.169L8.52253 17.1992C8.65138 17.2566 8.7905 17.2874 8.93157 17.2898C9.34007 17.2898 9.58351 17.0219 9.58351 16.5734V15.5419C9.58351 15.4165 9.58309 15.2916 9.58529 15.1666C9.58079 15.0963 9.58675 15.0257 9.60296 14.9571C9.62356 14.9042 9.64733 14.8527 9.67416 14.8027H9.03713Z" fill="#468077"/>
<path d="M8.36682 16.3929V15.5131C8.36682 15.0796 8.03666 14.7646 7.58102 14.7646C7.11497 14.7646 6.64343 15.0949 6.64343 15.7266C6.64343 16.6281 7.40051 16.6226 7.40051 16.6226H7.95856C7.95856 16.6226 8.01929 17.0825 7.43551 17.0885C7.00555 17.0928 7.12591 17.0926 6.86213 17.0657L6.83707 17.1191L6.89984 17.1498C7.0941 17.2394 7.30562 17.2856 7.51961 17.285C8.017 17.285 8.35499 17.0908 8.35499 16.6226L8.36682 16.3929ZM7.51208 16.3929C7.29763 16.3929 7.06785 16.2117 7.06785 15.7037C7.06785 15.2058 7.29799 14.9454 7.52495 14.9454C7.79866 14.9454 7.96228 15.1883 7.96228 15.5953L7.9675 16.3929H7.51208Z" fill="#468077"/>
<path d="M4.45707 14.643C4.50259 14.6434 4.54721 14.6303 4.58529 14.6054C4.62337 14.5805 4.6532 14.5448 4.67099 14.5029C4.68878 14.4612 4.69375 14.415 4.68525 14.3703C4.67677 14.3256 4.6552 14.2845 4.62328 14.2521C4.59138 14.2197 4.55054 14.1974 4.50598 14.1882C4.4614 14.1789 4.41507 14.1831 4.37287 14.2001C4.33066 14.2172 4.29447 14.2463 4.26886 14.2839C4.24325 14.3215 4.22938 14.3659 4.22901 14.4113C4.22864 14.4721 4.25243 14.5307 4.29516 14.5741C4.3379 14.6175 4.3961 14.6423 4.45707 14.643Z" fill="#468077"/>
<path d="M4.91773 14.4113C4.91762 14.4565 4.93093 14.5007 4.95599 14.5383C4.98105 14.5759 5.01671 14.6052 5.05846 14.6225C5.10022 14.6399 5.14619 14.6445 5.19057 14.6358C5.23495 14.6271 5.27573 14.6054 5.30775 14.5734C5.33977 14.5415 5.36158 14.5008 5.37044 14.4566C5.3793 14.4123 5.37481 14.3664 5.35752 14.3246C5.34024 14.2829 5.31094 14.2473 5.27334 14.2222C5.23575 14.197 5.19153 14.1836 5.1463 14.1836C5.08593 14.1842 5.02817 14.2083 4.98544 14.2509C4.9427 14.2935 4.9184 14.351 4.91773 14.4113Z" fill="#468077"/>
<path d="M4.7989 14.1315C4.84442 14.1318 4.88902 14.1186 4.92704 14.0936C4.96506 14.0686 4.9948 14.0329 5.0125 13.991C5.0302 13.9491 5.03507 13.903 5.02648 13.8584C5.01789 13.8137 4.99624 13.7726 4.96425 13.7402C4.93227 13.7079 4.8914 13.6857 4.84681 13.6766C4.80221 13.6674 4.75591 13.6717 4.71374 13.6888C4.67157 13.706 4.63544 13.7352 4.6099 13.7728C4.58438 13.8105 4.5706 13.8548 4.57032 13.9002C4.57009 13.9305 4.57582 13.9604 4.58719 13.9884C4.59855 14.0163 4.61534 14.0417 4.63656 14.0632C4.6578 14.0847 4.68307 14.1018 4.71092 14.1135C4.73878 14.1252 4.76868 14.1314 4.7989 14.1315Z" fill="#468077"/>
<path d="M1.23977 14.9138C1.2853 14.9143 1.32993 14.9012 1.368 14.8762C1.40608 14.8513 1.43591 14.8157 1.4537 14.7738C1.4715 14.7319 1.47646 14.6859 1.46797 14.6412C1.45947 14.5965 1.43791 14.5554 1.406 14.5229C1.37409 14.4905 1.33326 14.4683 1.28869 14.4591C1.24411 14.4497 1.19779 14.454 1.15558 14.471C1.11338 14.4881 1.07718 14.5172 1.05157 14.5547C1.02597 14.5924 1.0121 14.6366 1.01172 14.6821C1.01136 14.743 1.03514 14.8016 1.07788 14.845C1.12061 14.8883 1.17882 14.9131 1.23977 14.9138Z" fill="#468077"/>
<path d="M5.73142 14.9535C5.74455 14.984 5.75356 15.0161 5.75821 15.049C5.77243 15.1439 5.78003 15.2397 5.78096 15.3356V16.0134C5.78096 16.3287 5.61091 16.4411 5.45175 16.4411C5.24451 16.4411 5.01943 16.2525 5.01049 15.9055V15.6925C5.01049 15.5724 5.0118 15.4518 5.0186 15.3317C5.01937 15.2671 5.02739 15.2027 5.0425 15.1398C5.06178 15.0864 5.08606 15.0349 5.115 14.9859H4.46933C4.47949 14.9859 4.52164 15.0659 4.52975 15.0779C4.57279 15.1569 4.59505 15.2455 4.59445 15.3354C4.60387 15.4523 4.60601 15.5697 4.60643 15.7153V16.0134C4.60643 16.3287 4.43638 16.4411 4.27721 16.4411C4.06998 16.4411 3.8449 16.2525 3.83596 15.8248C3.8288 15.6335 3.83671 15.4418 3.85966 15.2518C3.87622 15.2055 3.8977 15.1611 3.92373 15.1194H3.29208L3.35647 15.2191C3.39786 15.2993 3.4191 15.3884 3.41835 15.4786C3.42583 15.563 3.42923 15.6479 3.43085 15.7328C3.43159 15.771 3.43193 15.8095 3.4319 15.8481V15.9943C3.4319 16.3428 3.14829 16.5013 2.88504 16.5013C2.63397 16.5013 2.36888 16.3642 2.34263 16.0641V15.8587C2.34263 15.7003 2.34414 15.5416 2.35575 15.3834C2.35487 15.325 2.36606 15.2671 2.38866 15.2133L2.43636 15.1194H1.79713C1.82035 15.1553 1.84451 15.1909 1.86716 15.2272C1.9394 15.343 1.93177 15.5202 1.93558 15.652V16.2594C1.93558 16.8154 1.67432 17.0861 1.13687 17.0861C0.590481 17.0861 0.193845 16.7357 0.193845 16.253C0.193845 15.5184 0.923147 15.5184 0.923147 15.5184L0.61083 15.1703C0.234227 15.3511 0 15.7535 0 16.2201C0 16.8498 0.475462 17.2894 1.1567 17.2894C1.81758 17.2894 2.23059 16.9992 2.32129 16.4508C2.48097 16.628 2.75312 16.7092 3.00205 16.7092C3.30349 16.7092 3.63568 16.5874 3.77199 16.3245C3.83671 16.4299 3.92737 16.5171 4.03532 16.5777C4.14328 16.6382 4.26495 16.6702 4.38879 16.6705C4.50525 16.674 4.62026 16.6439 4.71999 16.5838C4.81972 16.5237 4.89995 16.436 4.95102 16.3314C5.01624 16.4348 5.10655 16.5201 5.21359 16.5794C5.32063 16.6388 5.44092 16.6701 5.56332 16.6705C5.86276 16.6705 6.18503 16.4716 6.18503 16.0334L6.18853 15.9603V15.5419C6.18853 15.4218 6.19 15.3017 6.19538 15.1816C6.19382 15.1042 6.20059 15.0269 6.21557 14.951C6.23376 14.9002 6.25608 14.851 6.28231 14.804H5.64512C5.66192 14.8256 5.67634 14.849 5.68812 14.8737C5.70396 14.8995 5.71842 14.9262 5.73142 14.9535Z" fill="#468077"/>
</g>
</svg>
