<svg width="27" height="14" viewBox="0 0 27 14" fill="none" xmlns="http://www.w3.org/2000/svg">
<path d="M13.7703 0.552294C13.7703 0.139221 13.8734 0.0910066 14.2449 0.0910066C14.6172 0.0910066 14.7203 0.139212 14.7203 0.552294V4.72537C14.7203 4.92401 14.7835 5.05866 15.037 5.05866H18.1255C18.3865 5.05866 18.4422 4.92401 18.4422 4.72537V3.26257C18.4422 2.8495 18.5453 2.80211 18.9176 2.80211C19.2891 2.80211 19.3922 2.84949 19.3922 3.26257V4.72537C19.3922 4.92401 19.4554 5.05866 19.7089 5.05866H21.8075C22.0685 5.05866 22.1242 4.92401 22.1242 4.72537V3.26257C22.1242 2.8495 22.2272 2.80211 22.5996 2.80211C22.9719 2.80211 23.0742 2.84949 23.0742 3.26257V4.72537C23.0742 4.92401 23.1382 5.05866 23.3908 5.05866H24.975C25.236 5.05866 25.2917 4.92401 25.2917 4.72537V3.26257C25.2917 2.8495 25.3947 2.80211 25.7671 2.80211C26.1386 2.80211 26.2417 2.84949 26.2417 3.26257V4.72537C26.2417 5.61552 26.0206 5.83827 25.1338 5.83827H14.8793C13.9924 5.83827 13.7705 5.61552 13.7705 4.72537L13.7703 0.552294ZM7.23013 0.234797C7.45952 0.529017 7.45952 0.607976 7.12707 0.862302L4.76744 2.6509C4.69596 2.70658 4.67186 2.80217 4.83061 2.80217H8.18749C8.99537 2.80217 9.13833 2.98502 9.13833 3.75549V4.72542C9.13833 4.92407 9.20149 5.05871 9.45499 5.05871H11.5528C11.8063 5.05871 11.8703 4.92407 11.8703 4.72542V3.26262C11.8703 2.84955 11.9725 2.80217 12.3449 2.80217C12.7172 2.80217 12.8203 2.84954 12.8203 3.26262V4.72542C12.8203 5.61557 12.5984 5.83832 11.7116 5.83832H0C0.0631675 5.26567 0.570163 5.05871 1.24337 5.05871H7.90247C8.10859 5.05871 8.18754 5.00385 8.18754 4.80438V3.83528C8.18754 3.6599 8.14016 3.58095 7.90247 3.58095H4.20472C3.58719 3.58095 3.40517 3.24684 3.40517 2.96091C3.40517 2.69827 3.5955 2.47554 3.84816 2.2852L6.61163 0.179102C6.94408 -0.0752229 6.99991 -0.0594268 7.23013 0.234797ZM10.872 7.5073L10.6426 7.74584C10.3733 8.00766 10.1273 8.04006 9.91368 7.8248C9.69176 7.60288 9.72419 7.35604 9.98516 7.09423L10.2229 6.85569C10.4922 6.58558 10.7374 6.56147 10.951 6.7759C11.1646 6.99033 11.1413 7.23719 10.872 7.5073Z" fill="#2056AE"/>
<path d="M11.0267 13.3718C11.606 13.3718 11.7398 13.2288 11.7398 12.6561V12.327C11.7398 11.7543 11.6226 11.6114 11.0267 11.6114H9.11259C9.08765 11.6114 9.07103 11.6022 9.07103 11.5773C9.07103 11.5017 9.88471 10.9963 11.4298 10.9623C11.6642 10.954 11.7232 10.8526 11.7066 10.6257C11.6983 10.4312 11.6309 10.314 11.345 10.314C9.29712 10.314 8.13029 11.3163 8.13029 11.8558C8.13029 12.0918 8.26742 12.2431 8.79934 12.2431H10.8248C10.9761 12.2431 10.9927 12.2771 10.9927 12.386V12.5971C10.9927 12.7152 10.9595 12.7401 10.8248 12.7401H8.10539C7.62666 12.7401 7.23269 12.8922 7.18201 13.3718L11.0267 13.3718ZM21.2165 9.52187L21.0569 9.68145C20.8392 9.90086 20.6464 9.9175 20.4785 9.74877C20.3014 9.57174 20.3272 9.37891 20.5366 9.1678L20.6962 8.99908C20.9148 8.7888 21.1076 8.76303 21.2755 8.94007C21.4517 9.10879 21.4268 9.30244 21.2165 9.52187ZM12.5876 13.3718C12.3108 13.3718 12.0922 13.2878 12.0922 12.9171C12.0922 11.3496 13.8052 10.3141 14.4593 10.3141C14.6862 10.3141 14.7619 10.4653 14.7619 10.6673V11.653C14.7619 11.9315 14.7452 12.0154 14.4178 12.0154C14.0986 12.0154 14.0737 11.9315 14.0737 11.653V11.1477C14.0737 11.1311 14.0737 11.1228 14.0562 11.1228C13.7794 11.1228 12.8228 11.9481 12.8228 12.6222C12.8228 12.6978 12.8311 12.7402 13.0073 12.7402H14.9713C15.1226 12.7402 15.1566 12.6729 15.1566 12.5465V9.87519C15.1566 9.5552 15.2489 9.50533 15.534 9.50533C15.819 9.50533 15.9122 9.5552 15.9122 9.87519V12.5465C15.9122 13.1948 15.7359 13.3718 15.081 13.3718L12.5876 13.3718ZM17.2628 13.3718C16.6087 13.3718 16.4325 13.1947 16.4325 12.5464V8.18207C16.4325 7.86209 16.5248 7.8197 16.8098 7.8197C17.0949 7.8197 17.1872 7.86209 17.1872 8.18207V12.5464C17.1872 12.6728 17.2212 12.7401 17.3725 12.7401H19.3116C19.4878 12.7401 19.4961 12.6977 19.4961 12.6221C19.4961 12.3021 19.0514 11.4003 17.6917 10.9789C17.4564 10.9116 17.4315 10.7769 17.5063 10.5583C17.5994 10.3048 17.7498 10.314 17.9435 10.3639C19.5459 10.8359 20.2265 11.889 20.2265 12.9171C20.2265 13.2878 20.008 13.3717 19.7312 13.3717L17.2628 13.3718ZM20.7386 13.0268V11.0554C20.7386 11.013 20.7212 11.0047 20.663 11.0047H20.52C20.235 11.0047 20.151 10.929 20.151 10.6764C20.151 10.4229 20.235 10.3472 20.52 10.3472H21.116C21.3171 10.3472 21.4434 10.4312 21.4434 10.6589V13.0268C21.4434 13.3468 21.3512 13.3975 21.091 13.3975C20.8218 13.3975 20.7386 13.3468 20.7386 13.0268ZM21.8881 12.9171C21.8881 11.7884 22.9037 10.3141 24.8852 10.3141C25.1113 10.3141 25.1869 10.4653 25.1869 10.6673V11.653C25.1869 11.9315 25.162 12.0154 24.8428 12.0154C24.5236 12.0154 24.4987 11.9315 24.4987 11.653V11.1394C24.4987 11.0463 24.4821 11.0297 24.448 11.0297C23.3908 11.0297 22.6104 12.1334 22.6104 12.6222C22.6104 12.6978 22.6187 12.7402 22.7949 12.7402H25.3547C25.8335 12.7402 26.2283 12.8923 26.2864 13.3719H22.3834C22.0983 13.3719 21.8881 13.2878 21.8881 12.9171Z" fill="#F79210"/>
<path d="M11.0267 13.3718C11.606 13.3718 11.7398 13.2288 11.7398 12.6561V12.327C11.7398 11.7543 11.6227 11.6114 11.0267 11.6114H9.11261C9.08768 11.6114 9.07105 11.6022 9.07105 11.5773C9.07105 11.5017 9.88473 10.9963 11.4298 10.9623C11.6642 10.954 11.7232 10.8526 11.7066 10.6257C11.6983 10.4312 11.631 10.314 11.3459 10.314C9.29714 10.314 8.13028 11.3163 8.13028 11.8558C8.13028 12.0918 8.26742 12.2431 8.79934 12.2431H10.8248C10.9761 12.2431 10.9927 12.2771 10.9927 12.386V12.5971C10.9927 12.7152 10.9595 12.7401 10.8248 12.7401H8.10539C7.62666 12.7401 7.23269 12.8922 7.18201 13.3718L11.0267 13.3718ZM21.2165 9.52187L21.057 9.68145C20.8392 9.90086 20.6464 9.9175 20.4785 9.74877C20.3014 9.57174 20.3272 9.37891 20.5367 9.1678L20.6962 8.99908C20.9148 8.7888 21.1077 8.76303 21.2756 8.94007C21.4518 9.10879 21.4268 9.30244 21.2165 9.52187ZM12.5876 13.3718C12.3108 13.3718 12.0923 13.2878 12.0923 12.9171C12.0923 11.3496 13.8052 10.3141 14.4593 10.3141C14.6862 10.3141 14.7619 10.4653 14.7619 10.6673V11.653C14.7619 11.9315 14.7453 12.0154 14.4178 12.0154C14.0986 12.0154 14.0737 11.9315 14.0737 11.653V11.1477C14.0737 11.1311 14.0737 11.1228 14.0562 11.1228C13.7795 11.1228 12.8228 11.9481 12.8228 12.6222C12.8228 12.6978 12.8311 12.7402 13.0073 12.7402H14.9713C15.1226 12.7402 15.1558 12.6729 15.1558 12.5465V9.87519C15.1558 9.5552 15.2489 9.50533 15.534 9.50533C15.8191 9.50533 15.9122 9.5552 15.9122 9.87519V12.5465C15.9122 13.1948 15.7351 13.3718 15.081 13.3718L12.5876 13.3718ZM17.2628 13.3718C16.6087 13.3718 16.4317 13.1947 16.4317 12.5464V8.18207C16.4317 7.86209 16.5248 7.8197 16.8099 7.8197C17.0949 7.8197 17.188 7.86209 17.188 8.18207V12.5464C17.188 12.6728 17.2213 12.7401 17.3726 12.7401H19.3116C19.4878 12.7401 19.4961 12.6977 19.4961 12.6221C19.4961 12.3021 19.0515 11.4003 17.6909 10.9789C17.4565 10.9116 17.4307 10.7769 17.5064 10.5583C17.5994 10.3048 17.7499 10.314 17.9435 10.3639C19.5468 10.8359 20.2259 11.889 20.2259 12.9171C20.2259 13.2878 20.0082 13.3717 19.7314 13.3717L17.2628 13.3718ZM20.7378 13.0268V11.0554C20.7378 11.013 20.7212 11.0047 20.663 11.0047H20.52C20.2341 11.0047 20.151 10.929 20.151 10.6764C20.151 10.4229 20.2341 10.3472 20.52 10.3472H21.116C21.3171 10.3472 21.4435 10.4312 21.4435 10.6589V13.0268C21.4435 13.3468 21.3512 13.3975 21.091 13.3975C20.8226 13.3975 20.7378 13.3468 20.7378 13.0268ZM21.8881 12.9171C21.8881 11.7884 22.9037 10.3141 24.8852 10.3141C25.1113 10.3141 25.1869 10.4653 25.1869 10.6673V11.653C25.1869 11.9315 25.162 12.0154 24.8428 12.0154C24.5237 12.0154 24.4987 11.9315 24.4987 11.653V11.1394C24.4987 11.0463 24.4821 11.0297 24.4488 11.0297C23.3908 11.0297 22.6104 12.1334 22.6104 12.6222C22.6104 12.6978 22.6187 12.7402 22.7949 12.7402H25.3547C25.8335 12.7402 26.2274 12.8923 26.2864 13.3719H22.3834C22.0974 13.3719 21.8881 13.2878 21.8881 12.9171Z" fill="#F79210"/>
</svg>
