<svg width="40" height="40" viewBox="0 0 40 40" fill="none" xmlns="http://www.w3.org/2000/svg">
<path d="M19.9527 0C8.95111 0 0 8.95111 0 19.9527C0 30.9543 8.95111 39.9054 19.9527 39.9054C30.9543 39.9054 39.9054 30.9543 39.9054 19.9527C39.9054 8.95111 30.9543 0 19.9527 0ZM19.9527 39.511C9.16404 39.511 0.394322 30.7334 0.394322 19.9527C0.394322 9.17193 9.17193 0.394322 19.9527 0.394322C30.7334 0.394322 39.511 9.17193 39.511 19.9527C39.511 30.7334 30.7334 39.511 19.9527 39.511ZM19.9527 6.08044C12.3028 6.08044 6.08044 12.3028 6.08044 19.9527C6.08044 27.6025 12.3028 33.8249 19.9527 33.8249C27.6025 33.8249 33.8249 27.6025 33.8249 19.9527C33.8249 12.3028 27.6025 6.08044 19.9527 6.08044ZM33.6278 19.9527C33.6278 27.4921 27.4921 33.6278 19.9527 33.6278C12.4132 33.6278 6.2776 27.4921 6.2776 19.9527C6.2776 12.4132 12.4132 6.2776 19.9527 6.2776C27.4921 6.2776 33.6278 12.4132 33.6278 19.9527ZM19.9527 0.985804C9.49527 0.985804 0.985804 9.49527 0.985804 19.9527C0.985804 30.4101 9.49527 38.9196 19.9527 38.9196C30.4101 38.9196 38.9196 30.4101 38.9196 19.9527C38.9196 9.49527 30.4101 0.985804 19.9527 0.985804ZM38.7224 19.9527C38.7224 30.2997 30.2997 38.7224 19.9527 38.7224C9.60568 38.7224 1.18297 30.2997 1.18297 19.9527C1.18297 9.60568 9.60568 1.18297 19.9527 1.18297C30.2997 1.18297 38.7224 9.60568 38.7224 19.9527ZM19.9527 6.88486C12.7524 6.88486 6.89274 12.7445 6.89274 19.9527C6.89274 27.1609 12.7524 33.0205 19.9527 33.0205C27.153 33.0205 33.0126 27.1609 33.0126 19.9527C33.0126 12.7445 27.153 6.88486 19.9527 6.88486ZM19.9527 32.6262C12.9653 32.6262 7.27918 26.9401 7.27918 19.9527C7.27918 12.9653 12.9653 7.27918 19.9527 7.27918C26.9401 7.27918 32.6262 12.9653 32.6262 19.9527C32.6262 26.9401 26.9401 32.6262 19.9527 32.6262ZM2.10568 23.6435L2.83912 26.2224L5.88328 23.959L2.09779 23.6435H2.10568ZM5.26025 24.1404L2.97319 25.8439L2.42114 23.9038L5.26025 24.1404ZM1.83754 17.9653L1.7429 20.6467L5.33912 19.4322L1.83754 17.9653ZM4.68454 19.4085L1.9795 20.3233L2.05047 18.3044L4.67666 19.4085H4.68454ZM3.33596 12.4763L2.41325 15L6.20663 14.9606L3.33596 12.4842V12.4763ZM5.59937 14.7319L2.74448 14.7634L3.43849 12.8707L5.59937 14.7319ZM37.7129 16.2855L36.9716 13.6987L33.9196 15.97L37.7129 16.2855ZM34.5505 15.7886L36.8454 14.0852L37.3975 16.0331L34.5505 15.7965V15.7886ZM37.9811 21.9795L38.0757 19.2902L34.4716 20.5047L37.9811 21.9795ZM35.1262 20.5284L37.8391 19.6136L37.7681 21.6325L35.1341 20.5284H35.1262ZM36.4353 27.4527L36.4748 27.4842L37.3975 24.9527L33.5883 24.9921L36.4353 27.4448V27.4527ZM34.2114 25.2208L37.0741 25.1893L36.3801 27.0899L34.2114 25.2208ZM33.3202 32.2082L33.3438 32.2476L34.9763 30.1656L35.0079 30.1262L31.3722 28.9905L33.3202 32.2003V32.2082ZM33.3675 31.8454L31.8849 29.4006L34.6136 30.2524L33.3675 31.8454ZM4.16404 28.959H4.11672C4.11672 28.9669 5.61514 31.1987 5.61514 31.1987L7.80757 28.1073L4.16404 28.9669V28.959ZM4.49527 29.1167L7.27129 28.4621L5.62303 30.7886L4.49527 29.1167ZM7.31073 27.2792L6.16719 24.8502L3.48581 27.6025L7.26341 27.2792H7.31073ZM6.1041 25.2524L6.96372 27.082L4.08517 27.3265L6.1041 25.2524ZM5.32334 20.3391L1.9164 22.1293L5.65458 23.0047L5.31546 20.347L5.32334 20.3391ZM5.13407 20.7019L5.38643 22.7051L2.57098 22.0505L5.13407 20.7019ZM5.91483 15.7886L2.12145 16.4353L5.4101 18.4227L5.91483 15.7886ZM2.77603 16.5615L5.63091 16.0726L5.25237 18.0521L2.77603 16.5615ZM34.6372 19.5347L38.0521 17.7366L34.2981 16.8612L34.6372 19.5268V19.5347ZM34.8186 19.1719L34.5662 17.1609L37.3896 17.8155L34.8186 19.164V19.1719ZM34.0457 24.1009L37.7603 23.4621L37.847 23.4464L34.5505 21.459L34.0457 24.1009ZM37.1924 23.3202L34.3297 23.8092L34.7082 21.8218L37.1924 23.3202ZM32.0662 28.2571L35.8833 28.8091L33.3596 25.8991L32.0662 28.2571ZM35.3076 28.4937L32.4369 28.0757L33.4148 26.3013L35.3155 28.4937H35.3076ZM6.64826 7.72871L6.62461 7.68927L4.99211 9.77129L4.96057 9.81073L8.59622 10.9464L6.64826 7.73659V7.72871ZM6.59306 8.09937L8.07571 10.5442L5.347 9.69243L6.59306 8.09937ZM35.8044 10.9858H35.8517C35.8517 10.9779 34.3533 8.74606 34.3533 8.74606L32.1609 11.8375L35.8044 10.9779V10.9858ZM35.4732 10.8281L32.6972 11.4827L34.3454 9.15615L35.4732 10.8281ZM29.7634 9.10883L31.5694 11.0252L31.601 11.0568L33.3044 7.61041L29.8107 9.08518L29.7634 9.10095V9.10883ZM32.8155 8.06782L31.5379 10.6625L30.1577 9.1877L32.8233 8.05994L32.8155 8.06782ZM32.6498 12.6656L33.7934 15.0946L36.4748 12.3423L32.6972 12.6656H32.6498ZM33.8644 14.6924L33.0047 12.8628L35.8833 12.6183L33.8644 14.6924ZM7.89432 11.6877L4.07729 11.1356L6.60095 14.0457L7.89432 11.6877ZM4.66088 11.4511L7.53155 11.8691L6.55363 13.6435L4.653 11.4511H4.66088ZM9.92902 5.88328L9.71609 5.5836L9.47161 5.7571L9.68454 6.05678L9.92902 5.88328ZM9.74763 6.38801C9.67666 6.49054 9.653 6.59306 9.67666 6.71136C9.69243 6.82965 9.76341 6.96372 9.8817 7.12145C10 7.28707 10.1183 7.40536 10.2208 7.46057C10.3312 7.51577 10.4416 7.53155 10.5521 7.5C10.6703 7.46846 10.8044 7.39748 10.9621 7.28707L11.7035 6.78233C11.7508 6.75079 11.7981 6.71924 11.8454 6.69558L12.9495 6.06467C13.0047 6.03312 13.0521 6.00946 13.1073 5.97792L14.1483 5.49685L15.6309 4.98423L15.5126 4.64511L14.8107 4.88959C14.7555 4.86593 14.7003 4.8265 14.653 4.77129C14.6057 4.71609 14.5662 4.64511 14.5347 4.56625C14.4874 4.43218 14.4874 4.32965 14.5347 4.25079C14.582 4.17192 14.6451 4.11672 14.7319 4.09306C14.795 4.0694 14.8738 4.06151 14.9606 4.05363C15.0473 4.05363 15.1262 4.05363 15.1972 4.06151L15.0946 3.70662C15.0158 3.69874 14.929 3.69874 14.8344 3.70662C14.7397 3.71451 14.653 3.73817 14.5899 3.76183C14.4874 3.79338 14.4006 3.85647 14.3139 3.93533C14.2271 4.0142 14.164 4.11672 14.1325 4.2429C14.1009 4.36908 14.1088 4.51104 14.164 4.67666C14.2192 4.8265 14.2902 4.95268 14.3927 5.03943L14.0063 5.18139L13.612 5.36278L13.1546 4.35331L12.7997 4.51893L13.2571 5.52839L12.8628 5.71767L11.6167 6.41956L11.3565 6.57729L10.7177 5.67823C10.6625 5.70978 10.5678 5.76499 10.4416 5.84385C10.3155 5.92271 10.205 6.00158 10.1183 6.06467C9.95268 6.18297 9.83438 6.29338 9.76341 6.3959M10.3233 6.34069C10.4101 6.2776 10.4968 6.2224 10.5836 6.17508L11.0331 6.79811L10.7729 6.9795C10.6861 7.04259 10.6151 7.07413 10.5599 7.08991C10.4968 7.10568 10.4416 7.09779 10.3864 7.06625C10.3312 7.0347 10.2681 6.97949 10.205 6.88486C10.1498 6.79811 10.1104 6.72713 10.1025 6.67193C10.0946 6.60883 10.1025 6.55363 10.142 6.50631C10.1814 6.4511 10.2366 6.3959 10.3312 6.33281M10.2918 5.62303L10.0789 5.32334L9.83439 5.49685L10.0473 5.79653L10.2918 5.62303ZM14.164 6.15931L14.0142 5.82808L13.7382 5.95426L13.888 6.28549L14.164 6.15931ZM13.336 6.13565L13.4858 6.46688L13.7618 6.34069L13.612 6.00947L13.336 6.13565ZM16.1278 5.16562C16.1041 5.22871 16.0647 5.26814 15.9937 5.28391L15.8991 5.29969L15.9858 5.6388C16.1041 5.61514 16.1751 5.60726 16.1987 5.59937C16.3565 5.55994 16.459 5.4653 16.5063 5.31546C16.5536 5.16562 16.5457 4.98423 16.4905 4.75552L16.1356 3.35174L15.7571 3.44637L16.1278 4.92114C16.1514 5.01577 16.1514 5.10252 16.1278 5.16562ZM16.9795 3.47792C17.1136 3.45426 17.2319 3.49369 17.3423 3.58044C17.4527 3.67508 17.5315 3.84069 17.571 4.09306L17.5868 4.19558L16.6562 4.34543L16.7114 4.70032L18.1467 4.46372C18.2492 4.44795 18.3517 4.43218 18.4543 4.43218L19.0536 4.40063L18.8959 2.35016L18.5016 2.3817L18.6278 4.07729L18.265 4.10095L17.9574 4.13249L17.9338 3.99054C17.8943 3.76972 17.8312 3.58833 17.7445 3.44637C17.6577 3.30442 17.5473 3.20189 17.4132 3.14669C17.2871 3.09148 17.1451 3.07571 16.9874 3.09937C16.9243 3.10725 16.8533 3.13091 16.7823 3.15457C16.7114 3.17823 16.6404 3.20189 16.5852 3.22555L16.664 3.52524L16.9558 3.47792H16.9795ZM19.4558 2.3265L19.4953 4.38486H19.8896L19.8502 2.31861H19.4558V2.3265ZM21.8454 2.36593L21.5457 2.33439L21.5063 2.69716L21.806 2.72871L21.8454 2.36593ZM22.295 2.42114L21.9953 2.38959L21.9558 2.75237L22.2555 2.78391L22.295 2.42114ZM24.1483 4.92902L25.6073 5.41798L25.836 4.73975C25.8675 4.653 25.8833 4.55047 25.8912 4.44795C25.8912 4.33754 25.8754 4.22713 25.8202 4.12461C25.765 4.01419 25.6625 3.94322 25.5205 3.88801L24.9685 3.70662L25.0552 3.62776C25.1972 3.49369 25.3391 3.37539 25.4811 3.27287L25.2603 3.02839C25.1814 3.06782 25.1025 3.12303 25.0079 3.18612C24.9132 3.24921 24.8423 3.3123 24.7792 3.37539L24.5032 3.64353L24.6057 3.96688L25.3549 4.21924C25.418 4.2429 25.4653 4.29022 25.489 4.36908C25.5126 4.44795 25.5126 4.5347 25.4811 4.62934L25.3628 4.96845L24.1167 4.57413L22.7208 4.26656L22.4211 4.21136L22.5394 3.11514C22.4763 3.09937 22.3738 3.07571 22.224 3.05205C22.0741 3.02839 21.9401 3.01262 21.8375 2.99685C21.6325 2.97319 21.4748 2.98107 21.3565 3.00473C21.2382 3.03628 21.1514 3.09937 21.0883 3.19401C21.0252 3.29653 20.9858 3.43849 20.9621 3.63565C20.9385 3.84069 20.9464 3.99842 20.9858 4.11672C21.0252 4.22713 21.1041 4.31388 21.2066 4.36908C21.317 4.42429 21.459 4.46372 21.6562 4.47949L22.5237 4.57413C22.6025 4.58202 22.6893 4.59779 22.7681 4.61356L23.9432 4.87382C24.0221 4.88959 24.0931 4.91325 24.1719 4.93691M22.011 4.14827L21.6956 4.11672C21.5931 4.10883 21.5142 4.08517 21.459 4.06151C21.4038 4.02997 21.3644 3.99054 21.3407 3.92744C21.317 3.86435 21.317 3.78549 21.3249 3.67508C21.3328 3.57256 21.3565 3.50158 21.388 3.44637C21.4196 3.39905 21.4669 3.35962 21.53 3.35174C21.5931 3.33596 21.6798 3.33596 21.7823 3.35174C21.8927 3.36751 21.9874 3.38328 22.0899 3.39905L22.0032 4.16404L22.011 4.14827ZM25.7808 5.89905L25.694 5.85174L25.5521 6.17508C25.6546 6.23028 25.7177 6.26183 25.7413 6.2776C25.8912 6.34858 26.0252 6.33281 26.1514 6.25394C26.2776 6.17508 26.388 6.02524 26.4827 5.8123L26.9401 5.97792L27.8391 6.52208C27.9416 6.58518 28.0442 6.60095 28.1467 6.58517C28.1625 6.63249 28.194 6.67981 28.2334 6.72713C28.2729 6.77445 28.3202 6.82177 28.3754 6.85331L28.8959 7.16877L29.3218 6.46688C29.3454 6.41956 29.3927 6.34069 29.4401 6.2224C29.4953 6.1041 29.5426 5.9858 29.5899 5.86751L29.2902 5.70189C29.2192 5.85173 29.1562 5.96215 29.1167 6.04101C29.0773 6.11987 29.0221 6.20663 28.959 6.31704L28.7539 6.66404L28.5647 6.55363C28.541 6.53786 28.5174 6.52208 28.5016 6.49842C28.4858 6.47476 28.47 6.4511 28.4621 6.42745C28.5174 6.37224 28.5726 6.30126 28.6278 6.21451L28.959 5.66246L28.6199 5.45741L28.2886 6.00947C28.2413 6.08833 28.1861 6.14353 28.1151 6.17508C28.0521 6.20662 27.989 6.19874 27.9259 6.15931L27.8076 6.08833L28.3044 5.26025L27.9653 5.05521L27.4685 5.88328L27.0662 5.68612L26.6404 5.49685L27.0978 4.48738L26.735 4.32177L26.112 5.70978C26.0726 5.80442 26.0252 5.86751 25.97 5.90694C25.9148 5.94637 25.8517 5.94637 25.7886 5.91483M29.1167 4.85016L28.8565 4.69243L28.6751 4.99211L28.9353 5.14984L29.1167 4.85016ZM29.0615 5.22871L29.3218 5.38643L29.5032 5.08675L29.2429 4.92902L29.0615 5.22871ZM29.511 4.61356L29.2666 4.47161L29.0931 4.75552L29.3375 4.89748L29.511 4.61356ZM10.1104 31.877C10.1814 31.7271 10.1893 31.5773 10.142 31.4274C10.0946 31.2776 9.97634 31.112 9.78707 30.9385L9.23502 30.4101L7.65773 32.0584L8.20978 32.5868C8.39905 32.7681 8.57256 32.8786 8.7224 32.9101C8.88013 32.9495 9.03786 32.9259 9.1877 32.8391C9.34543 32.7524 9.51893 32.6104 9.71609 32.3975C9.90536 32.2003 10.0394 32.0189 10.1104 31.8691M9.64511 31.7429C9.59779 31.8218 9.51104 31.9322 9.38486 32.0584C9.2429 32.2003 9.13249 32.3107 9.03786 32.3738C8.95111 32.4369 8.85647 32.4685 8.76183 32.4606C8.66719 32.4606 8.57256 32.3975 8.47003 32.3028L8.24921 32.0899L9.27445 31.0252L9.49527 31.2382C9.59779 31.3407 9.66088 31.4274 9.68454 31.5063C9.70032 31.5852 9.68454 31.664 9.64511 31.7508M10.4811 32.082L10.836 32.358L11.1199 32.0032L10.765 31.7271L10.4811 32.082ZM10.347 32.2476L9.30599 33.5647L9.66088 33.8407L10.7019 32.5237L10.347 32.2476ZM11.8533 33.2886C11.6956 33.2256 11.5063 33.1782 11.2855 33.1625L11.388 33.0126L11.0174 32.7603L10.071 34.1483L10.4416 34.4006L11.0804 33.47L11.1514 33.4858C11.2934 33.5331 11.4432 33.5883 11.6009 33.6514L11.8533 33.2808V33.2886ZM12.0505 33.4543L11.1987 34.8975L11.5852 35.1262L12.4369 33.6751L12.0505 33.4464V33.4543ZM12.5473 33.4937L12.776 33.0994L12.3896 32.8707L12.1609 33.265L12.5473 33.4937ZM13.6199 34.2823L12.776 35.3155L12.705 35.2839L12.9968 33.9827L12.5946 33.7855L12.2319 35.4732L12.5158 35.6073L12.0426 36.1593L12.4369 36.3486L14.0063 34.4637L13.6041 34.2666L13.6199 34.2823ZM14.8659 34.7476C14.6609 34.6767 14.4401 34.6293 14.1877 34.6057L14.0931 34.9054C14.1798 34.929 14.2823 34.9606 14.4085 35C14.5347 35.0394 14.6293 35.071 14.7003 35.0946C14.7713 35.1183 14.8107 35.1498 14.8344 35.1814C14.8502 35.2129 14.8502 35.2681 14.8344 35.3312L14.8028 35.4259L14.4558 35.3312C14.2587 35.276 14.1009 35.2681 13.9905 35.3076C13.8801 35.347 13.7934 35.4495 13.7303 35.6151C13.6041 35.9621 13.7066 36.1909 14.0379 36.3092C14.1956 36.3644 14.3612 36.3801 14.5426 36.3644C14.5899 36.4353 14.6451 36.4827 14.7003 36.5221C14.7555 36.5615 14.8423 36.6009 14.9527 36.6404L15.0789 36.3249C15.0473 36.3013 15.0237 36.2776 15.0158 36.2539C15.0158 36.2303 15.0158 36.1909 15.0315 36.1357L15.2681 35.4811C15.3312 35.2918 15.3391 35.142 15.276 35.0315C15.2208 34.9133 15.0868 34.8186 14.8817 34.7476M14.5662 36.0568H14.511C14.4085 36.041 14.3139 36.0252 14.235 35.9937C14.1325 35.9543 14.1009 35.8833 14.1404 35.765C14.1798 35.6467 14.2666 35.6073 14.3849 35.6388L14.6845 35.7177L14.5662 36.0568ZM16.7035 35.2681C16.6325 35.2524 16.5615 35.2445 16.4905 35.2445C16.4196 35.2445 16.3407 35.2603 16.2461 35.2839L16.4117 34.5505L15.97 34.448L15.4416 36.735L15.8833 36.8375L16.1672 35.6073H16.2145C16.3092 35.5994 16.388 35.6073 16.4669 35.623C16.5694 35.6467 16.6246 35.694 16.6483 35.765C16.6719 35.836 16.664 35.9464 16.6246 36.0883L16.4196 36.9637L16.8612 37.0662L17.0662 36.183C17.1293 35.9148 17.1293 35.7019 17.082 35.5599C17.0268 35.4101 16.9006 35.3155 16.6956 35.2681M18.6593 35.0789C18.5331 35.1498 18.4385 35.2603 18.3754 35.4259C18.3123 35.5915 18.2729 35.8281 18.2492 36.1278C18.2334 36.4038 18.2492 36.6246 18.2808 36.7981C18.3202 36.9716 18.3991 37.0978 18.5252 37.1924C18.6514 37.2871 18.8328 37.3423 19.0773 37.358C19.2587 37.3659 19.4716 37.358 19.724 37.3186L19.7397 36.9401C19.5268 36.9558 19.3375 36.9637 19.1877 36.9558C19.0457 36.9479 18.9432 36.9164 18.8722 36.8691C18.8091 36.8218 18.7618 36.7508 18.7461 36.6562C18.7303 36.5615 18.7224 36.4117 18.7303 36.2224V36.0962C18.7461 35.9148 18.7697 35.765 18.8091 35.6703C18.8407 35.5678 18.8959 35.4968 18.9748 35.4574C19.0457 35.418 19.1562 35.4022 19.2981 35.4101C19.4401 35.418 19.6136 35.4495 19.8344 35.4968L19.8738 35.1262C19.6293 35.0473 19.4006 35.0079 19.1956 34.9921C18.9748 34.9763 18.8013 35.0079 18.6751 35.071M20.7886 35.5994C20.5363 35.6151 20.347 35.7019 20.2287 35.8596C20.1025 36.0174 20.0552 36.2382 20.0631 36.5142C20.0789 36.7981 20.1577 37.011 20.2918 37.153C20.4338 37.3028 20.623 37.3659 20.8754 37.3502C21.1278 37.3344 21.317 37.2476 21.4353 37.0899C21.5615 36.9322 21.6088 36.7114 21.5931 36.4274C21.5773 36.1514 21.4984 35.9385 21.3644 35.7886C21.2224 35.6467 21.0331 35.5757 20.7808 35.5915M21.0962 36.8454C21.0489 36.9243 20.97 36.9716 20.8675 36.9795C20.7571 36.9795 20.6782 36.9479 20.623 36.877C20.5678 36.7981 20.5363 36.6719 20.5284 36.4984C20.5205 36.3249 20.5363 36.1909 20.5836 36.112C20.6309 36.0331 20.7098 35.9937 20.8123 35.9858C20.9227 35.9858 21.0016 36.0173 21.0568 36.0883C21.112 36.1593 21.1435 36.2855 21.1514 36.4669C21.1593 36.6404 21.1435 36.7744 21.0962 36.8533M24.1562 35.2839C24.0457 35.1735 23.888 35.142 23.683 35.1893C23.5883 35.2051 23.5016 35.2366 23.4148 35.2839C23.3281 35.3312 23.2413 35.3864 23.1467 35.4574C23.0915 35.418 23.0205 35.3864 22.9495 35.3785C22.8707 35.3707 22.7997 35.3707 22.7208 35.3864C22.6577 35.4022 22.5946 35.4259 22.5394 35.4574C22.4842 35.489 22.4211 35.5363 22.3502 35.5994L22.3344 35.5047L21.9006 35.5915L22.2397 37.2397L22.6814 37.153L22.429 35.9227L22.4685 35.8991C22.5552 35.8517 22.6341 35.8202 22.7051 35.8044C22.776 35.7886 22.8233 35.7965 22.8628 35.8123C22.9022 35.836 22.9338 35.8754 22.9574 35.9306C22.9811 35.9858 23.0047 36.0804 23.0284 36.1987L23.2019 37.0426L23.6435 36.9558L23.47 36.1041C23.4464 36.0016 23.4227 35.8754 23.3833 35.7334L23.4306 35.7098C23.5331 35.6546 23.612 35.623 23.6751 35.6151C23.7618 35.5994 23.8328 35.6151 23.8801 35.6703C23.9274 35.7256 23.9669 35.8281 23.9905 35.9779L24.1719 36.8533L24.6136 36.7666L24.4322 35.8754C24.377 35.5994 24.2902 35.4022 24.1798 35.2997M25.9148 34.6688C25.765 34.5741 25.5915 34.5584 25.3943 34.6372C25.3312 34.6609 25.276 34.6924 25.2287 34.724C25.1814 34.7634 25.1262 34.8186 25.0552 34.8975L25.0237 34.8107L24.6057 34.9606L25.4259 37.2003L25.8517 37.0426L25.6151 36.3959C25.7177 36.3801 25.8044 36.3565 25.8912 36.3249C26.0647 36.2618 26.1909 36.183 26.2697 36.0962C26.3565 36.0095 26.3959 35.8912 26.4038 35.7571C26.4038 35.623 26.3722 35.4495 26.3013 35.2524C26.1909 34.9606 26.0647 34.7634 25.9227 34.6688M25.9227 35.7808C25.8991 35.8675 25.8281 35.9306 25.7098 35.9779C25.6546 36.0016 25.5757 36.0174 25.4732 36.041L25.1735 35.2129L25.205 35.1814C25.2681 35.1183 25.3391 35.0789 25.418 35.0473C25.5205 35.0079 25.6073 35.0237 25.6782 35.0789C25.7492 35.1341 25.8123 35.2445 25.8754 35.4022C25.9385 35.5678 25.9543 35.6861 25.9306 35.7729M28.0521 34.929C28.0284 34.9211 28.0047 34.8896 27.9732 34.8423L27.6577 34.2192C27.571 34.0457 27.4606 33.9353 27.3344 33.8959C27.2082 33.8565 27.0505 33.8959 26.8612 33.9827C26.6719 34.0773 26.4827 34.2114 26.2934 34.377L26.4432 34.653C26.5142 34.6057 26.6088 34.5505 26.7271 34.4874C26.8375 34.4243 26.9322 34.377 26.9953 34.3454C27.0584 34.3139 27.1136 34.306 27.153 34.3139C27.1924 34.3218 27.224 34.3612 27.2555 34.4164L27.3028 34.511L26.9953 34.7003C26.8139 34.8028 26.7035 34.9132 26.6562 35.0237C26.6088 35.1341 26.6246 35.2681 26.7035 35.4259C26.8691 35.7571 27.1057 35.836 27.4132 35.6861C27.5631 35.6151 27.6893 35.5047 27.7997 35.3628C27.8786 35.3786 27.9574 35.3707 28.0205 35.3628C28.0915 35.347 28.1782 35.3155 28.2808 35.2603L28.1388 34.9527C28.0994 34.9606 28.0678 34.9606 28.0442 34.9527M27.571 35.142C27.4921 35.2129 27.4133 35.2681 27.3423 35.3076C27.2476 35.3549 27.1688 35.3233 27.1136 35.2129C27.0584 35.1025 27.082 35.0158 27.1924 34.9448L27.4527 34.7871L27.6104 35.1104L27.571 35.142ZM28.9748 32.9495C28.8328 32.8864 28.6672 32.9101 28.5016 33.0284C28.4385 33.0678 28.3833 33.1151 28.3439 33.1703C28.2965 33.2256 28.2571 33.2965 28.2098 33.3833L28.1546 33.3044L27.7839 33.5489L28.7066 34.9527L29.0852 34.7082L28.3912 33.6593L28.4148 33.6278C28.4779 33.5489 28.541 33.4937 28.5962 33.4464C28.683 33.3912 28.7618 33.3754 28.8249 33.4069C28.888 33.4385 28.9669 33.5174 29.0536 33.6514L29.5505 34.4006L29.929 34.1562L29.4243 33.3991C29.2744 33.1703 29.1246 33.0205 28.9827 32.9574M30.3864 31.601L30.0473 31.8849L30.6467 33.0757L30.5836 33.123L29.5189 32.3265L29.1798 32.6104L30.5757 33.6357L30.8202 33.4306L31.1278 34.0931L31.4669 33.8092L30.3864 31.601ZM9.78707 26.317H30.1262C30.1735 26.2382 30.2287 26.1593 30.276 26.0726H9.63723C9.68454 26.1514 9.73186 26.2382 9.78707 26.317ZM10.5047 27.3344H29.4085C29.4716 27.2555 29.5347 27.1767 29.5978 27.0899H10.3233C10.3864 27.1688 10.4495 27.2555 10.5047 27.3344ZM8.75394 24.2666H31.1435C31.1751 24.1877 31.2066 24.1088 31.2382 24.0221H8.66719C8.69874 24.1009 8.73028 24.1877 8.76183 24.2666M9.21136 25.2918H30.7019C30.7413 25.2129 30.7808 25.1341 30.8202 25.0473H9.10095C9.14038 25.1262 9.17981 25.2129 9.21924 25.2918M12.5394 29.3849H27.3659C27.4685 29.306 27.5631 29.2271 27.6656 29.1404H12.2476C12.3423 29.2192 12.4448 29.306 12.5473 29.3849M14.0615 30.4022H25.836C25.9779 30.3233 26.112 30.2445 26.2461 30.1577H13.6514C13.7855 30.2445 13.9196 30.3233 14.0615 30.4022ZM11.4038 28.3596H28.5095C28.5883 28.2808 28.6672 28.2019 28.7382 28.1151H11.1672C11.2461 28.194 11.317 28.2808 11.3959 28.3596M31.5536 23.0047H8.34385C8.36751 23.0836 8.39117 23.1703 8.40694 23.2492H31.4827C31.5063 23.1703 31.53 23.0836 31.5457 23.0047M23.4621 31.4274C23.6987 31.3565 23.9432 31.2697 24.1719 31.183H15.7256C15.9621 31.2697 16.1987 31.3486 16.4353 31.4274H23.4543H23.4621ZM31.8691 23.3517C31.8691 23.3517 30.0315 17.7681 29.8423 17.2082C29.653 16.6483 29.0536 16.2066 28.4621 16.2066C27.8707 16.2066 27.5946 16.3407 27.3028 16.7114L26.8139 17.3344C26.6009 17.6104 26.2776 17.7681 25.9385 17.7681H24.7476C24.7003 17.7681 24.6609 17.7287 24.6451 17.6893L24.2981 16.6483C24.1088 16.0804 23.5962 15.694 23.0126 15.694H21.7902L21.3013 13.7776C21.2382 13.5331 21.0174 13.3991 20.765 13.3991C20.765 13.3991 20.7019 13.3991 20.5363 13.3991C20.3707 13.3991 20.3864 13.3991 20.3864 13.3991C19.8896 13.3991 19.448 13.7066 19.3139 14.1404L19.1483 14.6609H18.2019C18.0994 14.6609 17.918 14.6293 17.8391 14.4401L17.8233 14.3691C17.7603 14.1088 17.5394 13.9274 17.2871 13.9274H16.3328C16.1278 13.9274 15.9464 14.0615 15.8754 14.2666L15.4732 15.3549C15.3786 15.6388 15.1341 15.8281 14.8659 15.8281H14.2823C13.8249 15.8281 13.4621 16.1672 13.3123 16.6325L12.7997 18.1388H11.5221C11.4353 18.1388 11.1909 18.1467 11.1356 18.1546C10.4022 18.194 9.79495 18.6672 9.62145 19.3297L8.28864 23.3517H29.2192H31.9006H31.8691ZM13.6514 16.7114C13.7461 16.4196 13.9669 16.2066 14.2508 16.2066H14.8344C15.2681 16.2066 15.6546 15.9148 15.8044 15.4811L16.2066 14.3927C16.2224 14.3375 16.2618 14.306 16.3091 14.306H17.2634C17.3423 14.306 17.4132 14.3691 17.4369 14.4637L17.4606 14.5584V14.582C17.5868 14.8738 17.8549 15.0473 18.1861 15.0473H19.0142C18.9353 15.2208 18.7382 15.4653 18.0994 15.7019C17.6656 15.8675 17.3502 16.2145 17.2003 16.6877L17.0426 17.1924C16.8927 17.6735 16.53 18.0047 16.0568 18.123C15.97 18.1467 15.8517 18.1546 15.7492 18.1546C15.6467 18.1546 13.1861 18.1546 13.1861 18.1546L13.6672 16.7271L13.6514 16.7114ZM9.95268 19.4243C10.0868 18.9117 10.5521 18.5647 11.1278 18.5252C11.183 18.5252 11.4196 18.5095 11.4905 18.5095C11.4905 18.5095 15.6073 18.5095 15.7177 18.5095C15.8517 18.5095 15.9858 18.5095 16.1278 18.47C16.7429 18.3202 17.1924 17.9022 17.3896 17.2871L17.5473 16.7823C17.6262 16.53 17.8076 16.1909 18.2177 16.0331C18.8801 15.7808 19.2508 15.4732 19.3849 15.071L19.653 14.235C19.7397 13.959 20.0394 13.7539 20.3628 13.7539C20.3628 13.7539 20.3628 13.7539 20.5284 13.7539C20.694 13.7539 20.7413 13.7539 20.7413 13.7539C20.8596 13.7539 20.9148 13.8644 20.9306 13.9038L20.9779 14.1009H20.97L21.6877 16.8612L22.0662 18.3596L22.2871 19.1956C22.1924 19.1956 22.0978 19.1956 22.0347 19.1956C21.8297 19.1956 21.6483 19.0379 21.53 18.9038C21.4117 18.7776 20.8123 18.1388 20.5047 17.8155C20.4811 17.7839 20.4574 17.7603 20.4338 17.7366C20.0079 17.2555 19.6767 17.1688 19.2666 17.1451C18.9827 17.1372 18.612 17.224 18.4227 17.4448C18.2886 17.6104 18.2492 17.7129 18.1782 18.0599L17.9968 19.1404L17.3502 22.9495H8.73817L9.9448 19.4006L9.95268 19.4243ZM23.0442 19.5978C23.2729 19.5978 25.7413 19.582 26.0252 19.582C26.3092 19.582 26.6404 19.8423 26.7429 19.9921C27.0032 20.3628 27.571 22.1372 27.8233 22.9811H17.7445L18.0363 21.2855C18.0363 21.2855 18.5883 18.0205 18.6041 17.9732C18.6909 17.5868 19.0694 17.5552 19.2744 17.5552C19.6293 17.5552 19.8344 17.6893 20.0789 17.9259C20.0868 17.9338 21.1199 19.0221 21.2697 19.1877C21.3013 19.2192 21.3328 19.2508 21.3644 19.2823C21.3644 19.2823 21.3644 19.2823 21.3722 19.2902C21.5852 19.4874 21.8139 19.5899 22.0426 19.5978C22.1372 19.5978 22.2792 19.5978 22.429 19.5978C22.7208 19.5978 23.0284 19.5978 23.0442 19.5978ZM28.2177 22.9732C28.0757 22.4921 27.3975 20.2603 27.0505 19.7713C26.877 19.5032 26.4984 19.1956 26.0174 19.1956C25.5363 19.1956 23.0442 19.2114 23.0205 19.2114C22.9732 19.2114 22.8391 19.2114 22.6814 19.2114L22.1372 17.1215L21.8691 16.0647H22.9968C23.4148 16.0647 23.7855 16.3407 23.9196 16.7587L24.2981 17.8864C24.3454 18.0363 24.4874 18.1309 24.6372 18.1309H25.9227C26.3801 18.1309 26.806 17.9259 27.0978 17.5631L27.5868 16.9401C27.7603 16.7192 28.0994 16.5773 28.4543 16.5773C28.8091 16.5773 29.3218 16.8454 29.4874 17.3502C29.653 17.8628 31.3407 22.9653 31.3407 22.9653H28.2177V22.9732ZM25.4574 20.8754H26.0016C26.0568 20.8754 26.0962 20.8123 26.0726 20.765L25.7965 20.2287C25.765 20.1735 25.6861 20.1735 25.6546 20.2287L25.3785 20.765C25.3549 20.8202 25.3864 20.8754 25.4495 20.8754M28.1546 17.9653H28.6987C28.7539 17.9653 28.7934 17.9022 28.7697 17.8549L28.4937 17.3186C28.4621 17.2634 28.3833 17.2634 28.3517 17.3186L28.0757 17.8549C28.0521 17.9101 28.0836 17.9653 28.1467 17.9653M10.9385 19.8738H11.4827C11.5379 19.8738 11.5773 19.8107 11.5536 19.7634L11.2776 19.2271C11.2461 19.1719 11.1672 19.1719 11.1356 19.2271L10.8596 19.7634C10.836 19.8186 10.8675 19.8738 10.9306 19.8738" fill="#B67656"/>
</svg>
