<?xml version="1.0" encoding="UTF-8"?>
<svg xmlns="http://www.w3.org/2000/svg" version="1.1" viewBox="0 0 1000 1000">
  <defs>
    <style>
      .cls-1 {
        fill: #8e6b50;
      }

      .cls-2 {
        fill: #707271;
      }
    </style>
  </defs>
  <!-- Generator: Adobe Illustrator 28.7.0, SVG Export Plug-In . SVG Version: 1.2.0 Build 23)  -->
  <g>
    <g id="Layer_2">
      <g>
        <path class="cls-2" d="M316.2,749.5c-1.3-1-3.2-3.4-5.5-7.3l-5.3-8.9c-2.5-4.2-5.2-7.4-8.2-9.3,2-.6,3.7-1.4,5.1-2.5,1.9-1.5,3.4-3.3,4.4-5.4.9-2.1,1.4-4.2,1.4-6.5s-.3-3.6-.8-5.3c-.6-1.8-1.5-3.6-2.9-5.2-1.3-1.6-3.2-3-5.6-4.1-2.4-1.1-5.3-1.6-8.7-1.6h-21.2v2.7h1.7c1.1,0,2.2.4,3.1,1.2.9.8,1.4,2.2,1.4,4.2v44.2c0,1.4-.2,2.5-.7,3.3-.5.8-1.1,1.3-1.8,1.6-.8.3-1.7.5-2.8.6h-.9v2.5h20.5v-2.5h-.9c-3.7-.1-5.5-1.9-5.5-5.5v-20.4c.9,0,1.8.1,2.5.2.9.2,2,.5,3.1,1.1,1.2.6,2.5,1.6,3.9,3,1.4,1.4,2.8,3.3,4.2,5.5l7,11.6h.1c0,.2.2.4.8,1.4.5.8.9,1.4,1.2,1.9.5.6.9,1.2,1.3,1.7.4.6.8,1.1,1.3,1.7l.3.4h12v-2.4h-.8c-1.2-.2-2.5-.7-3.8-1.7ZM283.1,696.9c.8-.1,1.7-.2,2.7-.2,3.4,0,6.2.7,8.2,2.1,2,1.3,3.4,3,4.2,5,.8,2,1.3,4.1,1.3,6.3s-.5,4.7-1.4,6.4c-.9,1.7-2.4,3-4.4,3.9-2.1.9-4.9,1.4-8.2,1.4h-2.4v-24.9Z"/>
        <path class="cls-2" d="M494.4,693.7c-1.2,1.7-2.9,2.5-5.1,2.5h-37.8c-.9,0-1.7,0-2.3-.1-.6,0-1.1-.2-1.5-.4-.4-.2-.7-.4-.9-.6-.3-.3-.6-.7-1-1.3l-.3-.4h-2.1v16.1h2.4v-.9c.4-3.5,1.3-5.7,3-6.7,1.8-1,4-1.6,6.7-1.6h10.7v45.2c0,2-.5,3.4-1.4,4.2-1.1.8-2.3,1.3-3.9,1.3h-.9v2.5h20.5v-2.5h-.9c-3.7-.1-5.4-1.9-5.4-5.5v-45.2h10.7c2.6,0,4.9.5,6.7,1.6,1.6,1,2.6,3.2,2.9,6.7v.9h2.5v-16.1h-2l-.3.4Z"/>
        <path class="cls-2" d="M589.6,750.6c-.4-.1-1-.6-1.9-1.8-.7-1.1-1.6-2.9-2.5-5.3l-17.5-50h-5.5l-16.5,50.2c-.8,2.5-1.8,4.4-2.8,5.6-1,1.1-2.3,1.7-4,1.9h-.8v2.5h15.4v-2.5h-.9c-1.3,0-2.3-.2-2.9-.7-.7-.4-.8-1.6-.8-2.5s.3-2.5.9-4.4l4.4-13.5h18.6l4.9,14.6c0,.2,0,.4.2.6.5,1.4.7,2.4.7,3.2,0,1.8-.7,2-.9,2.1-.9.3-2.3.5-4.1.5h-.9v2.5h20.6v-2.4h-.8c-1-.2-1.9-.4-2.6-.6ZM571.1,726.2h-15.8l7.6-23.7,8.2,23.7Z"/>
        <path class="cls-2" d="M671,742.1l-.2.6c-.8,1.9-1.5,3.4-2.2,4.4-.7.9-1.5,1.6-2.7,2.1-1.2.5-2.9.7-4.9.7h-5c-2.6,0-4.5-.4-5.7-1.3-1-.8-1.5-2.3-1.5-4.5v-42.6c0-2.2.5-3.6,1.5-4.4,1.1-.8,2.4-1.2,3.8-1.3h.9v-2.6h-20.6v2.5h.9c1.5,0,2.8.5,3.8,1.3,1,.8,1.5,2.2,1.5,4.3v44.1c0,1.8-.5,3.1-1.4,4.1-.9.9-2,1.4-3.1,1.4h-1.7v2.5h36.4l2.6-11.5h-2.5Z"/>
        <g>
          <path class="cls-2" d="M399.5,743.2c-.5,1.5-1.1,2.7-1.8,3.7-.7.9-1.6,1.7-2.8,2.2-1.2.6-2.8.8-4.8.8h-9.8c-1.8,0-2.9-.4-3.3-1.2-.5-1-.8-2.2-.8-3.6v-48.1h12.3c8,0,8.9,3.7,8.9,6.4v1h2.4v-11.1h-37.8v2.6h1.7c1.7,0,2.8.5,3.4,1.5.7,1.2,1.1,2.6,1.1,4.2v44c0,2-.5,3.4-1.5,4.2-1,.9-2,1.3-3,1.3h-1.7v2.5h37.6l2.4-11h-2.4l-.2.6Z"/>
          <path class="cls-2" d="M391.6,719.3l-.3.3c-1.1,1.5-2.5,2.2-4.4,2.2h-14.4v3.6h10.4c2.3,0,4.3.5,5.8,1.4,1.4.8,2.3,2.8,2.5,5.8v.8h2.2v-14h-1.8Z"/>
        </g>
        <path class="cls-1" d="M673.5,520.3c-28.8,7.4-48.6,22.4-48.6,22.4-38.1,24.7-83,67.2-117.4,67.2s-36.3-32.8-36.3-32.8c0-32.7,20.8-60,33-73.2-1-3.7-1.8-7.4-2.5-10.7-3.7-19.6-18.4-128.4-18.4-128.4,0,0-8.4-64.3-54.7-77.4,1.2,7.4,27,133.7,31.3,156.4,4.4,22.7,2,50,2,50-2.6,17-18.2,34-40.2,49.3,0,0-80.3,57.7-152.2,65.9v41.4h403.9v-111.8h0v-18.3h0Z"/>
        <path class="cls-1" d="M414.5,529.6c27.2-17.7,41.7-33.3,41.7-37,0-9.6-10.2-52-10.2-52,0,0-27.7-138-29.7-151.2-2-13.3,5.9-25,5.9-25,0,0,59.3,2.1,72.4,99.8,13,97.7,15.1,121.2,20.6,135,5.5,13.8,10.7,24.8,24,21.9,0,0,9.4-1.6,15.4-10.2,0,0-3.3-14.7-13.5-24.3l2-21.3s17.6,17.6,17.6,39.5-7,33.4-26,36.2c-15.3,2.2-24.8-17.5-29.9-35.4-15.5,21.9-24.2,51-24.5,57.3-.2,3.5-.8,27.1,23.7,27.1s54-22.4,96-50.6c28.7-21.2,53.1-32.6,73.6-37.7v-255.1h-403.9v343c76.8-11.1,145-59.9,145-59.9ZM549.3,441.1l-21.8-12.8,8-13.7-19.2-11.3,10.3-17.6,21.9,12.8-8,13.7,19.3,11.3-10.4,17.6ZM517.8,340.9s12.1,2.5,16.6,25c0,0-.6-27.6,10.2-29.5,10.7-1.9,7.1,10.8,6.5,12.1-.6,1.4-1.4-5.5-5.8-4.5-4.5,1-8.6,15.1-10,33,0,0-3.7-21.5-15.8-26.2,0,0,2.9,3.3,1.9,4.1-1,.8-9.4-3.5-9.2-8.4.4-7.2,5.7-5.7,5.7-5.7Z"/>
        <g>
          <path class="cls-1" d="M708.2,634.3l.2,3.9h-.5c0-.7-.2-1.2-.4-1.5-.3-.5-.6-.8-1-1.1-.4-.2-1-.3-1.7-.3h-2.4v12.8c0,1,.1,1.7.3,1.9.3.4.8.5,1.4.5h.6v.5h-7.1v-.5h.6c.7,0,1.2-.2,1.5-.6.2-.3.3-.9.3-1.8v-12.8h-2c-.8,0-1.4,0-1.7.2-.4.1-.8.5-1.1.9-.3.4-.5,1-.5,1.8h-.5l.2-3.9h13.7Z"/>
          <path class="cls-1" d="M719.4,651.1l-6.5-14.1v11.2c0,1,.1,1.7.3,1.9.3.4.8.5,1.4.5h.6v.5h-5.8v-.5h.6c.7,0,1.2-.2,1.5-.6.2-.3.3-.9.3-1.8v-11c0-.7,0-1.3-.2-1.6-.1-.2-.3-.4-.6-.6-.3-.2-.8-.2-1.5-.2v-.5h4.7l6.1,13.1,6-13.1h4.8v.5h-.6c-.7,0-1.2.2-1.5.7-.2.3-.3.9-.3,1.8v11c0,1,.1,1.7.4,1.9.3.4.8.5,1.4.5h.6v.5h-7.1v-.5h.6c.7,0,1.2-.2,1.5-.6.2-.3.3-.9.3-1.8v-11.2l-6.5,14.1h-.4Z"/>
        </g>
      </g>
    </g>
  </g>
</svg>